<svg xmlns="http://www.w3.org/2000/svg" xmlns:xlink="http://www.w3.org/1999/xlink" viewBox="0 0 1925.1 477.4"><defs><style>.cls-1{fill:url(#Gradiente_sem_nome_5);}</style><linearGradient id="Gradiente_sem_nome_5" x1="939.02" y1="1144.65" x2="986.54" y2="-566.07" gradientUnits="userSpaceOnUse"><stop offset="0" stop-color="#2a2895"/><stop offset="1" stop-color="#793bc8"/></linearGradient></defs><g id="Camada_2" data-name="Camada 2"><g id="Camada_1-2" data-name="Camada 1"><path class="cls-1" d="M0,118C158.1,125.31,215.1,9.1,317.2.4c115.2-9.8,133.5,163.7,249,160,99.3-3.2,120.6-111.4,218-131,119.4-24,183,84.5,304,70,66.7-8,96.8-52.4,164-52,77.9.4,108.5,64.1,186,72,59.4,6,104.5-24.2,146.8-52.2a160.41,160.41,0,0,1,152.6-13.1c101.9,44.5,97.2,63.4,187.3,63.9l.2,359.4H0"/></g></g></svg>