<svg width="1920" height="433" viewBox="0 0 1920 433" fill="none" xmlns="http://www.w3.org/2000/svg">
<path d="M-0.00012207 433V106.77C-0.00012207 106.77 24.701 364.984 219.993 364.984C436.33 364.984 298.005 203.904 402.628 203.904C479.748 203.904 570.272 242.319 689.075 241.332C755.765 240.778 783.222 160.238 837.306 104.097C890.25 49.1386 942.514 165.922 1023.6 171.823C1147.11 180.812 1233.92 0.724689 1398.18 159.347C1481.32 239.636 1470.29 109.444 1524.38 16.7649C1576.76 -72.9988 1565.8 228.808 1670.61 189.646C1757.46 157.195 1758.84 -3.89511 1852.89 0.724424C1913.35 3.69385 1923 106.77 1923 106.77V433H-0.00012207Z" fill="#5432AF"/>
</svg>
