<svg xmlns="http://www.w3.org/2000/svg" xmlns:xlink="http://www.w3.org/1999/xlink" viewBox="0 0 1920 477.4"><defs><style>.cls-1{fill:url(#Gradiente_sem_nome);}</style><linearGradient id="Gradiente_sem_nome" x1="960" y1="476.68" x2="960" y2="-105.32" gradientTransform="matrix(1, 0, 0, -1, 0, 476.68)" gradientUnits="userSpaceOnUse"><stop offset="0" stop-color="#3c2ca0"/><stop offset="1" stop-color="#3c2ca0"/></linearGradient></defs><g id="Camada_2" data-name="Camada 2"><g id="Camada_1-2" data-name="Camada 1"><path class="cls-1" d="M0,87.4s20.53,11.86,44.14,27.3a124,124,0,0,0,172.1-36.59C240.3,40.72,266.7,4.24,312,.4c115.17-9.77,133.47,163.69,249,160C660.27,157.22,681.63,49,779,29.4c119.43-24,183,84.48,304,70,66.71-8,96.81-52.35,164-52,77.89.4,108.51,64.08,186,72,119.91,12.24,172.76-105.34,293-97,79.71,5.52,194,65,194,65v390H0Z"/></g></g></svg>