<svg width="1920" height="478" viewBox="0 0 1920 478" fill="none" xmlns="http://www.w3.org/2000/svg">
<path d="M0 87.9998C0 87.9998 55.6659 149.771 104 161C203.823 184.189 209.885 9.65536 312 0.999757C427.172 -8.76262 445.474 164.695 561 161C660.272 157.824 681.626 49.5808 779 29.9998C898.435 5.98236 962.038 114.483 1083 99.9998C1149.71 92.0119 1179.81 47.6499 1247 47.9998C1324.89 48.4053 1355.51 112.086 1433 120C1552.91 132.246 1605.76 14.6646 1726 22.9998C1805.71 28.5252 1920 87.9998 1920 87.9998V478H0V87.9998Z" fill="url(#paint0_linear)"/>
<defs>
<linearGradient id="paint0_linear" x1="990.5" y1="1.00006" x2="990.5" y2="583" gradientUnits="userSpaceOnUse">
<stop stop-color="#3C2CA0"/>
<stop offset="1" stop-color="#3C2CA0"/>
</linearGradient>
</defs>
</svg>
