<svg width="1920" height="1064" viewBox="0 0 1920 1064" fill="none" xmlns="http://www.w3.org/2000/svg">
<mask id="mask0" mask-type="alpha" maskUnits="userSpaceOnUse" x="0" y="0" width="1921" height="1064">
<path d="M0 957.255C0 957.255 9.63995 1060.31 70.0268 1063.28C163.97 1067.89 165.348 906.842 252.096 874.399C356.782 835.246 345.83 1136.98 398.152 1047.24C452.173 954.582 441.158 894.421 524.2 974.69C688.263 1133.28 774.976 953.231 898.343 962.218C979.33 968.117 1031.53 1084.87 1084.41 1029.93C1138.43 973.8 1165.86 963.279 1232.47 962.725C1351.13 961.738 1441.55 1000.14 1518.58 1000.14C1623.08 1000.14 1524.58 855.814 1740.67 855.814C1935.73 855.814 1920.73 669.61 1920.73 669.61V91.7808C1920.73 91.7808 1760.98 -1.35071 1646.63 0.0148926C1491.86 1.86316 1449.98 225.25 1304.5 178.201C1234.79 155.656 1229.3 94.5374 1162.44 65.9436C1005.28 -1.2749 901.72 133.977 730.279 105.728C628.537 88.9626 593.035 16.0254 490.187 5.9436C405.03 -2.40405 346.132 235.803 283.64 100.382C255.174 38.696 183.401 218.409 120.046 189.475C59.3061 161.735 0 76.3271 0 76.3271V957.255Z" fill="#F5F5FB"/>
</mask>
<g mask="url(#mask0)">
<rect y="681" width="1923" height="388" fill="#F5F5FB"/>
</g>
</svg>
