<svg width="1920" height="395" viewBox="0 0 1920 395" fill="none" xmlns="http://www.w3.org/2000/svg">
<path d="M70.0268 394.28C9.63995 391.31 0 288.255 0 288.255V0.610046L1920.73 0.610107C1920.73 0.610107 1935.73 186.814 1740.67 186.814C1524.58 186.814 1623.08 331.14 1518.58 331.14C1441.55 331.14 1351.13 292.738 1232.47 293.725C1165.86 294.279 1138.43 304.8 1084.41 360.93C1031.53 415.87 979.33 299.117 898.343 293.218C774.976 284.231 688.263 464.28 524.2 305.69C441.158 225.421 452.173 285.582 398.152 378.24C345.83 467.98 356.782 166.246 252.096 205.399C165.348 237.842 163.97 398.89 70.0268 394.28Z" fill="#F5F5FB"/>
</svg>
