<svg width="747" height="572" viewBox="0 0 747 572" fill="none" xmlns="http://www.w3.org/2000/svg">
<path d="M43.8812 234.231C108.97 169.725 127.812 141.373 154.717 90.0497C180.486 40.9096 351.338 -39.0399 499.544 22.1329C689.551 100.596 729.779 192.539 744.088 272.911C758.397 353.283 723.375 453.699 559.349 526.114C482.362 560.108 148.493 605.759 45.619 473.368C-19.5328 389.483 -7.40731 285.053 43.8812 234.231Z" fill="#D4CAFF"/>
<path d="M550.504 54.6479H97.1503C86.9128 54.6479 78.6138 62.9425 78.6138 73.1743V400.037C78.6138 410.269 86.9128 418.563 97.1503 418.563H550.504C560.741 418.563 569.04 410.269 569.04 400.037V73.1743C569.04 62.9425 560.741 54.6479 550.504 54.6479Z" fill="#C1B1FC"/>
<path d="M551.169 54.6479H96.5005C86.6295 54.6479 78.6294 63.2539 78.6294 73.8706V87.1003H569.048V73.8706C569.032 63.2539 561.032 54.6479 551.169 54.6479Z" fill="#946EF9"/>
<path d="M155.922 76.7966C158.966 76.7966 161.433 74.145 161.433 70.8741C161.433 67.6032 158.966 64.9517 155.922 64.9517C152.879 64.9517 150.411 67.6032 150.411 70.8741C150.411 74.145 152.879 76.7966 155.922 76.7966Z" fill="#7C38BA"/>
<path d="M137.785 76.7966C140.829 76.7966 143.296 74.145 143.296 70.8741C143.296 67.6032 140.829 64.9517 137.785 64.9517C134.741 64.9517 132.274 67.6032 132.274 70.8741C132.274 74.145 134.741 76.7966 137.785 76.7966Z" fill="#7C38BA"/>
<path d="M119.655 76.7966C122.699 76.7966 125.166 74.145 125.166 70.8741C125.166 67.6032 122.699 64.9517 119.655 64.9517C116.612 64.9517 114.145 67.6032 114.145 70.8741C114.145 74.145 116.612 76.7966 119.655 76.7966Z" fill="#7C38BA"/>
<path d="M518.206 118.481H483.16C481.357 118.481 479.896 119.941 479.896 121.743V121.994C479.896 123.795 481.357 125.256 483.16 125.256H518.206C520.009 125.256 521.47 123.795 521.47 121.994V121.743C521.47 119.941 520.009 118.481 518.206 118.481Z" fill="#7C38BA"/>
<path d="M542.355 132.712H483.16C481.357 132.712 479.896 134.173 479.896 135.974V136.225C479.896 138.027 481.357 139.487 483.16 139.487H542.355C544.158 139.487 545.619 138.027 545.619 136.225V135.974C545.619 134.173 544.158 132.712 542.355 132.712Z" fill="#7C38BA"/>
<path d="M542.355 146.935H483.16C481.357 146.935 479.896 148.396 479.896 150.198V150.448C479.896 152.25 481.357 153.711 483.16 153.711H542.355C544.158 153.711 545.619 152.25 545.619 150.448V150.198C545.619 148.396 544.158 146.935 542.355 146.935Z" fill="#7C38BA"/>
<path d="M461.508 100.87H369.147C362.472 100.87 357.061 106.278 357.061 112.95V166.025C357.061 172.696 362.472 178.105 369.147 178.105H461.508C468.183 178.105 473.595 172.696 473.595 166.025V112.95C473.595 106.278 468.183 100.87 461.508 100.87Z" fill="#946EF9"/>
<path d="M409.773 156.472L437.085 138.713C437.565 138.421 437.961 138.011 438.236 137.522C438.511 137.032 438.655 136.481 438.655 135.92C438.655 135.359 438.511 134.807 438.236 134.318C437.961 133.829 437.565 133.419 437.085 133.127L409.773 115.367C407.316 113.802 403.934 115.367 403.934 118.16V153.695C403.934 156.472 407.316 158.076 409.773 156.472Z" fill="#D4CAFF"/>
<path d="M541.455 225.523H483.16C481.357 225.523 479.896 226.984 479.896 228.786V229.036C479.896 230.838 481.357 232.299 483.16 232.299H541.455C543.257 232.299 544.719 230.838 544.719 229.036V228.786C544.719 226.984 543.257 225.523 541.455 225.523Z" fill="#7C38BA"/>
<path d="M521.728 239.747H483.16C481.357 239.747 479.896 241.207 479.896 243.009V243.26C479.896 245.061 481.357 246.522 483.16 246.522H521.728C523.531 246.522 524.993 245.061 524.993 243.26V243.009C524.993 241.207 523.531 239.747 521.728 239.747Z" fill="#7C38BA"/>
<path d="M542.355 253.978H483.16C481.357 253.978 479.896 255.439 479.896 257.24V257.491C479.896 259.293 481.357 260.753 483.16 260.753H542.355C544.158 260.753 545.619 259.293 545.619 257.491V257.24C545.619 255.439 544.158 253.978 542.355 253.978Z" fill="#7C38BA"/>
<path d="M461.508 207.913H369.147C362.472 207.913 357.061 213.321 357.061 219.992V273.068C357.061 279.739 362.472 285.147 369.147 285.147H461.508C468.183 285.147 473.595 279.739 473.595 273.068V219.992C473.595 213.321 468.183 207.913 461.508 207.913Z" fill="#946EF9"/>
<path d="M409.773 263.523L437.085 245.763C437.565 245.471 437.961 245.061 438.236 244.572C438.511 244.083 438.655 243.531 438.655 242.97C438.655 242.409 438.511 241.857 438.236 241.368C437.961 240.879 437.565 240.469 437.085 240.177L409.773 222.41C407.316 220.845 403.934 222.41 403.934 225.203V260.73C403.934 263.499 407.316 265.119 409.773 263.523Z" fill="#D4CAFF"/>
<path d="M518.206 332.566H483.16C481.357 332.566 479.896 334.027 479.896 335.829V336.079C479.896 337.881 481.357 339.341 483.16 339.341H518.206C520.009 339.341 521.47 337.881 521.47 336.079V335.829C521.47 334.027 520.009 332.566 518.206 332.566Z" fill="#7C38BA"/>
<path d="M542.355 346.79H483.16C481.357 346.79 479.896 348.25 479.896 350.052V350.302C479.896 352.104 481.357 353.565 483.16 353.565H542.355C544.158 353.565 545.619 352.104 545.619 350.302V350.052C545.619 348.25 544.158 346.79 542.355 346.79Z" fill="#7C38BA"/>
<path d="M529.345 361.021H483.16C481.357 361.021 479.896 362.481 479.896 364.283V364.534C479.896 366.335 481.357 367.796 483.16 367.796H529.345C531.148 367.796 532.609 366.335 532.609 364.534V364.283C532.609 362.481 531.148 361.021 529.345 361.021Z" fill="#7C38BA"/>
<path d="M461.508 314.948H369.147C362.472 314.948 357.061 320.356 357.061 327.027V380.103C357.061 386.774 362.472 392.182 369.147 392.182H461.508C468.183 392.182 473.595 386.774 473.595 380.103V327.027C473.595 320.356 468.183 314.948 461.508 314.948Z" fill="#946EF9"/>
<path d="M409.773 370.566L437.085 352.845C437.565 352.553 437.961 352.143 438.236 351.654C438.511 351.165 438.655 350.613 438.655 350.052C438.655 349.491 438.511 348.939 438.236 348.45C437.961 347.961 437.565 347.551 437.085 347.259L409.773 329.453C407.316 327.888 403.934 329.453 403.934 332.246V367.773C403.934 370.542 407.316 372.162 409.773 370.566Z" fill="#D4CAFF"/>
<path d="M325.537 100.87H106.16C98.776 100.87 92.79 106.853 92.79 114.233V291.805C92.79 299.185 98.776 305.168 106.16 305.168H325.537C332.921 305.168 338.907 299.185 338.907 291.805V114.233C338.907 106.853 332.921 100.87 325.537 100.87Z" fill="#D4CAFF"/>
<path d="M325.537 306.881H106.16C102.162 306.879 98.3281 305.293 95.4989 302.469C92.6696 299.646 91.0762 295.817 91.0679 291.821V114.225C91.072 110.226 92.6637 106.393 95.4933 103.566C98.323 100.74 102.159 99.1508 106.16 99.1487H325.537C329.538 99.1508 333.374 100.74 336.204 103.566C339.034 106.393 340.625 110.226 340.63 114.225V291.821C340.621 295.817 339.028 299.646 336.199 302.469C333.369 305.293 329.535 306.879 325.537 306.881ZM106.16 102.591C103.073 102.593 100.113 103.819 97.9288 106C95.7451 108.181 94.5163 111.139 94.5122 114.225V291.821C94.5163 294.906 95.7451 297.864 97.9288 300.045C100.113 302.226 103.073 303.452 106.16 303.455H325.537C328.625 303.452 331.585 302.226 333.769 300.045C335.952 297.864 337.181 294.906 337.185 291.821V114.225C337.181 111.139 335.952 108.181 333.769 106C331.585 103.819 328.625 102.593 325.537 102.591H106.16Z" fill="#946EF9"/>
<path d="M326.023 100.87H105.675C98.5592 100.87 92.79 107.074 92.79 114.725V120.202H338.907V114.725C338.907 107.074 333.138 100.87 326.023 100.87Z" fill="#946EF9"/>
<path d="M331.314 316.77H100.383C96.1896 316.77 92.79 320.168 92.79 324.359V324.938C92.79 329.129 96.1896 332.527 100.383 332.527H331.314C335.508 332.527 338.907 329.129 338.907 324.938V324.359C338.907 320.168 335.508 316.77 331.314 316.77Z" fill="#946EF9"/>
<path d="M326.719 326.503L103.256 326.034C102.786 326.003 102.345 325.795 102.023 325.451C101.701 325.108 101.521 324.654 101.521 324.183C101.521 323.712 101.701 323.259 102.023 322.915C102.345 322.572 102.786 322.364 103.256 322.333L326.719 322.802C327.19 322.833 327.631 323.041 327.953 323.385C328.275 323.729 328.454 324.182 328.454 324.653C328.454 325.124 328.275 325.577 327.953 325.921C327.631 326.264 327.19 326.472 326.719 326.503Z" fill="#E6E1FF"/>
<path d="M103.248 326.034L141.198 326.393V322.693L103.256 322.333C102.786 322.364 102.345 322.572 102.023 322.915C101.701 323.259 101.521 323.712 101.521 324.183C101.521 324.654 101.701 325.108 102.023 325.451C102.345 325.795 102.786 326.003 103.256 326.034H103.248Z" fill="#C1B1FC"/>
<path d="M146.122 324.68C146.115 325.466 145.876 326.233 145.435 326.884C144.993 327.535 144.369 328.04 143.64 328.337C142.912 328.633 142.112 328.708 141.341 328.551C140.57 328.393 139.863 328.012 139.309 327.454C138.755 326.895 138.378 326.186 138.227 325.414C138.076 324.643 138.157 323.843 138.459 323.118C138.762 322.392 139.272 321.772 139.927 321.336C140.581 320.899 141.35 320.667 142.137 320.667C143.197 320.673 144.212 321.099 144.959 321.851C145.706 322.603 146.124 323.62 146.122 324.68Z" fill="#7C38BA"/>
<path d="M146.255 368.445L158.513 360.473C158.729 360.343 158.907 360.159 159.031 359.94C159.154 359.72 159.219 359.473 159.219 359.221C159.219 358.969 159.154 358.722 159.031 358.503C158.907 358.283 158.729 358.1 158.513 357.969L146.255 349.997C146.012 349.832 145.73 349.733 145.438 349.71C145.145 349.688 144.851 349.743 144.586 349.87C144.322 349.997 144.095 350.191 143.929 350.433C143.763 350.675 143.663 350.956 143.64 351.249V367.193C143.663 367.486 143.763 367.767 143.929 368.009C144.095 368.251 144.322 368.446 144.586 368.572C144.851 368.699 145.145 368.754 145.438 368.732C145.73 368.709 146.012 368.611 146.255 368.445Z" fill="#946EF9"/>
<path d="M162.263 349.716H161.034C160.502 349.716 160.071 350.146 160.071 350.678V367.765C160.071 368.296 160.502 368.727 161.034 368.727H162.263C162.795 368.727 163.226 368.296 163.226 367.765V350.678C163.226 350.146 162.795 349.716 162.263 349.716Z" fill="#946EF9"/>
<path d="M113.511 368.445L101.26 360.473C101.044 360.343 100.866 360.159 100.742 359.94C100.619 359.72 100.554 359.473 100.554 359.221C100.554 358.969 100.619 358.722 100.742 358.503C100.866 358.283 101.044 358.1 101.26 357.969L113.511 349.997C113.753 349.832 114.035 349.733 114.328 349.71C114.62 349.688 114.914 349.743 115.179 349.87C115.444 349.997 115.67 350.191 115.836 350.433C116.003 350.675 116.102 350.956 116.125 351.249V367.193C116.102 367.486 116.003 367.767 115.836 368.009C115.67 368.251 115.444 368.446 115.179 368.572C114.914 368.699 114.62 368.754 114.328 368.732C114.035 368.709 113.753 368.611 113.511 368.445Z" fill="#946EF9"/>
<path d="M97.5025 368.727H98.7315C99.2633 368.727 99.6943 368.296 99.6943 367.764V350.678C99.6943 350.146 99.2633 349.715 98.7315 349.715H97.5025C96.9708 349.715 96.5397 350.146 96.5397 350.678V367.764C96.5397 368.296 96.9708 368.727 97.5025 368.727Z" fill="#946EF9"/>
<path d="M132.423 368.727H133.652C134.184 368.727 134.615 368.296 134.615 367.764V350.678C134.615 350.146 134.184 349.715 133.652 349.715H132.423C131.891 349.715 131.46 350.146 131.46 350.678V367.764C131.46 368.296 131.891 368.727 132.423 368.727Z" fill="#946EF9"/>
<path d="M126.113 368.727H127.342C127.874 368.727 128.305 368.296 128.305 367.764V350.678C128.305 350.146 127.874 349.715 127.342 349.715H126.113C125.582 349.715 125.151 350.146 125.151 350.678V367.764C125.151 368.296 125.582 368.727 126.113 368.727Z" fill="#946EF9"/>
<mask id="mask0" mask-type="alpha" maskUnits="userSpaceOnUse" x="106" y="124" width="222" height="177">
<rect x="106" y="124" width="222" height="177" fill="#C4C4C4"/>
</mask>
<g mask="url(#mask0)">
<path d="M223.023 234.747C223.023 234.747 223.023 223.857 218.843 224.162C214.663 224.467 211.179 224.319 190.021 256.536C181.934 268.851 153.519 320.87 153.519 320.87C153.519 320.87 165.143 337.542 183.555 337.542C202.451 337.542 212.479 304.159 223.023 234.747Z" fill="#946EF9"/>
<path opacity="0.5" d="M218.843 224.162C216.709 224.167 214.65 224.949 213.05 226.361C204.173 240.052 199.273 270.955 197.606 280.758C195.97 290.35 195.79 308.571 196.079 325.642C205.841 310.237 216.189 279.757 223.023 234.747C223.023 234.747 223.039 223.857 218.843 224.162Z" fill="#7C38BA"/>
<path d="M146.724 243.173C139.46 244.073 133.456 244.183 133.315 243.408C133.174 242.634 138.951 241.272 146.216 240.373C153.48 239.473 159.523 239.363 159.625 240.138C159.727 240.912 153.989 242.266 146.724 243.173Z" fill="#160077"/>
<path d="M187.453 291.336L152.431 239.402C154.265 234.99 155.324 230.295 155.562 225.523C155.64 223.701 156.063 220.782 156.126 218.482C156.186 216.214 156.686 213.98 157.597 211.903L159.218 208.225C159.321 208 159.369 207.754 159.358 207.506C159.347 207.259 159.278 207.018 159.156 206.802C159.034 206.587 158.862 206.404 158.655 206.267C158.448 206.131 158.212 206.046 157.965 206.019C157.353 205.976 156.74 206.088 156.183 206.345C155.626 206.603 155.143 206.996 154.779 207.49C153.218 209.802 152.13 212.399 151.578 215.134C151.499 215.806 150.944 218.146 150.576 219.656C150.565 219.759 150.528 219.857 150.466 219.94C150.405 220.023 150.323 220.089 150.228 220.13C150.133 220.17 150.028 220.185 149.926 220.172C149.823 220.158 149.726 220.118 149.644 220.055C147.758 218.819 143.914 213.217 141.519 202.397C140.573 197.868 139.042 193.481 136.963 189.347C136.812 189.014 136.538 188.752 136.198 188.616C135.858 188.481 135.478 188.482 135.139 188.619C134.795 188.773 134.515 189.043 134.349 189.382C134.183 189.721 134.141 190.107 134.231 190.474L138.098 207.56C138.134 207.689 138.122 207.826 138.065 207.947C138.007 208.067 137.907 208.162 137.784 208.214C137.661 208.266 137.523 208.271 137.396 208.228C137.27 208.186 137.163 208.099 137.096 207.983L127.703 189.871C127.481 189.41 127.085 189.055 126.603 188.885C126.12 188.715 125.589 188.743 125.127 188.964C124.639 189.227 124.266 189.664 124.084 190.188C123.901 190.712 123.922 191.286 124.141 191.796L132.118 211.034C132.197 211.155 132.226 211.304 132.197 211.446C132.167 211.588 132.082 211.713 131.961 211.793C131.84 211.873 131.691 211.901 131.549 211.872C131.407 211.843 131.282 211.758 131.202 211.637L119.851 196.443C119.644 196.151 119.336 195.945 118.986 195.866C118.637 195.787 118.27 195.839 117.957 196.013C117.578 196.241 117.301 196.607 117.186 197.035C117.071 197.462 117.125 197.917 117.338 198.305L127.28 216.604C127.585 217.168 126.928 217.762 126.497 217.34L115.405 207.232C115.303 207.136 115.182 207.065 115.049 207.024C114.916 206.982 114.775 206.971 114.638 206.991C114.5 207.012 114.368 207.063 114.253 207.141C114.138 207.219 114.042 207.322 113.972 207.443C113.87 207.613 113.816 207.808 113.816 208.006C113.816 208.205 113.87 208.399 113.972 208.57C115.663 211.488 122.708 221.823 126.951 226.564C127.139 227.252 127.335 227.933 127.57 228.606C128.059 230.076 128.699 231.492 129.48 232.831C132.564 238.033 136.172 240.451 136.165 241.937C136.165 249.722 154.255 306.091 157.3 311.521C166.169 327.59 174.24 331.752 183.077 330.759C184.978 330.397 186.788 329.661 188.4 328.592C189.809 314.783 190.287 302.218 187.453 291.336Z" fill="#F6D283"/>
<path d="M139.124 200.871C141.519 211.683 145.386 217.301 147.249 218.521C147.306 218.567 147.371 218.601 147.442 218.622C147.512 218.642 147.585 218.649 147.658 218.641C147.731 218.633 147.801 218.61 147.865 218.575C147.93 218.54 147.986 218.492 148.032 218.435C146.028 215.877 143.335 210.659 141.542 202.428C140.597 197.899 139.065 193.512 136.987 189.378C136.835 189.045 136.561 188.783 136.221 188.647C135.881 188.512 135.502 188.513 135.163 188.651C135.113 188.671 135.065 188.697 135.022 188.729C136.859 192.602 138.236 196.678 139.124 200.871Z" fill="#F4CA76"/>
<path d="M124.047 215.814C124.141 215.907 124.267 215.959 124.399 215.959C124.531 215.959 124.658 215.907 124.752 215.814L115.358 207.271C115.237 207.157 115.087 207.078 114.924 207.044C114.761 207.009 114.591 207.02 114.434 207.075L124.047 215.814Z" fill="#F4CA76"/>
<path d="M187.453 291.336L152.431 239.403C154.265 234.99 155.324 230.295 155.562 225.523C155.64 223.701 156.063 220.782 156.126 218.482C156.186 216.214 156.685 213.98 157.597 211.903L159.218 208.225C159.321 208 159.369 207.754 159.358 207.506C159.347 207.259 159.278 207.018 159.156 206.802C159.033 206.587 158.862 206.404 158.655 206.267C158.448 206.131 158.211 206.046 157.965 206.019C157.613 206.013 157.261 206.044 156.916 206.113C156.909 206.302 156.867 206.488 156.791 206.661L155.171 210.338C154.259 212.415 153.759 214.65 153.699 216.917C153.636 219.218 153.221 222.136 153.143 223.959C152.908 229.615 151.319 236.805 150.098 239.551L180.142 296.867C182.968 307.757 187.359 313.187 185.958 326.972C184.326 328.055 182.495 328.805 180.572 329.178C176.749 329.678 172.866 328.937 169.496 327.066C171.391 328.539 173.559 329.622 175.876 330.252C178.192 330.882 180.611 331.046 182.991 330.735C184.92 330.392 186.76 329.663 188.4 328.592C189.809 314.783 190.287 302.218 187.453 291.336Z" fill="#F4CA76"/>
<path d="M128.791 210.103C128.863 210.196 128.963 210.262 129.077 210.293C129.191 210.323 129.311 210.316 129.42 210.271C129.529 210.227 129.62 210.148 129.681 210.047C129.741 209.947 129.766 209.829 129.753 209.712L119.859 196.474C119.678 196.219 119.42 196.028 119.123 195.931C118.825 195.834 118.504 195.835 118.207 195.935L128.791 210.103Z" fill="#F4CA76"/>
<path d="M134.701 206.449C134.757 206.581 134.863 206.685 134.996 206.739C135.129 206.792 135.277 206.791 135.409 206.735C135.541 206.679 135.645 206.573 135.699 206.44C135.752 206.307 135.751 206.159 135.695 206.027L135.39 204.681L127.711 189.902C127.522 189.511 127.207 189.195 126.816 189.005C126.426 188.815 125.982 188.762 125.558 188.854L134.701 206.449Z" fill="#F4CA76"/>
<path d="M159.625 240.138C159.766 240.92 153.989 242.266 146.724 243.173C139.46 244.081 133.456 244.183 133.315 243.408C133.315 243.244 133.777 249.964 133.988 251.318C137.339 252.272 159.343 251.373 162.239 249.526C161.104 246.076 159.593 239.958 159.625 240.138Z" fill="#F9F8FF"/>
<path d="M155.21 246.553C155.111 246.065 155.206 245.558 155.475 245.139C155.744 244.72 156.165 244.422 156.65 244.308C156.889 244.264 157.134 244.269 157.371 244.323C157.608 244.376 157.832 244.477 158.029 244.618C158.227 244.76 158.393 244.94 158.52 245.147C158.646 245.355 158.729 245.585 158.764 245.826C158.862 246.314 158.767 246.821 158.498 247.24C158.23 247.659 157.808 247.957 157.323 248.071C157.084 248.115 156.839 248.11 156.602 248.056C156.365 248.003 156.141 247.902 155.944 247.761C155.747 247.619 155.58 247.439 155.454 247.232C155.328 247.024 155.245 246.794 155.21 246.553Z" fill="#A04EDD"/>
<path d="M177.856 277.112C176.29 274.82 162.2 249.526 162.2 249.526L133.949 251.318L134.677 257.373C134.779 258.633 135.084 262.005 135.703 265.807C137.691 278.067 142.826 301.389 154.059 321.652C158.834 330.258 179.32 341.297 188.228 335.453C194.334 331.455 189.903 312.835 191.594 306.756C195.586 292.603 178.615 278.231 177.856 277.112Z" fill="#946EF9"/>
<path opacity="0.5" d="M152.689 304.26C145.284 293.072 138.059 257.71 136.76 251.138L133.989 251.318L134.717 257.373C134.818 258.633 135.124 262.005 135.742 265.807C137.73 278.067 142.865 301.389 154.098 321.652C155.539 324.25 158.412 327.066 161.926 329.57L173.754 325.055C173.754 325.055 160.862 316.622 152.689 304.26Z" fill="#A04EDD"/>
<path d="M218.765 223.888C223.258 220.383 231.884 217.927 239.673 216.252C252.354 213.53 263.994 214.054 269.317 215.353C274.64 216.651 293.537 224.991 293.537 224.991C293.537 224.991 300.018 294.121 301.78 322.435C302.629 337.707 302.629 353.016 301.78 368.289H202.678C202.678 368.289 197.481 305.121 200.51 283.872C202.177 272.528 207.297 232.807 218.765 223.888Z" fill="#946EF9"/>
<path opacity="0.5" d="M237.928 225.531C238.388 227.376 239.262 229.092 240.482 230.55C241.702 232.008 243.238 233.17 244.973 233.949C246.606 235.033 248.496 235.667 250.452 235.788C251.101 235.823 251.752 235.823 252.401 235.788C254.774 235.9 257.15 235.649 259.446 235.045C269.043 232.541 275.603 224.694 274.687 217.144C272.936 216.45 271.148 215.85 269.333 215.345C264.018 214.046 252.409 213.522 239.744 216.229C238.817 217.571 238.177 219.09 237.865 220.691C237.552 222.291 237.574 223.939 237.928 225.531Z" fill="#7C38BA"/>
<path opacity="0.5" d="M293.537 224.991C293.537 224.991 289.826 223.356 285.239 221.424C275.642 225.789 275.674 244.511 278.656 261.919C281.263 277.167 288.245 295.326 290.085 299.965C290.351 300.63 289.701 306.341 289.177 306.803C285.913 309.659 269.724 328.451 268.347 329.21C270.914 328.639 283.024 345.905 296.425 339.021C296.762 334.483 297.208 329.468 297.897 323.999C301.294 295.858 293.537 224.991 293.537 224.991Z" fill="#7C38BA"/>
<path d="M267.087 175.898L265.435 196.13C265.435 196.13 268.644 194.691 270.186 194.205C271.728 193.72 275.126 181.742 275.126 179.137C275.126 176.532 267.087 175.898 267.087 175.898Z" fill="#0E0056"/>
<path d="M270.922 215.932C270.875 215.744 270.828 215.548 270.773 215.361C270.953 214.625 268.636 212.419 267.063 207.247C265.49 202.076 267.313 194.213 267.313 194.213L239.305 205.839C240.276 206.496 242.147 213.929 240.706 218.216C240.706 218.287 240.659 218.365 240.644 218.435C240.042 220.198 239.936 222.093 240.338 223.912C240.722 225.452 241.449 226.886 242.466 228.105C243.483 229.325 244.762 230.298 246.209 230.953C247.572 231.868 249.151 232.407 250.789 232.518C251.334 232.545 251.88 232.545 252.425 232.518C254.413 232.617 256.404 232.406 258.327 231.892C266.773 229.678 272.409 222.535 270.922 215.932Z" fill="#F6D283"/>
<path d="M267.861 192.164L238.303 203.625C239.031 204.126 241.262 210.619 241.231 214.578C244.398 217.532 248.499 219.287 252.824 219.538C258.953 219.82 264.629 216.808 268.871 211.715C268.129 210.297 267.524 208.811 267.063 207.279C265.49 202.068 267.861 192.164 267.861 192.164Z" fill="#F4CA76"/>
<path d="M222.318 156.214C222.318 156.214 219.892 164.546 220.377 168.732C220.862 172.917 223.258 172.315 223.508 174.169C223.759 176.023 227.422 179.302 227.422 179.302L229.317 165.344L235.078 157.81L227.681 151.981L222.318 156.214Z" fill="#0E0056"/>
<path d="M272.198 169.045C271.417 169.047 270.644 169.209 269.928 169.522C267.251 156.879 258.444 147.616 248.01 147.616C235.422 147.616 225.223 161.065 225.223 177.643C225.223 194.221 235.399 207.67 248.01 207.67C259.556 207.67 269.09 196.357 270.585 181.68C271.115 181.846 271.667 181.93 272.221 181.93C273.85 181.817 275.376 181.09 276.489 179.896C277.603 178.703 278.222 177.131 278.222 175.499C278.222 173.867 277.603 172.296 276.489 171.102C275.376 169.909 273.85 169.182 272.221 169.068L272.198 169.045Z" fill="#F6D283"/>
<path d="M259.94 155.416C263.071 153.499 264.863 147.256 264.245 144.056C263.462 139.878 259.446 133.213 249.936 133.283C240.425 133.353 234.812 139.284 229.583 140.575C224.354 141.866 219.454 140.676 218.499 139.495C217.544 138.314 216.659 139.941 216.307 141.56C215.422 145.644 218.162 150.362 217.872 149.971C217.677 149.72 211.829 151.136 213.614 155.69C215.399 160.243 219.915 164.202 223.305 162.981C230.569 160.376 230.569 155.158 237.834 156.723C243.751 158.037 256.104 157.771 259.94 155.416Z" fill="#0E0056"/>
<path d="M238.1 177.033C237.573 177.006 237.079 176.772 236.726 176.382C236.372 175.992 236.187 175.477 236.213 174.952V172.018C236.203 171.493 236.4 170.986 236.762 170.606C237.124 170.227 237.622 170.006 238.147 169.991C238.673 170.018 239.167 170.252 239.521 170.642C239.874 171.032 240.059 171.547 240.033 172.072V175.006C240.044 175.531 239.846 176.038 239.484 176.418C239.122 176.797 238.624 177.018 238.1 177.033Z" fill="black"/>
<path d="M255.603 177.205C255.078 177.174 254.586 176.939 254.233 176.55C253.881 176.161 253.695 175.649 253.716 175.124L253.755 172.19C253.748 171.93 253.792 171.671 253.886 171.428C253.979 171.185 254.12 170.962 254.3 170.774C254.479 170.586 254.695 170.435 254.933 170.33C255.172 170.225 255.428 170.169 255.689 170.164C256.214 170.194 256.705 170.429 257.058 170.818C257.411 171.208 257.597 171.72 257.575 172.245V175.178C257.583 175.442 257.537 175.704 257.441 175.95C257.345 176.195 257.201 176.419 257.017 176.608C256.833 176.797 256.614 176.947 256.371 177.05C256.128 177.152 255.867 177.205 255.603 177.205Z" fill="black"/>
<path d="M232.863 165.133C232.738 165.144 232.612 165.125 232.497 165.077C232.381 165.029 232.278 164.955 232.197 164.859C232.044 164.688 231.959 164.467 231.959 164.237C231.959 164.008 232.044 163.786 232.197 163.615C233.183 162.603 234.374 161.814 235.691 161.301C237.007 160.788 238.419 160.563 239.83 160.642C240.049 160.663 240.252 160.765 240.401 160.927C240.549 161.09 240.631 161.302 240.631 161.522C240.631 161.742 240.549 161.955 240.401 162.117C240.252 162.28 240.049 162.382 239.83 162.403C238.634 162.326 237.436 162.509 236.319 162.94C235.201 163.371 234.19 164.039 233.356 164.898C233.225 165.033 233.05 165.116 232.863 165.133Z" fill="black"/>
<path d="M260.973 165.023C261.098 165.025 261.221 164.997 261.333 164.941C261.444 164.885 261.541 164.803 261.615 164.703C261.755 164.521 261.822 164.292 261.802 164.063C261.781 163.834 261.675 163.621 261.505 163.467C260.463 162.517 259.229 161.804 257.886 161.376C256.543 160.948 255.123 160.815 253.724 160.986C253.61 160.996 253.499 161.029 253.398 161.082C253.297 161.135 253.207 161.207 253.134 161.296C253.061 161.384 253.007 161.486 252.974 161.595C252.94 161.704 252.93 161.819 252.941 161.933C252.956 162.154 253.056 162.36 253.222 162.507C253.388 162.653 253.605 162.728 253.826 162.715C255.011 162.563 256.215 162.67 257.355 163.03C258.494 163.389 259.542 163.992 260.425 164.797C260.571 164.941 260.767 165.023 260.973 165.023Z" fill="black"/>
<path d="M246.381 183.972L246.46 183.847L246.342 184.035C246.405 183.931 246.485 183.839 246.577 183.761L246.413 183.902C246.512 183.817 246.619 183.744 246.734 183.683L246.546 183.777C246.651 183.727 246.761 183.691 246.875 183.667L246.663 183.706C246.778 183.69 246.893 183.69 247.008 183.706H246.789C246.92 183.715 247.049 183.744 247.172 183.792L246.976 183.714C247.087 183.762 247.192 183.822 247.29 183.894L247.117 183.769C247.217 183.84 247.307 183.924 247.383 184.019L247.25 183.847L247.313 183.941C247.429 184.126 247.611 184.26 247.822 184.316C247.929 184.342 248.04 184.345 248.147 184.324C248.255 184.304 248.358 184.261 248.448 184.199C248.629 184.059 248.754 183.859 248.798 183.634C248.843 183.41 248.805 183.177 248.691 182.979C248.482 182.653 248.191 182.389 247.848 182.212C247.504 182.034 247.12 181.951 246.734 181.969C246.353 182.006 245.989 182.139 245.674 182.355C245.359 182.571 245.104 182.864 244.933 183.205C244.835 183.41 244.816 183.644 244.88 183.862C244.943 184.08 245.085 184.267 245.278 184.387C245.374 184.441 245.48 184.474 245.589 184.484C245.699 184.494 245.809 184.481 245.914 184.445C246.018 184.41 246.113 184.353 246.194 184.278C246.274 184.203 246.338 184.112 246.381 184.011V183.972Z" fill="black"/>
<path d="M246.014 195.277C245.779 195.277 245.536 195.277 245.293 195.277H245.145C244.925 195.257 244.722 195.155 244.574 194.992C244.425 194.829 244.343 194.617 244.343 194.397C244.343 194.177 244.425 193.965 244.574 193.802C244.722 193.639 244.925 193.538 245.145 193.517H245.231C247.559 193.502 249.808 192.672 251.587 191.17C251.671 191.101 251.768 191.05 251.872 191.02C251.976 190.99 252.085 190.982 252.193 190.997C252.3 191.012 252.404 191.049 252.496 191.105C252.588 191.162 252.668 191.237 252.73 191.326C252.866 191.513 252.926 191.744 252.898 191.974C252.871 192.203 252.757 192.413 252.581 192.563C250.733 194.136 248.434 195.086 246.014 195.277Z" fill="black"/>
<path d="M235.102 186.906C236.606 186.906 237.826 185.593 237.826 183.972C237.826 182.352 236.606 181.038 235.102 181.038C233.597 181.038 232.377 182.352 232.377 183.972C232.377 185.593 233.597 186.906 235.102 186.906Z" fill="#F2BA77"/>
<path d="M260.096 186.241C261.601 186.241 262.82 184.928 262.82 183.307C262.82 181.687 261.601 180.373 260.096 180.373C258.592 180.373 257.372 181.687 257.372 183.307C257.372 184.928 258.592 186.241 260.096 186.241Z" fill="#F2BA77"/>
<path d="M260.331 150.292C260.215 150.291 260.102 150.251 260.011 150.179C259.92 150.107 259.856 150.006 259.83 149.893C259.196 147.178 256.472 138.368 248.025 138.752H247.932C241.818 139.08 234.984 141.662 229.99 143.548C228.111 144.26 226.491 144.87 225.231 145.245C220.831 146.552 215.36 147.146 214.193 145.832C214.101 145.73 214.051 145.598 214.051 145.46C214.051 145.323 214.101 145.191 214.193 145.089C214.237 145.04 214.29 145.002 214.349 144.975C214.408 144.949 214.473 144.935 214.538 144.935C214.603 144.935 214.667 144.949 214.726 144.975C214.786 145.002 214.839 145.04 214.882 145.089C215.477 145.762 219.97 145.691 224.957 144.22C226.186 143.853 227.79 143.242 229.653 142.538C234.702 140.637 241.614 138.024 247.869 137.688H247.971C257.153 137.265 260.08 146.708 260.769 149.619C260.802 149.751 260.782 149.891 260.716 150.01C260.649 150.129 260.539 150.219 260.409 150.26L260.331 150.292Z" fill="#120672"/>
<path d="M258.977 151.136C258.885 151.149 258.792 151.129 258.714 151.08C258.635 151.032 258.576 150.958 258.546 150.87C257.763 148.789 254.789 142.092 248.127 143.321H248.057C243.235 144.244 238.053 147.045 234.264 149.079C232.839 149.861 231.61 150.518 230.647 150.949C227.274 152.467 222.992 153.531 221.943 152.615C221.861 152.543 221.809 152.442 221.798 152.334C221.786 152.225 221.816 152.116 221.88 152.028C221.91 151.986 221.949 151.95 221.994 151.923C222.038 151.896 222.088 151.88 222.14 151.874C222.192 151.868 222.244 151.873 222.294 151.889C222.344 151.905 222.389 151.931 222.428 151.966C222.968 152.435 226.53 151.888 230.342 150.174C231.289 149.752 232.503 149.095 233.92 148.328C237.74 146.27 242.984 143.438 247.916 142.491H247.994C255.243 141.154 258.46 148.328 259.274 150.565C259.312 150.668 259.311 150.78 259.271 150.882C259.23 150.983 259.153 151.065 259.055 151.113L258.977 151.136Z" fill="#120672"/>
<path d="M242.295 176.688C241.802 177.928 240.954 178.995 239.857 179.755C238.759 180.515 237.462 180.934 236.127 180.96C232.385 180.96 229.34 177.69 229.34 173.668C229.34 169.647 232.385 166.369 236.127 166.369C239.869 166.369 242.883 169.647 242.883 173.684C242.883 173.95 242.883 174.208 242.883 174.466C243.141 174.019 243.478 173.622 243.877 173.293C243.681 168.873 240.292 165.344 236.143 165.344C231.869 165.344 228.385 169.084 228.385 173.684C228.385 178.284 231.869 182.016 236.143 182.016C237.668 181.984 239.15 181.503 240.403 180.633C241.656 179.763 242.625 178.544 243.188 177.127C243.095 177.215 242.972 177.266 242.843 177.267C242.696 177.258 242.558 177.192 242.456 177.085C242.354 176.978 242.297 176.836 242.295 176.688Z" fill="black"/>
<path d="M243.728 175.249C243.524 175.638 243.412 176.069 243.399 176.508C243.541 176.098 243.651 175.677 243.728 175.249Z" fill="black"/>
<path d="M257.685 165.587C253.615 165.587 250.272 168.99 249.967 173.285C250.345 173.614 250.67 173.999 250.93 174.427C250.93 174.263 250.93 174.099 250.93 173.927C250.93 169.905 253.967 166.635 257.709 166.635C261.45 166.635 264.495 169.905 264.495 173.927C264.495 177.948 261.45 181.226 257.709 181.226C256.359 181.196 255.049 180.766 253.945 179.99C252.841 179.214 251.993 178.127 251.509 176.868C251.474 176.977 251.406 177.072 251.315 177.14C251.224 177.209 251.114 177.248 251 177.252C250.922 177.247 250.845 177.226 250.775 177.192C250.705 177.157 250.642 177.109 250.59 177.05C250.539 176.991 250.499 176.923 250.474 176.849C250.449 176.775 250.439 176.696 250.444 176.618C250.445 176.109 250.31 175.61 250.053 175.171C250.609 179.176 253.826 182.267 257.709 182.267C261.983 182.267 265.458 178.527 265.458 173.927C265.458 169.326 261.959 165.587 257.685 165.587Z" fill="black"/>
<path d="M249.967 173.285C249.116 172.558 248.033 172.158 246.914 172.158C245.794 172.158 244.712 172.558 243.861 173.285C243.861 173.41 243.861 173.543 243.861 173.676C243.858 174.201 243.808 174.725 243.712 175.241C244.03 174.692 244.485 174.234 245.032 173.913C245.58 173.591 246.201 173.417 246.836 173.408C247.471 173.398 248.098 173.554 248.655 173.859C249.211 174.163 249.68 174.607 250.014 175.147C249.955 174.735 249.923 174.319 249.92 173.903C249.928 173.684 249.928 173.496 249.967 173.285Z" fill="black"/>
<path d="M243.861 173.277C243.466 173.612 243.135 174.015 242.882 174.467C242.804 175.237 242.611 175.991 242.311 176.704C242.316 176.848 242.374 176.985 242.474 177.088C242.573 177.192 242.708 177.256 242.851 177.267C242.98 177.266 243.103 177.215 243.196 177.127C243.274 176.931 243.344 176.743 243.415 176.54C243.427 176.1 243.54 175.67 243.744 175.28C243.839 174.764 243.889 174.24 243.892 173.715C243.877 173.536 243.861 173.403 243.861 173.277Z" fill="black"/>
<path d="M250.977 177.252C251.09 177.248 251.2 177.209 251.291 177.14C251.382 177.072 251.45 176.977 251.485 176.868C251.167 176.091 250.979 175.266 250.93 174.427C250.67 173.999 250.345 173.614 249.967 173.285C249.967 173.496 249.967 173.708 249.967 173.927C249.97 174.343 250.002 174.759 250.061 175.171C250.318 175.61 250.453 176.109 250.452 176.618C250.441 176.771 250.489 176.922 250.587 177.04C250.685 177.158 250.824 177.234 250.977 177.252Z" fill="black"/>
<path d="M228.158 173.684C228.2 173.762 228.262 173.828 228.338 173.874C228.414 173.921 228.5 173.947 228.589 173.95C228.688 173.949 228.784 173.916 228.863 173.856C228.978 173.766 229.058 173.638 229.087 173.494C229.115 173.351 229.091 173.201 229.019 173.074C228.229 171.751 227.217 170.574 226.029 169.592C225.94 170.004 225.862 170.419 225.794 170.836C226.713 171.669 227.509 172.628 228.158 173.684Z" fill="black"/>
<path d="M269.928 169.522C270.866 169.11 271.898 168.96 272.915 169.09C273.931 169.219 274.893 169.623 275.697 170.257C275.909 168.27 276.136 165.352 276.245 161.245C276.582 148.915 269.795 143.704 265.92 142.139C264.917 141.658 263.785 141.514 262.693 141.728C261.601 141.942 260.608 142.504 259.861 143.329C259.861 143.329 250.906 152.044 264.472 160.376C267.008 161.941 266.437 166.518 266.734 169.154C266.745 169.347 266.801 169.535 266.897 169.703C266.993 169.871 267.127 170.014 267.288 170.121C267.449 170.228 267.633 170.296 267.825 170.32C268.017 170.344 268.212 170.322 268.394 170.257C268.93 170.067 269.444 169.82 269.928 169.522Z" fill="#0E0056"/>
<path d="M272.174 169.139H272.566C272.632 169.067 272.675 168.977 272.691 168.88C272.725 168.738 272.704 168.589 272.631 168.462C272.558 168.336 272.44 168.242 272.3 168.2C267.94 167.206 264.683 172.792 264.55 173.027C264.476 173.154 264.451 173.304 264.48 173.448C264.509 173.592 264.59 173.72 264.707 173.809C264.785 173.87 264.881 173.903 264.981 173.903C265.069 173.9 265.156 173.874 265.231 173.828C265.307 173.781 265.369 173.715 265.411 173.637C265.411 173.59 267.869 169.412 271.055 169.233C271.424 169.161 271.799 169.13 272.174 169.139Z" fill="black"/>
<path d="M324.066 273.451C313.169 228.121 300.324 221.87 290.633 226.102C280.942 230.335 281.419 248.963 284.809 266.159C287.744 281.024 295.024 298.627 296.942 303.11C297.076 303.424 297.111 303.771 297.043 304.105C296.974 304.439 296.805 304.745 296.558 304.98C293.427 307.875 282.429 317.991 277.059 322.434C272.548 326.027 267.787 329.295 262.812 332.214C263.129 332.14 263.458 332.14 263.775 332.214C266.217 332.378 269.693 336.799 272.01 342.925C273.85 347.806 274.46 352.454 273.81 355.137C273.742 355.514 273.645 355.886 273.521 356.248C281.169 352.861 320.269 335.124 329.882 322.959C333.263 318.656 332.238 307.468 324.066 273.451Z" fill="#946EF9"/>
<path opacity="0.5" d="M292.558 225.422C295.877 225.32 299.776 226.861 303.267 232.526C311.463 245.826 330.187 302.539 324.943 313.265C319.698 323.991 279.047 346.312 279.047 346.312L273.411 347.572C274.1 350.631 274.241 353.33 273.803 355.137C273.734 355.514 273.637 355.886 273.513 356.248C281.161 352.861 320.261 335.124 329.874 322.959C333.264 318.656 332.222 307.46 324.066 273.451C313.874 231.055 301.975 222.84 292.558 225.422Z" fill="#A04EDD"/>
</g>
<path d="M266.296 368.649H241.904C241.507 368.623 241.134 368.447 240.862 368.156C240.59 367.865 240.439 367.482 240.44 367.084V351.366C240.439 350.968 240.59 350.585 240.862 350.294C241.134 350.004 241.507 349.827 241.904 349.802H266.296C266.693 349.827 267.066 350.004 267.338 350.294C267.61 350.585 267.76 350.968 267.76 351.366V367.076C267.762 367.475 267.612 367.861 267.34 368.153C267.068 368.445 266.694 368.623 266.296 368.649ZM243.368 365.519H264.801V352.939H243.368V365.519Z" fill="#946EF9"/>
<path d="M220.964 399.051C220.964 399.051 183.39 462.274 178.6 470.324C173.809 478.375 157.12 503.716 175.312 517.133C193.504 530.551 230.209 501.032 255.274 456.305C280.339 411.577 220.964 399.051 220.964 399.051Z" fill="#F6B783"/>
<path d="M301.099 274.241C303.948 281.877 301.615 289.802 295.877 291.946C290.139 294.09 283.173 289.599 280.315 282.002C277.458 274.406 279.799 266.441 285.537 264.297C291.275 262.154 298.241 266.605 301.099 274.241Z" fill="#F6B783"/>
<path d="M367.135 274.241C364.278 281.877 366.618 289.802 372.356 291.946C378.094 294.09 385.061 289.599 387.918 282.002C390.775 274.406 388.435 266.441 382.697 264.297C376.959 262.154 369.992 266.605 367.135 274.241Z" fill="#F6B783"/>
<path d="M311.353 300.356C311.353 300.356 314.335 343.292 311.353 348.957C308.371 354.621 368.043 348.957 368.043 348.957C368.043 348.957 362.368 322.419 361.475 303.337C360.583 284.255 311.353 300.356 311.353 300.356Z" fill="#F6B783"/>
<path d="M363.832 325.4C362.751 318.147 361.804 310.253 361.483 303.337C360.591 284.255 311.385 300.356 311.385 300.356C311.385 300.356 312.167 311.74 312.535 323.561C320.109 328.519 328.895 331.311 337.942 331.635C346.99 331.959 355.954 329.803 363.863 325.4H363.832Z" fill="#F4AB76"/>
<path d="M335.815 326.3C361.85 326.3 382.955 303.069 382.955 274.413C382.955 245.757 361.85 222.527 335.815 222.527C309.781 222.527 288.676 245.757 288.676 274.413C288.676 303.069 309.781 326.3 335.815 326.3Z" fill="#F6B783"/>
<path d="M293.153 214.782C293.153 214.782 299.799 216.863 311.243 216.268C322.688 215.674 351.628 205.832 368.043 225.813C384.458 245.795 390.305 314.369 339.643 316.457C288.981 318.546 292.386 265.698 291.721 256.044C291.055 246.389 281.991 237.971 284.801 234.755C286.891 232.369 290.703 231.986 290.703 231.986C290.703 231.986 276.746 220.149 293.153 214.782Z" fill="#001977"/>
<path d="M452.154 408.338C452.154 408.338 495.724 492.105 476.937 506.97C458.15 521.835 444.115 519.793 408.051 469.417C371.988 419.041 449.062 402.173 452.154 408.338Z" fill="#F6B783"/>
<path d="M183.179 520.27C202.749 522.743 233.426 495.313 255.266 456.336C259.963 447.902 261.709 440.61 261.395 434.336C251.329 452.706 219.266 506.775 183.179 520.27Z" fill="#F4AB76"/>
<path d="M399.981 454.051C401.84 459.568 404.564 464.755 408.051 469.417C434.345 506.125 448.929 517.196 462.173 514.747C461.273 514.262 460.342 513.769 459.348 513.253C419.942 492.974 415.511 451.227 415.511 451.227C415.511 451.227 408.051 444.788 399.981 454.051Z" fill="#F4AB76"/>
<path d="M667.805 509.38H18.1509C12.6733 509.38 8.23291 513.818 8.23291 519.292V531.935C8.23291 537.41 12.6733 541.848 18.1509 541.848H667.805C673.283 541.848 677.723 537.41 677.723 531.935V519.292C677.723 513.818 673.283 509.38 667.805 509.38Z" fill="#8CA1F4"/>
<path d="M10.6516 536.52C10.1911 536.514 9.73326 536.448 9.28955 536.324C10.8551 541.66 13.9863 545.306 17.5637 545.306H668.392C671.946 545.306 675.038 541.746 676.611 536.52H10.6516Z" fill="#6E7FF9"/>
<path d="M411.629 353.69C405.82 349.825 390.149 340.546 366.102 339.248C366.102 344.521 354.047 348.8 339.181 348.8C324.833 348.8 313.107 344.818 312.316 339.787C285.122 342.228 272.198 344.059 257.474 353.682C235.696 367.921 196.698 439.601 196.698 439.601C214.224 441.698 232.589 454.216 242.718 463.854L248.104 539.978L416.607 536.786L418.76 459.755C428.607 436.957 459.316 423.07 459.316 423.07C449.915 395.304 427.903 364.534 411.629 353.69Z" fill="#B152BD"/>
<path d="M253.059 460.811C253.059 460.811 227.548 434.876 198.866 435.329C197.496 438.044 196.729 439.632 196.729 439.632C214.256 441.729 232.62 454.247 242.749 463.886L247.313 563.895L254.061 564.779L253.059 460.811Z" fill="#5E3E8B"/>
<path d="M418.76 459.723C428.607 436.925 459.316 423.039 459.316 423.039C458.682 421.177 457.954 419.252 457.14 417.288C445.015 423.023 423.832 435.369 410.408 456.305L408.255 559.733L417.053 555.039L418.76 459.723Z" fill="#5E3E8B"/>
<path d="M90.7627 418.133C90.7627 418.133 81.0404 389.726 72.8133 396.454C64.5861 403.182 71.913 412.508 77.2282 416.443C82.5434 420.379 93.0093 424.861 90.7627 418.133Z" fill="#94CA5A"/>
<path d="M107.538 431.441C109.103 428.656 113.988 411.381 121.158 409.23C125.519 407.923 129.323 408.275 131.28 410.638C132.532 412.156 133.026 414.55 132.407 417.781C128.329 439.28 98.935 446.478 107.538 431.441Z" fill="#94CA5A"/>
<path d="M107.538 431.441C108.681 429.43 111.53 419.909 115.71 413.932C115.835 415.442 115.929 417.061 115.968 418.736C116.202 425.355 115.769 431.981 114.677 438.514C108.164 440.806 103.35 438.756 107.538 431.441Z" fill="#149688"/>
<path d="M81.9013 419.346C81.6273 413.994 81.7995 407.321 83.1302 401.868C87.4904 408.588 90.7625 418.164 90.7625 418.164C92.4455 423.172 86.9816 421.912 81.9013 419.346Z" fill="#149688"/>
<path d="M101.917 456.594C103.334 456.148 111.749 448.223 111.084 419.729C110.418 391.236 96.2108 388.99 90.2224 395.718C84.2341 402.447 85.0325 420.707 86.1284 427.647C87.2243 434.586 86.6842 461.413 101.917 456.594Z" fill="#94CA5A"/>
<path opacity="0.5" d="M88.0306 443.552C86.7703 437.293 86.6059 430.635 86.1284 427.647C85.0325 420.707 84.2341 402.447 90.2224 395.718C91.0298 394.796 92.0136 394.044 93.1158 393.506C94.2181 392.969 95.4168 392.657 96.6413 392.589C94.2929 397.041 91.8428 404.794 91.5767 417.812C91.2948 431.684 96.563 447.331 96.563 447.331L88.0306 443.552Z" fill="#149688"/>
<path opacity="0.5" d="M107.46 400.78C109.495 405.068 110.896 411.233 111.1 419.729C111.413 433.303 109.675 442.206 107.608 447.894L103.326 445.876C103.326 445.876 104.892 444.311 106.786 423.97C107.592 416.268 107.817 408.516 107.46 400.78Z" fill="#149688"/>
<path d="M87.0521 485.557H106.966C110.133 485.556 113.191 484.403 115.568 482.312C117.945 480.221 119.479 477.336 119.882 474.197L122.88 450.867H71.1379L74.136 474.197C74.5395 477.336 76.0732 480.221 78.4504 482.312C80.8276 484.403 83.8855 485.556 87.0521 485.557Z" fill="#B152BD"/>
<path d="M76.6253 450.867L79.1381 470.426C79.5417 473.564 81.0757 476.448 83.4531 478.538C85.8305 480.627 88.8882 481.779 92.0541 481.778H111.968C113.717 481.776 115.448 481.423 117.056 480.738C115.837 482.236 114.298 483.444 112.553 484.273C110.807 485.103 108.899 485.533 106.966 485.534H87.0521C83.8855 485.533 80.8276 484.379 78.4504 482.288C76.0732 480.197 74.5395 477.313 74.136 474.174L71.1379 450.867H76.6253Z" fill="#5E3E8B"/>
<path d="M66.7073 453.097H126.419C128.161 453.097 129.573 451.685 129.573 449.944V444.655C129.573 442.914 128.161 441.502 126.419 441.502H66.7073C64.965 441.502 63.5526 442.914 63.5526 444.655V449.944C63.5526 451.685 64.965 453.097 66.7073 453.097Z" fill="#F1C3FF"/>
<path opacity="0.5" d="M66.7073 441.502H67.1222V446.376C67.1222 447.206 67.4521 448.002 68.0393 448.589C68.6265 449.176 69.423 449.506 70.2534 449.506H129.55V449.928C129.55 450.758 129.22 451.554 128.633 452.141C128.046 452.728 127.249 453.058 126.419 453.058H66.7073C65.8769 453.058 65.0805 452.728 64.4933 452.141C63.9061 451.554 63.5762 450.758 63.5762 449.928V444.64C63.5752 444.228 63.6554 443.82 63.8123 443.44C63.9692 443.059 64.1996 442.713 64.4905 442.422C64.7814 442.13 65.1269 441.899 65.5073 441.741C65.8877 441.583 66.2955 441.502 66.7073 441.502Z" fill="#B152BD"/>
<path d="M129.292 412.813L126.677 413.267C126.53 413.307 126.405 413.404 126.329 413.535C126.253 413.667 126.232 413.824 126.27 413.971C126.315 414.116 126.414 414.238 126.547 414.312C126.679 414.386 126.835 414.407 126.982 414.37L129.597 413.924C129.744 413.882 129.868 413.784 129.943 413.65C130.018 413.517 130.037 413.359 129.996 413.212C129.952 413.068 129.855 412.946 129.724 412.872C129.592 412.798 129.438 412.777 129.292 412.813Z" fill="#149688"/>
<path d="M122.622 411.084C122.622 411.256 122.622 411.428 122.622 411.6C122.622 411.647 122.622 411.702 122.622 411.757C122.63 411.796 122.63 411.836 122.622 411.874C122.622 411.788 122.622 411.773 122.622 411.819V411.874V412.007C122.565 412.351 122.476 412.689 122.356 413.016C122.332 413.158 122.362 413.303 122.439 413.424C122.516 413.545 122.635 413.633 122.774 413.671C122.912 413.71 123.06 413.695 123.188 413.63C123.316 413.565 123.416 413.455 123.468 413.322C123.718 412.602 123.845 411.846 123.843 411.084C123.843 410.933 123.783 410.787 123.676 410.68C123.569 410.573 123.423 410.513 123.272 410.513C123.12 410.513 122.975 410.573 122.868 410.68C122.761 410.787 122.7 410.933 122.7 411.084H122.622Z" fill="#149688"/>
<path d="M100.164 395.273C100.164 395.445 100.164 395.617 100.164 395.781C100.168 395.836 100.168 395.891 100.164 395.945C100.164 395.945 100.164 396.039 100.164 396.055C100.164 396.071 100.164 395.961 100.164 396V396.063V396.196C100.103 396.539 100.014 396.876 99.8977 397.205C99.8775 397.277 99.8718 397.353 99.8809 397.428C99.8901 397.502 99.9139 397.574 99.951 397.64C99.9881 397.705 100.038 397.763 100.097 397.809C100.156 397.855 100.224 397.889 100.297 397.909C100.443 397.946 100.598 397.925 100.729 397.85C100.86 397.776 100.958 397.654 101.001 397.51C101.251 396.791 101.379 396.034 101.377 395.273C101.377 395.121 101.317 394.976 101.21 394.869C101.103 394.762 100.957 394.701 100.806 394.701C100.654 394.701 100.509 394.762 100.402 394.869C100.295 394.976 100.234 395.121 100.234 395.273H100.164Z" fill="#149688"/>
<path d="M125.792 420.066H123.898C123.747 420.066 123.601 420.126 123.494 420.233C123.387 420.34 123.327 420.485 123.327 420.637C123.327 420.788 123.387 420.933 123.494 421.041C123.601 421.148 123.747 421.208 123.898 421.208H125.808C125.96 421.208 126.105 421.148 126.212 421.041C126.319 420.933 126.38 420.788 126.38 420.637C126.38 420.485 126.319 420.34 126.212 420.233C126.105 420.126 125.96 420.066 125.808 420.066H125.792Z" fill="#149688"/>
<path d="M89.5101 400.655L92.1246 401.109C92.2709 401.148 92.4265 401.128 92.5582 401.053C92.6898 400.978 92.7871 400.855 92.8291 400.71C92.8493 400.638 92.855 400.562 92.8458 400.487C92.8367 400.413 92.8129 400.34 92.7758 400.275C92.7387 400.21 92.6891 400.152 92.6297 400.106C92.5703 400.06 92.5024 400.026 92.4299 400.006L89.8153 399.552C89.6691 399.515 89.5144 399.536 89.3832 399.611C89.2521 399.685 89.1546 399.807 89.1108 399.951C89.0906 400.024 89.0849 400.099 89.0941 400.174C89.1032 400.248 89.127 400.321 89.1641 400.386C89.2012 400.451 89.2509 400.509 89.3102 400.555C89.3696 400.601 89.4375 400.635 89.5101 400.655Z" fill="#149688"/>
<path d="M95.3418 397.823C95.3405 398.585 95.4675 399.341 95.7176 400.061C95.7613 400.205 95.8588 400.327 95.99 400.401C96.1211 400.475 96.2758 400.496 96.4221 400.46C96.4946 400.44 96.5625 400.406 96.6219 400.359C96.6813 400.313 96.7309 400.256 96.768 400.19C96.8051 400.125 96.8289 400.053 96.838 399.978C96.8472 399.904 96.8415 399.828 96.8213 399.755C96.7088 399.426 96.6199 399.088 96.5551 398.746C96.5514 398.702 96.5514 398.657 96.5551 398.613C96.5551 398.574 96.5551 398.449 96.5551 398.613C96.5551 398.535 96.5551 398.449 96.5551 398.363C96.5551 398.277 96.5551 398.011 96.5551 397.831C96.5551 397.679 96.4949 397.534 96.3878 397.427C96.2806 397.32 96.1353 397.26 95.9837 397.26C95.8321 397.26 95.6868 397.32 95.5796 397.427C95.4725 397.534 95.4123 397.679 95.4123 397.831L95.3418 397.823Z" fill="#149688"/>
<path d="M93.3146 407.947H95.2246C95.3762 407.947 95.5215 407.887 95.6287 407.78C95.7359 407.672 95.7961 407.527 95.7961 407.376C95.7961 407.224 95.7359 407.079 95.6287 406.972C95.5215 406.865 95.3762 406.805 95.2246 406.805H93.3146C93.1631 406.805 93.0177 406.865 92.9105 406.972C92.8034 407.079 92.7432 407.224 92.7432 407.376C92.7432 407.527 92.8034 407.672 92.9105 407.78C93.0177 407.887 93.1631 407.947 93.3146 407.947Z" fill="#149688"/>
<path d="M118.614 424.455V426.019C118.605 426.1 118.613 426.183 118.637 426.261C118.662 426.339 118.703 426.41 118.757 426.471C118.811 426.532 118.878 426.581 118.952 426.615C119.027 426.648 119.108 426.665 119.19 426.665C119.271 426.665 119.352 426.648 119.427 426.615C119.501 426.581 119.568 426.532 119.622 426.471C119.677 426.41 119.717 426.339 119.742 426.261C119.767 426.183 119.774 426.1 119.765 426.019V424.455C119.763 424.304 119.702 424.16 119.595 424.053C119.489 423.946 119.344 423.886 119.194 423.883C119.042 423.885 118.897 423.946 118.789 424.052C118.681 424.159 118.618 424.303 118.614 424.455Z" fill="#149688"/>
<path d="M122.732 430.299H120.822C120.67 430.299 120.525 430.359 120.418 430.466C120.31 430.573 120.25 430.719 120.25 430.87C120.25 431.021 120.31 431.167 120.418 431.274C120.525 431.381 120.67 431.441 120.822 431.441H122.732C122.883 431.441 123.029 431.381 123.136 431.274C123.243 431.167 123.303 431.021 123.303 430.87C123.303 430.719 123.243 430.573 123.136 430.466C123.029 430.359 122.883 430.299 122.732 430.299Z" fill="#149688"/>
<path d="M115.553 434.657V436.221C115.555 436.373 115.616 436.518 115.723 436.626C115.829 436.734 115.973 436.796 116.125 436.8C116.277 436.796 116.422 436.734 116.53 436.626C116.638 436.519 116.7 436.374 116.704 436.221V434.657C116.688 434.516 116.62 434.386 116.514 434.291C116.408 434.197 116.271 434.145 116.129 434.145C115.987 434.145 115.85 434.197 115.744 434.291C115.638 434.386 115.57 434.516 115.553 434.657Z" fill="#149688"/>
<path d="M106.395 404.692L104.97 405.475C104.841 405.551 104.746 405.674 104.704 405.819C104.669 405.968 104.692 406.124 104.767 406.257C104.845 406.386 104.97 406.48 105.116 406.519C105.262 406.559 105.417 406.54 105.55 406.468L106.974 405.686C107.102 405.608 107.197 405.485 107.24 405.342C107.275 405.19 107.253 405.032 107.178 404.896C107.098 404.768 106.973 404.676 106.827 404.638C106.681 404.6 106.527 404.619 106.395 404.692Z" fill="#149688"/>
<path d="M101.589 416.772L100.414 417.781C100.305 417.889 100.244 418.035 100.242 418.188C100.244 418.341 100.306 418.487 100.414 418.595C100.522 418.703 100.668 418.765 100.821 418.767C100.971 418.758 101.112 418.697 101.221 418.595L102.442 417.554C102.545 417.45 102.603 417.31 102.603 417.163C102.603 417.016 102.545 416.876 102.442 416.772C102.389 416.718 102.326 416.674 102.256 416.645C102.186 416.615 102.111 416.6 102.035 416.6C101.883 416.606 101.738 416.668 101.628 416.772H101.589Z" fill="#149688"/>
<path d="M93.1344 420.246L93.3145 420.59C93.3459 420.654 93.3947 420.708 93.4554 420.746C93.5122 420.796 93.5789 420.833 93.6511 420.856C93.7281 420.875 93.8089 420.875 93.8859 420.856C93.9614 420.852 94.0344 420.827 94.0973 420.785L94.2147 420.699C94.2849 420.627 94.3359 420.538 94.3634 420.441V420.292C94.3652 420.191 94.3381 420.09 94.2851 420.003L94.1129 419.659C94.0785 419.592 94.0273 419.535 93.9642 419.494C93.908 419.445 93.8409 419.411 93.7685 419.393C93.6946 419.369 93.6154 419.369 93.5415 419.393C93.4642 419.394 93.3887 419.416 93.3223 419.455L93.2127 419.549C93.1391 419.616 93.0872 419.703 93.064 419.8V419.956C93.063 420.058 93.0901 420.158 93.1423 420.246H93.1344Z" fill="#149688"/>
<path d="M107.914 429.274L104.782 430.307C104.648 430.358 104.538 430.458 104.474 430.586C104.409 430.714 104.394 430.862 104.432 431C104.47 431.138 104.558 431.258 104.68 431.335C104.801 431.412 104.946 431.442 105.088 431.418L108.219 430.377C108.365 430.337 108.489 430.24 108.564 430.108C108.639 429.976 108.659 429.819 108.618 429.673C108.578 429.527 108.481 429.402 108.348 429.328C108.216 429.253 108.06 429.233 107.914 429.274Z" fill="#149688"/>
<path d="M88.7274 429.728L89.9407 430.94C90.0506 431.046 90.1955 431.107 90.3478 431.112C90.4237 431.112 90.4987 431.097 90.5686 431.067C90.6385 431.038 90.7018 430.995 90.7548 430.94C90.8081 430.887 90.8501 430.824 90.8783 430.754C90.9065 430.684 90.9204 430.609 90.9192 430.534C90.92 430.458 90.9059 430.384 90.8777 430.314C90.8495 430.244 90.8077 430.18 90.7548 430.127L89.5415 428.914C89.4309 428.811 89.2858 428.752 89.1344 428.75C88.9828 428.751 88.8372 428.809 88.7274 428.914C88.6205 429.023 88.559 429.168 88.5552 429.321C88.5605 429.473 88.6218 429.618 88.7274 429.728Z" fill="#149688"/>
<path d="M75.7017 399.787V400.827C75.7007 400.903 75.7147 400.977 75.7431 401.047C75.7714 401.117 75.8135 401.18 75.8667 401.234C75.92 401.287 75.9834 401.329 76.0532 401.357C76.123 401.385 76.1978 401.399 76.2732 401.398C76.4248 401.398 76.5704 401.339 76.6802 401.234C76.7858 401.124 76.8471 400.98 76.8524 400.827V399.787C76.8504 399.634 76.7887 399.488 76.6805 399.38C76.5723 399.271 76.4262 399.21 76.2732 399.208C76.12 399.209 75.9737 399.271 75.8661 399.38C75.7614 399.49 75.7026 399.635 75.7017 399.787Z" fill="#149688"/>
<path d="M74.9581 404.888L75.099 404.833C74.9575 404.888 74.8105 404.927 74.6606 404.95H74.8172C74.6668 404.974 74.5136 404.974 74.3632 404.95H74.5197C74.361 404.929 74.2057 404.887 74.0579 404.825L74.191 404.88C74.0601 404.825 73.9365 404.754 73.8231 404.669C73.7578 404.63 73.6855 404.604 73.6102 404.593C73.5349 404.583 73.4583 404.587 73.3847 404.606C73.3113 404.626 73.2426 404.66 73.1826 404.707C73.1226 404.754 73.0725 404.812 73.0354 404.878C72.9982 404.945 72.9746 405.018 72.966 405.093C72.9575 405.169 72.9641 405.245 72.9855 405.318C73.033 405.457 73.1235 405.578 73.2438 405.662C73.5777 405.901 73.9699 406.044 74.3788 406.077C74.7871 406.112 75.1973 406.039 75.5687 405.866C75.6953 405.792 75.788 405.671 75.827 405.529C75.8484 405.456 75.855 405.38 75.8464 405.304C75.8379 405.229 75.8143 405.156 75.7771 405.09C75.7399 405.023 75.6899 404.965 75.6299 404.918C75.5699 404.872 75.5012 404.837 75.4278 404.817C75.2788 404.787 75.1239 404.809 74.9894 404.88L74.9581 404.888Z" fill="#149688"/>
<path d="M79.9443 408.706C79.8076 408.899 79.7019 409.113 79.6312 409.339C79.6004 409.431 79.5768 409.525 79.5607 409.621C79.5491 409.762 79.5491 409.903 79.5607 410.044C79.5616 410.195 79.6204 410.341 79.7251 410.45C79.835 410.556 79.9799 410.617 80.1322 410.622C80.2848 410.619 80.4303 410.557 80.5392 410.45C80.5925 410.397 80.6344 410.333 80.6627 410.264C80.6909 410.194 80.7048 410.119 80.7036 410.044C80.7036 409.957 80.7036 409.871 80.7036 409.778V409.934C80.7234 409.786 80.7629 409.641 80.821 409.504L80.7584 409.644C80.8119 409.518 80.883 409.399 80.9698 409.292C81.0347 409.153 81.0538 408.997 81.0246 408.847C80.9812 408.703 80.8864 408.58 80.7584 408.502C80.6926 408.465 80.62 408.44 80.5447 408.431C80.4695 408.421 80.3931 408.427 80.3201 408.448L80.1792 408.502C80.0948 408.551 80.0247 408.621 79.9756 408.706H79.9443Z" fill="#149688"/>
<path d="M512.288 463.807V462.579C512.252 460.824 511.732 459.114 510.784 457.636C509.837 456.159 508.498 454.972 506.918 454.208C506.237 453.856 506.48 453.089 507.309 453.003C507.733 452.956 508.159 452.932 508.585 452.933H648.321C654.216 452.933 658.991 457.251 658.991 462.579V463.807C658.991 469.135 654.216 473.462 648.321 473.462H508.585C508.159 473.462 507.733 473.438 507.309 473.391C506.48 473.297 506.237 472.539 506.918 472.186C508.498 471.419 509.835 470.231 510.783 468.752C511.73 467.274 512.251 465.563 512.288 463.807Z" fill="#E0E5FF"/>
<path d="M507.309 452.987C507.733 452.94 508.159 452.917 508.585 452.917H648.321C654.216 452.917 658.991 457.236 658.991 462.563V463.792C658.991 468.987 654.458 473.18 648.775 473.43C637.589 452.307 618.246 459.692 510.691 457.494C509.725 456.099 508.428 454.965 506.918 454.192C506.237 453.856 506.48 453.089 507.309 452.987Z" fill="#B1BFFC"/>
<path d="M532.398 456.899H656.822C656.861 456.898 656.9 456.906 656.935 456.922C656.971 456.938 657.002 456.963 657.026 456.993C657.136 457.134 657.245 457.282 657.347 457.431C657.374 457.469 657.391 457.513 657.395 457.559C657.399 457.606 657.39 457.652 657.368 457.693C657.347 457.735 657.315 457.77 657.275 457.794C657.236 457.818 657.19 457.83 657.143 457.83H532.398C532.331 457.83 532.266 457.804 532.218 457.757C532.17 457.711 532.141 457.647 532.139 457.58V457.149C532.139 457.116 532.146 457.083 532.159 457.052C532.172 457.021 532.191 456.993 532.216 456.97C532.24 456.946 532.268 456.928 532.299 456.916C532.331 456.904 532.364 456.898 532.398 456.899Z" fill="#8CA1F4"/>
<path d="M523.403 462.274H658.732L658.991 462.54V462.955C658.991 463.021 658.964 463.085 658.917 463.132C658.87 463.179 658.807 463.205 658.74 463.205H523.403C523.37 463.206 523.336 463.2 523.305 463.188C523.274 463.176 523.245 463.158 523.221 463.134C523.197 463.111 523.178 463.083 523.165 463.052C523.152 463.021 523.145 462.988 523.145 462.955V462.524C523.147 462.457 523.175 462.394 523.223 462.347C523.272 462.3 523.336 462.274 523.403 462.274Z" fill="#8CA1F4"/>
<path d="M520.304 467.641H657.699C657.743 467.642 657.787 467.655 657.825 467.677C657.863 467.7 657.895 467.732 657.917 467.771C657.939 467.809 657.95 467.853 657.951 467.897C657.951 467.942 657.94 467.985 657.918 468.024C657.842 468.172 657.759 468.316 657.668 468.455C657.647 468.493 657.617 468.525 657.58 468.547C657.542 468.569 657.5 468.58 657.456 468.58H520.304C520.27 468.58 520.236 468.573 520.205 468.56C520.173 468.547 520.145 468.528 520.121 468.504C520.097 468.48 520.078 468.452 520.065 468.42C520.052 468.389 520.045 468.355 520.045 468.322V467.899C520.045 467.865 520.052 467.832 520.065 467.8C520.078 467.769 520.097 467.741 520.121 467.717C520.145 467.693 520.173 467.674 520.205 467.661C520.236 467.648 520.27 467.641 520.304 467.641Z" fill="#8CA1F4"/>
<path d="M508.609 474.69H647.82C654.685 474.69 660.274 469.534 660.274 463.197C660.274 456.86 654.685 451.696 647.82 451.696H508.609C508.067 451.695 507.526 451.729 506.988 451.798C506.846 451.816 506.71 451.862 506.585 451.933C506.461 452.004 506.352 452.098 506.265 452.211C506.088 452.439 506.009 452.728 506.045 453.015C506.081 453.301 506.23 453.561 506.458 453.738C506.687 453.915 506.976 453.994 507.262 453.957C507.709 453.902 508.159 453.873 508.609 453.871H647.82C653.488 453.871 658.098 458.057 658.098 463.197C658.098 468.337 653.488 472.546 647.82 472.546H508.609C508.159 472.545 507.709 472.516 507.262 472.46C507.12 472.442 506.976 472.452 506.838 472.49C506.7 472.528 506.571 472.592 506.458 472.68C506.23 472.857 506.081 473.117 506.045 473.403C506.009 473.689 506.088 473.978 506.265 474.207C506.441 474.435 506.702 474.583 506.988 474.62C507.526 474.678 508.068 474.702 508.609 474.69Z" fill="#B152BD"/>
<path d="M636.415 493.193V491.323C636.415 485.776 638.583 480.941 641.808 478.367C641.963 478.244 642.08 478.08 642.147 477.893C642.213 477.707 642.227 477.506 642.185 477.313C642.144 477.119 642.049 476.941 641.912 476.799C641.775 476.656 641.601 476.554 641.409 476.505C640.988 476.433 640.561 476.396 640.133 476.396H499.771C493.845 476.396 489.047 483.077 489.047 491.323V493.224C489.047 501.47 493.845 508.159 499.771 508.159H640.133C640.561 508.159 640.988 508.122 641.409 508.05C641.601 508.001 641.775 507.899 641.912 507.756C642.049 507.614 642.144 507.436 642.185 507.242C642.227 507.049 642.213 506.848 642.147 506.662C642.08 506.475 641.963 506.311 641.808 506.188C638.583 503.583 636.415 498.74 636.415 493.193Z" fill="#E0E5FF"/>
<path d="M641.409 476.458C640.988 476.386 640.561 476.349 640.133 476.349H499.771C493.845 476.349 489.047 483.03 489.047 491.276V493.177C489.047 501.212 493.603 507.76 499.309 508.097C510.55 475.379 529.948 486.84 638.02 483.437C638.857 481.454 640.156 479.7 641.808 478.32C641.963 478.197 642.08 478.033 642.147 477.847C642.213 477.66 642.227 477.459 642.185 477.266C642.144 477.072 642.049 476.894 641.912 476.752C641.775 476.609 641.601 476.507 641.409 476.458Z" fill="#B1BFFC"/>
<path d="M616.211 482.514H491.223C491.179 482.517 491.136 482.533 491.1 482.56C491.064 482.586 491.036 482.621 491.019 482.662C490.91 482.881 490.8 483.108 490.698 483.335C490.597 483.562 490.698 483.953 490.902 483.953H616.211C616.352 483.953 616.469 483.781 616.469 483.562V482.905C616.469 482.717 616.352 482.514 616.211 482.514Z" fill="#8CA1F4"/>
<path d="M625.252 490.822H489.305L489.047 491.229V491.871C489.047 492.09 489.156 492.27 489.297 492.27H625.252C625.393 492.27 625.503 492.09 625.503 491.871V491.214C625.503 490.994 625.393 490.822 625.252 490.822Z" fill="#8CA1F4"/>
<path d="M628.368 499.147H490.346C490.151 499.147 490.025 499.467 490.119 499.733C490.213 499.999 490.284 500.179 490.37 500.406C490.383 500.456 490.412 500.5 490.451 500.534C490.49 500.567 490.538 500.588 490.589 500.594H628.36C628.501 500.594 628.611 500.414 628.611 500.195V499.538C628.618 499.303 628.509 499.147 628.368 499.147Z" fill="#8CA1F4"/>
<path d="M640.11 509.505H500.272C493.556 509.505 488.1 501.768 488.1 492.246C488.1 482.725 493.579 474.979 500.272 474.979H640.11C640.635 474.982 641.16 475.035 641.675 475.136C642.09 475.222 642.38 475.801 642.325 476.435C642.27 477.068 641.887 477.514 641.48 477.436C641.021 477.342 640.554 477.295 640.086 477.295H500.272C494.385 477.295 489.603 484 489.603 492.246C489.603 500.492 494.385 507.189 500.272 507.189H640.11C640.577 507.188 641.044 507.143 641.503 507.056C641.918 506.97 642.286 507.416 642.349 508.058C642.411 508.699 642.114 509.27 641.699 509.349C641.176 509.455 640.643 509.507 640.11 509.505Z" fill="#94CA5A"/>
<path d="M526.652 499.029L520.249 494.061L513.619 499.029V482.435H526.652V499.029Z" fill="#6E7FF9"/>
<path d="M527.341 498.333L520.938 493.365L514.307 498.333V482.435H527.341V498.333Z" fill="#B152BD"/>
<path d="M555.474 471.091L560.265 467.375L565.228 471.091V458.683H555.474V471.091Z" fill="#6E7FF9"/>
<path d="M554.958 470.575L559.748 466.859L564.711 470.575V458.683H554.958V470.575Z" fill="#149688"/>
<path d="M146.395 499.021V497.645C146.395 493.631 147.961 490.134 150.309 488.256C150.419 488.165 150.501 488.045 150.548 487.911C150.594 487.776 150.603 487.631 150.573 487.492C150.543 487.353 150.476 487.224 150.378 487.121C150.281 487.017 150.157 486.941 150.02 486.903C149.714 486.853 149.406 486.827 149.096 486.824H47.5211C43.2314 486.824 39.7637 491.667 39.7637 497.629V499.006C39.7637 504.975 43.2314 509.81 47.5211 509.81H149.088C149.398 509.812 149.707 509.786 150.012 509.732C150.147 509.693 150.27 509.617 150.366 509.514C150.462 509.411 150.528 509.283 150.558 509.145C150.588 509.008 150.58 508.864 150.534 508.731C150.489 508.597 150.409 508.478 150.302 508.386C147.969 506.54 146.395 503.058 146.395 499.021Z" fill="#E0E5FF"/>
<path d="M150.012 486.918C149.707 486.869 149.398 486.843 149.088 486.84H47.5211C43.2314 486.84 39.7637 491.683 39.7637 497.645V499.022C39.7637 504.834 43.0592 509.568 47.1845 509.81C55.3177 486.144 69.361 494.437 147.554 491.972C148.161 490.537 149.103 489.268 150.302 488.272C150.411 488.181 150.493 488.061 150.54 487.926C150.586 487.792 150.595 487.647 150.565 487.508C150.535 487.369 150.468 487.24 150.371 487.136C150.273 487.032 150.149 486.957 150.012 486.918Z" fill="#B1BFFC"/>
<path d="M131.781 491.323H41.3371C41.3047 491.326 41.2738 491.338 41.2476 491.357C41.2214 491.377 41.2009 491.403 41.1884 491.433L40.9535 491.918C40.8674 492.105 40.9535 492.371 41.1101 492.371H131.781C131.883 492.371 131.961 492.238 131.961 492.082V491.605C131.961 491.417 131.883 491.323 131.781 491.323Z" fill="#8CA1F4"/>
<path d="M138.317 497.308H39.9515L39.7637 497.598V498.067C39.7637 498.223 39.842 498.349 39.9437 498.349H138.317C138.419 498.349 138.497 498.223 138.497 498.067V497.582C138.497 497.433 138.419 497.308 138.317 497.308Z" fill="#8CA1F4"/>
<path d="M140.571 503.317H40.703C40.5621 503.317 40.4682 503.551 40.5386 503.739C40.6091 503.927 40.656 504.068 40.7187 504.224C40.7813 504.381 40.8126 504.365 40.883 504.365H140.571C140.673 504.365 140.752 504.232 140.752 504.076V503.598C140.752 503.442 140.673 503.317 140.571 503.317Z" fill="#8CA1F4"/>
<path d="M149.065 510.827H47.8814C43.028 510.827 39.075 505.226 39.075 498.31C39.075 491.393 42.9889 485.792 47.8814 485.792H149.065C149.451 485.789 149.837 485.826 150.216 485.901C150.513 485.964 150.724 486.379 150.685 486.84C150.646 487.302 150.372 487.623 150.083 487.568C149.748 487.499 149.407 487.465 149.065 487.466H47.8814C43.623 487.466 40.163 492.317 40.163 498.278C40.163 504.24 43.623 509.098 47.8814 509.098H149.065C149.407 509.095 149.747 509.061 150.083 508.997C150.372 508.934 150.654 509.263 150.685 509.716C150.717 510.17 150.513 510.6 150.216 510.655C149.839 510.752 149.453 510.809 149.065 510.827Z" fill="#94CA5A"/>
<path d="M412.49 572H249.927V444.272C249.925 438.427 251.88 432.749 255.48 428.142C259.081 423.536 264.12 420.266 269.795 418.853C310.142 408.786 352.346 408.786 392.693 418.853C398.367 420.267 403.404 423.538 407.003 428.144C410.601 432.75 412.555 438.428 412.552 444.272L412.49 572Z" fill="#7C38BA"/>
<path d="M403.284 424.329C403.848 426.485 404.132 428.704 404.13 430.933V544.234C404.13 548.062 402.608 551.734 399.899 554.441C397.191 557.148 393.517 558.669 389.687 558.669H249.927V571.969H412.49V444.272C412.492 440.48 411.669 436.733 410.08 433.289C408.49 429.846 406.172 426.789 403.284 424.329Z" fill="#160077"/>
<path d="M719.9 177.901H606.348C596.794 177.901 589.048 185.642 589.048 195.191V204.517C589.048 214.066 596.794 221.807 606.348 221.807H719.9C729.454 221.807 737.199 214.066 737.199 204.517V195.191C737.199 185.642 729.454 177.901 719.9 177.901Z" fill="#946EF9"/>
<path d="M648.681 218.756L648.047 219.867C643.045 226.572 646.967 233.879 648.047 238.284C648.097 238.498 648.085 238.721 648.011 238.928C647.937 239.135 647.805 239.316 647.631 239.45C647.456 239.584 647.247 239.664 647.028 239.682C646.809 239.7 646.589 239.655 646.396 239.551L636.814 234.466C634.059 233.007 631.682 230.926 629.873 228.387C628.064 225.849 626.873 222.923 626.395 219.844L626.223 218.74L648.681 218.756Z" fill="#946EF9"/>
<path d="M639.267 206.114C643.453 204.381 645.44 199.585 643.706 195.401C641.973 191.218 637.174 189.231 632.988 190.964C628.802 192.697 626.814 197.493 628.548 201.677C630.282 205.86 635.081 207.847 639.267 206.114Z" fill="#C1B1FC"/>
<path d="M666.261 206.115C670.447 204.382 672.435 199.586 670.701 195.402C668.967 191.219 664.168 189.232 659.982 190.965C655.796 192.698 653.809 197.494 655.542 201.678C657.276 205.861 662.075 207.848 666.261 206.115Z" fill="#C1B1FC"/>
<path d="M698.081 200.411C699.122 196.004 696.391 191.588 691.981 190.548C687.571 189.508 683.153 192.237 682.112 196.644C681.071 201.051 683.802 205.467 688.212 206.508C692.622 207.548 697.04 204.818 698.081 200.411Z" fill="#C1B1FC"/>
<path d="M573.353 270.947H711.313C714.819 270.947 718.182 272.34 720.661 274.818C723.141 277.296 724.534 280.657 724.534 284.161V343.621C724.534 347.125 723.141 350.486 720.661 352.965C718.182 355.443 714.819 356.835 711.313 356.835H573.353C569.882 356.835 566.553 355.457 564.099 353.004C561.644 350.55 560.265 347.223 560.265 343.754V283.997C560.265 280.528 561.644 277.201 564.099 274.747C566.553 272.294 569.882 270.916 573.353 270.916V270.947Z" fill="#A646F2"/>
<path d="M674.2 353.33L675.069 354.84C681.903 363.923 676.541 373.828 675.069 379.797C675.008 380.088 675.03 380.389 675.133 380.668C675.236 380.946 675.417 381.189 675.653 381.368C675.889 381.548 676.172 381.657 676.468 381.682C676.764 381.707 677.06 381.648 677.324 381.511L690.389 374.626C694.133 372.659 697.366 369.845 699.83 366.409C702.294 362.972 703.92 359.008 704.581 354.832L704.815 353.33H674.2Z" fill="#A646F2"/>
<path d="M678.412 294.066H590.731C588.803 294.066 587.24 295.627 587.24 297.552C587.24 299.477 588.803 301.037 590.731 301.037H678.412C680.34 301.037 681.903 299.477 681.903 297.552C681.903 295.627 680.34 294.066 678.412 294.066Z" fill="#A398F4"/>
<path d="M701.293 315.816H590.731C589.806 315.816 588.918 315.448 588.263 314.794C587.608 314.139 587.24 313.252 587.24 312.326C587.24 311.401 587.608 310.514 588.263 309.859C588.918 309.205 589.806 308.837 590.731 308.837H701.293C702.217 308.839 703.103 309.208 703.757 309.862C704.41 310.516 704.776 311.402 704.776 312.326C704.776 313.251 704.41 314.137 703.757 314.791C703.103 315.445 702.217 315.814 701.293 315.816Z" fill="#A398F4"/>
<path d="M678.412 330.579H590.739C589.815 330.579 588.928 330.212 588.273 329.56C587.619 328.907 587.25 328.022 587.248 327.097C587.248 326.172 587.616 325.285 588.271 324.63C588.925 323.976 589.813 323.608 590.739 323.608H678.412C679.338 323.608 680.226 323.976 680.881 324.63C681.535 325.285 681.903 326.172 681.903 327.097C681.901 328.022 681.532 328.907 680.878 329.56C680.223 330.212 679.337 330.579 678.412 330.579Z" fill="#A398F4"/>
<path d="M55.6781 361.396C58.4576 357.649 60.1497 353.208 60.5684 348.562C60.9871 343.916 60.1162 339.245 58.0514 335.062C55.9865 330.878 52.8077 327.345 48.8643 324.849C44.9209 322.354 40.3656 320.994 35.6989 320.918C31.0322 320.842 26.4349 322.053 22.4122 324.418C18.3894 326.784 15.097 330.212 12.8968 334.325C10.6965 338.439 9.67361 343.08 9.94046 347.737C10.2073 352.394 11.7536 356.887 14.4093 360.723C15.4432 362.211 16.6318 363.585 17.9554 364.823C21.5652 369.687 23.8303 375.416 24.523 381.432H46.3472C47.8164 374.433 50.8097 367.844 55.1145 362.132L55.5998 361.482V361.435L55.6781 361.396Z" fill="#C6BEFC"/>
<path d="M46.1593 385.219H24.3977C24.1534 385.219 23.9115 385.171 23.6859 385.077C23.4603 384.983 23.2555 384.846 23.0831 384.673C22.9107 384.5 22.7742 384.295 22.6815 384.069C22.5887 383.843 22.5415 383.601 22.5425 383.357C22.5446 382.867 22.7409 382.397 23.0886 382.051C23.4363 381.705 23.907 381.511 24.3977 381.511H46.1593C46.65 381.511 47.1207 381.705 47.4684 382.051C47.8161 382.397 48.0125 382.867 48.0145 383.357C48.0156 383.601 47.9683 383.843 47.8756 384.069C47.7828 384.295 47.6463 384.5 47.4739 384.673C47.3015 384.846 47.0967 384.983 46.8711 385.077C46.6455 385.171 46.4036 385.219 46.1593 385.219Z" fill="#A398F4"/>
<path d="M44.5859 385.274H25.9712C25.0201 385.274 24.249 386.044 24.249 386.995V387.261C24.249 388.212 25.0201 388.982 25.9712 388.982H44.5859C45.5371 388.982 46.3081 388.212 46.3081 387.261V386.995C46.3081 386.044 45.5371 385.274 44.5859 385.274Z" fill="#A398F4"/>
<path d="M43.6309 389.029H26.9183C26.0104 389.029 25.2744 389.765 25.2744 390.672V391.095C25.2744 392.002 26.0104 392.738 26.9183 392.738H43.6309C44.5387 392.738 45.2747 392.002 45.2747 391.095V390.672C45.2747 389.765 44.5387 389.029 43.6309 389.029Z" fill="#A398F4"/>
<path d="M27.3254 390.398H43.2318V395.57C43.2318 396.111 43.0165 396.631 42.6334 397.014C42.2502 397.396 41.7305 397.612 41.1887 397.612H29.3685C28.8267 397.612 28.307 397.396 27.9238 397.014C27.5407 396.631 27.3254 396.111 27.3254 395.57V390.398Z" fill="#A398F4"/>
<path d="M60.6644 346.289C60.6644 342.957 60.0078 339.658 58.732 336.579C57.4562 333.501 55.5863 330.704 53.229 328.348C50.8717 325.992 48.0732 324.123 44.9932 322.848C41.9133 321.573 38.6122 320.917 35.2785 320.917C34.9575 320.917 34.6444 320.917 34.3313 320.917C38.5391 321.88 42.4405 323.876 45.6828 326.725C48.9251 329.573 51.4062 333.184 52.9018 337.231C54.3974 341.278 54.8604 345.634 54.2491 349.905C53.6377 354.176 51.9711 358.228 49.4 361.693V361.748V361.795L48.899 362.46C44.6605 368.09 41.6644 374.553 40.1083 381.425H46.4176C47.8867 374.426 50.8801 367.836 55.1849 362.124L55.6702 361.474V361.427V361.373C58.9178 357.014 60.6695 351.723 60.6644 346.289Z" fill="#A398F4"/>
<path d="M50.5507 321.55C50.4335 321.664 50.2949 321.752 50.143 321.811C49.9912 321.87 49.829 321.899 49.6661 321.895C49.3457 321.886 49.0415 321.752 48.8201 321.52C48.5986 321.289 48.4778 320.979 48.4841 320.659L48.7503 308.939C48.7575 308.617 48.8923 308.312 49.125 308.089C49.3577 307.867 49.6692 307.746 49.991 307.753C50.3128 307.761 50.6185 307.895 50.8409 308.128C51.0633 308.361 51.1842 308.672 51.1769 308.994L50.9029 320.682C50.9057 320.843 50.8759 321.003 50.8154 321.152C50.7549 321.301 50.6648 321.437 50.5507 321.55Z" fill="#C6BEFC"/>
<path d="M56.4688 325.024C56.2589 325.233 55.9798 325.358 55.6842 325.375C55.3886 325.392 55.0969 325.301 54.864 325.118C54.6311 324.935 54.4731 324.674 54.4197 324.383C54.3664 324.092 54.4214 323.791 54.5745 323.538L60.8368 313.07C61.0136 312.816 61.2802 312.639 61.5828 312.574C61.8853 312.509 62.2012 312.561 62.4666 312.72C62.732 312.879 62.9272 313.133 63.0126 313.43C63.098 313.727 63.0674 314.046 62.9268 314.321L56.6645 324.782C56.6101 324.871 56.5443 324.952 56.4688 325.024Z" fill="#C6BEFC"/>
<path d="M63.185 332.371C62.9587 332.6 62.6505 332.73 62.3283 332.732C62.0061 332.734 61.6961 332.608 61.4667 332.382C61.2373 332.156 61.1072 331.848 61.105 331.526C61.1028 331.204 61.2287 330.894 61.455 330.665L73.8466 317.686C73.9548 317.564 74.0866 317.465 74.2339 317.395C74.3812 317.325 74.5411 317.286 74.7041 317.279C74.867 317.272 75.0296 317.299 75.1822 317.356C75.3347 317.414 75.4741 317.501 75.592 317.614C75.7099 317.726 75.8039 317.862 75.8684 318.011C75.9329 318.161 75.9665 318.322 75.9672 318.485C75.9679 318.648 75.9358 318.81 75.8727 318.96C75.8096 319.11 75.7169 319.246 75.6 319.36L63.2084 332.339L63.185 332.371Z" fill="#C6BEFC"/>
</svg>
