<svg width="1921" height="430" viewBox="0 0 1921 430" fill="none" xmlns="http://www.w3.org/2000/svg">
<rect width="1921" height="430" fill="#E5E5E5"/>
<path d="M0 313.229V3.05176e-05H1920.73C1920.73 3.05176e-05 1935.73 202.765 1740.67 202.765C1524.58 202.765 1623.08 359.933 1518.58 359.933C1441.55 359.933 1351.13 318.111 1232.47 319.185C1165.86 319.789 1138.43 331.245 1084.41 392.366C1031.53 452.197 979.33 325.057 898.343 318.633C774.976 308.846 688.263 504.905 524.2 332.215C441.158 244.806 452.173 310.318 398.152 411.216C345.83 508.94 356.782 180.369 252.096 223.003C165.348 258.332 163.97 433.708 70.0267 428.679C9.63993 425.446 0 313.229 0 313.229Z" fill="#F5F5FB"/>
</svg>
