<svg width="63" height="63" viewBox="0 0 63 63" fill="none" xmlns="http://www.w3.org/2000/svg">
<path d="M8.12485 39.5479C12.6121 52.4131 26.6814 59.204 39.5495 54.7157C52.4177 50.2275 59.2117 36.1597 54.7245 23.2945C50.2372 10.4293 36.1679 3.63846 23.2998 8.12672C10.4317 12.615 3.63761 26.6827 8.12485 39.5479Z" fill="url(#paint0_linear)"/>
<g clip-path="url(#clip0)">
<path d="M22.0772 33.6215L19.8052 31.6624C19.4035 31.316 19.1559 30.8242 19.1168 30.2952C19.0777 29.7662 19.2503 29.2434 19.5967 28.8417L24.168 23.5404C24.5144 23.1387 25.0062 22.8911 25.5352 22.852C26.0642 22.8129 26.5871 22.9855 26.9888 23.3319L29.2607 25.2911M35.868 28.3478L38.4802 25.3185C38.9998 24.7159 39.2588 23.9316 39.2001 23.1382C39.1414 22.3447 38.77 21.607 38.1674 21.0874L29.2607 25.2911L22.0772 33.6215L30.6197 40.9879C30.9814 41.307 31.4463 41.4847 31.9286 41.4881C32.411 41.4915 32.8783 41.3205 33.2445 41.0066L40.1671 35.0919C40.3872 34.9033 40.5637 34.669 40.6843 34.4053C40.8049 34.1417 40.8668 33.855 40.8656 33.565C40.8644 33.2751 40.8001 32.9889 40.6774 32.7263C40.5546 32.4636 40.3761 32.2308 40.1544 32.044L35.868 28.3478Z" stroke="white" stroke-width="2" stroke-linecap="round" stroke-linejoin="round"/>
</g>
<defs>
<linearGradient id="paint0_linear" x1="43.7729" y1="-13.8918" x2="14.737" y2="92.629" gradientUnits="userSpaceOnUse">
<stop offset="0.00116186" stop-color="#24C2E4"/>
<stop offset="0.9958" stop-color="#045FF2"/>
</linearGradient>
<clipPath id="clip0">
<rect width="24" height="24" fill="white" transform="translate(31.1431 12.3892) rotate(40.7718)"/>
</clipPath>
</defs>
</svg>
