<svg width="382" height="242" viewBox="0 0 382 242" fill="none" xmlns="http://www.w3.org/2000/svg">
<path d="M159.544 184.239L170.27 189.533C175.683 192.205 181.022 195.13 186.455 197.726C188.659 198.778 191.543 200.125 194.037 200.121C196.536 200.119 199.426 198.763 201.631 197.704C207.074 195.094 212.417 192.164 217.843 189.486L228.476 184.239C228.967 183.995 229.437 183.885 229.986 183.885H280.57C302.83 183.885 321.055 165.66 321.055 143.4C321.055 142.344 320.964 141.291 320.809 140.248C320.352 137.184 319.347 134.173 318.386 131.235C316.853 126.549 315.378 121.932 315.378 116.947C315.378 112.249 316.933 107.583 318.388 103.164C319.569 99.5788 321.055 95.3145 321.055 91.5181C321.055 69.2568 302.832 51.033 280.57 51.033C220.857 51.033 161.144 51.033 101.43 51.033C79.1692 51.033 60.9453 69.2568 60.9453 91.5181C60.9453 95.3145 62.4316 99.5788 63.6124 103.164C65.0678 107.583 66.6225 112.249 66.6225 116.947C66.6225 118.34 66.5065 119.73 66.3002 121.108C65.7807 124.582 64.703 127.908 63.6138 131.235C62.3427 135.122 60.9453 139.265 60.9453 143.4C60.9453 165.66 79.1705 183.885 101.43 183.885H158.032C158.581 183.885 159.051 183.995 159.544 184.239Z" fill="#6359CF"/>
<path fill-rule="evenodd" clip-rule="evenodd" d="M101.766 40.446H280.235C309.332 40.446 333.137 64.2517 333.137 93.3478V141.23C333.137 170.326 309.332 194.131 280.235 194.131H227.722L241.559 187.301H280.571C304.715 187.301 324.471 167.545 324.471 143.401C324.471 134.3 318.793 126.048 318.793 116.947C318.793 108.754 324.471 99.712 324.471 91.5185C324.471 67.3726 304.717 47.6186 280.571 47.6186C220.857 47.6186 161.144 47.6186 101.431 47.6186C77.2851 47.6186 57.5298 67.3726 57.5298 91.5185C57.5298 99.712 63.2082 108.754 63.2082 116.947C63.2082 126.048 57.5298 134.3 57.5298 143.401C57.5298 167.545 77.2851 187.301 101.431 187.301H146.46L160.297 194.131H101.766C72.6702 194.131 48.8645 170.326 48.8645 141.23V93.3478C48.8645 64.2517 72.6702 40.446 101.766 40.446Z" fill="white"/>
<path fill-rule="evenodd" clip-rule="evenodd" d="M101.122 124.194C108.691 124.194 116.281 124.194 123.87 124.194C125.119 124.194 126.126 125.272 126.126 126.585C126.126 128.965 126.126 131.334 126.126 133.704C126.126 135.017 125.119 136.094 123.87 136.094C113.16 136.094 102.451 136.094 91.7396 136.094C90.5111 136.094 89.5056 135.017 89.5056 133.704C89.5056 123.591 89.5056 113.469 89.5056 103.357C89.5056 93.2458 89.5056 83.1225 89.5056 73.0006C89.5056 71.687 90.5111 70.6093 91.7396 70.6093C94.1154 70.6093 96.4912 70.6093 98.867 70.6093C100.115 70.6093 101.122 71.687 101.122 73.0006C101.122 81.5395 101.122 90.0797 101.122 98.6083C101.122 107.137 101.122 115.666 101.122 124.194ZM167.86 130.408C163.853 133.197 159.123 134.597 154.23 134.597C140.742 134.597 130.393 123.43 130.393 109.076C130.393 94.732 140.742 83.4564 154.23 83.4564C159.948 83.4564 165.403 85.4158 169.752 89.1748C169.873 88.2917 170.014 87.3984 170.155 86.5038C170.316 85.3307 171.262 84.4799 172.37 84.4799C173.9 84.4799 175.43 84.4799 176.979 84.4799C178.208 84.4799 179.215 85.5563 179.215 86.8815C179.215 93.6015 179.215 100.32 179.215 107.029C179.215 113.738 179.215 120.447 179.215 127.155C179.215 142.932 170.618 153.83 155.458 153.83C144.426 153.83 135.306 147.81 132.488 136.116C132.306 135.384 132.448 134.662 132.89 134.048C133.333 133.445 133.937 133.121 134.661 133.121C136.957 133.121 139.252 133.121 141.567 133.121C142.534 133.121 143.359 133.746 143.7 134.716C145.433 139.96 150.526 142.297 155.458 142.297C162.787 142.297 167.115 137.558 167.86 130.408ZM195.622 132.606C195.622 138.538 195.622 144.472 195.622 150.405C195.622 151.729 194.615 152.807 193.388 152.807C191.072 152.807 188.757 152.807 186.462 152.807C185.233 152.807 184.228 151.729 184.228 150.405C184.228 139.819 184.228 129.235 184.228 118.649C184.228 108.064 184.228 97.4778 184.228 86.8815C184.228 85.5563 185.233 84.4799 186.462 84.4799C188.053 84.4799 189.642 84.4799 191.233 84.4799C192.3 84.4799 193.207 85.2663 193.427 86.3968C193.609 87.3546 193.79 88.3136 193.971 89.2611C198.4 85.4274 203.956 83.4564 209.794 83.4564C224.19 83.4564 234.598 95.0324 234.598 110.293C234.598 125.498 224.15 137.128 209.794 137.128C204.682 137.128 199.749 135.599 195.622 132.606ZM279.332 131.84C274.984 135.351 269.629 137.128 264.052 137.128C249.636 137.128 239.168 125.584 239.168 110.293C239.168 94.9577 249.596 83.4564 264.052 83.4564C269.085 83.4564 273.937 84.8886 278.063 87.7646C278.063 81.9056 278.063 76.0376 278.063 70.1684C278.063 68.8548 279.07 67.7668 280.318 67.7668C282.614 67.7668 284.908 67.7668 287.204 67.7668C288.452 67.7668 289.459 68.8548 289.459 70.1684C289.459 80.7647 289.459 91.3611 289.459 101.947C289.459 112.532 289.459 123.118 289.459 133.704C289.459 135.017 288.452 136.094 287.204 136.094C285.413 136.094 283.64 136.094 281.869 136.094C280.761 136.094 279.815 135.243 279.654 134.058C279.533 133.326 279.432 132.584 279.332 131.84ZM154.975 122.762C162.464 122.762 167.92 117.087 167.92 109.076C167.92 101.042 162.504 95.3018 154.975 95.3018C147.486 95.3018 141.929 101.063 141.929 109.076C141.929 117.055 147.546 122.762 154.975 122.762ZM209.252 125.206C217.345 125.206 223.122 118.886 223.122 110.293C223.122 101.688 217.345 95.3779 209.252 95.3779C201.219 95.3779 195.321 101.731 195.321 110.293C195.321 118.843 201.219 125.206 209.252 125.206ZM264.595 125.206C272.608 125.206 278.507 118.821 278.507 110.293C278.507 101.72 272.648 95.3779 264.595 95.3779C256.502 95.3779 250.704 101.698 250.704 110.293C250.704 118.886 256.502 125.206 264.595 125.206Z" fill="#5A52BD"/>
<path fill-rule="evenodd" clip-rule="evenodd" d="M208.179 144.663C209.829 142.785 212.205 141.736 214.924 141.736C218.125 141.736 220.54 143.411 221.828 146.005C223.398 143.32 226.178 141.736 229.54 141.736C231.13 141.736 232.68 142.169 233.988 143.098C236.506 144.875 237.471 147.934 237.471 150.901C237.471 155.354 237.471 159.795 237.471 164.237C237.471 164.742 237.069 165.156 236.565 165.156C236.303 165.156 236.062 165.156 235.821 165.156C235.317 165.156 234.915 164.742 234.915 164.247C234.894 159.846 234.874 155.435 234.874 151.022C234.854 147.631 233.224 144.309 229.458 144.309C225.15 144.309 222.876 147.651 222.876 151.699C222.876 155.878 222.876 160.058 222.876 164.237C222.876 164.742 222.453 165.156 221.949 165.156C221.688 165.156 221.426 165.156 221.185 165.156C220.681 165.156 220.279 164.742 220.279 164.237C220.279 159.836 220.279 155.435 220.279 151.022C220.279 147.56 218.669 144.309 214.843 144.309C210.535 144.309 208.24 147.641 208.24 151.699C208.24 155.878 208.24 160.058 208.24 164.237C208.24 164.742 207.837 165.156 207.334 165.156C207.072 165.156 206.81 165.156 206.549 165.156C206.045 165.156 205.622 164.742 205.622 164.237C205.622 157.18 205.622 150.115 205.622 143.048C205.622 142.543 206.045 142.129 206.549 142.129C206.77 142.129 206.991 142.129 207.233 142.129C207.736 142.129 208.139 142.532 208.139 143.027C208.139 143.573 208.159 144.118 208.179 144.663ZM261.287 161.269C259.135 164.005 255.852 165.559 252.148 165.559C245.424 165.559 240.471 160.31 240.471 153.647C240.471 146.964 245.424 141.725 252.148 141.725C255.852 141.725 259.154 143.29 261.287 146.026C261.287 145.036 261.308 144.037 261.328 143.038C261.328 142.532 261.751 142.129 262.235 142.129C262.476 142.129 262.717 142.129 262.959 142.129C263.462 142.129 263.865 142.543 263.865 143.048C263.865 150.115 263.865 157.18 263.865 164.237C263.865 164.742 263.462 165.156 262.959 165.156C262.717 165.156 262.476 165.156 262.235 165.156C261.731 165.156 261.328 164.752 261.308 164.247C261.287 163.258 261.287 162.268 261.287 161.269ZM271.797 161.259C271.797 164.742 271.797 168.225 271.797 171.707C271.797 172.212 271.394 172.616 270.891 172.616C270.629 172.616 270.368 172.616 270.106 172.616C269.603 172.616 269.18 172.212 269.18 171.707C269.18 166.932 269.18 162.157 269.18 157.383C269.18 152.608 269.18 147.833 269.18 143.048C269.18 142.543 269.603 142.129 270.106 142.129C270.328 142.129 270.549 142.129 270.77 142.129C271.274 142.129 271.676 142.532 271.676 143.027C271.697 144.057 271.716 145.086 271.737 146.106C273.891 143.341 277.213 141.725 280.917 141.725C287.721 141.725 292.573 146.904 292.573 153.647C292.573 160.381 287.721 165.559 280.917 165.559C277.253 165.559 273.951 163.965 271.797 161.259ZM252.189 162.955C257.544 162.955 261.247 158.948 261.247 153.647C261.247 148.337 257.544 144.329 252.189 144.329C246.914 144.329 243.069 148.429 243.069 153.647C243.069 158.877 246.893 162.955 252.189 162.955ZM280.876 162.955C286.252 162.955 289.957 158.948 289.957 153.647C289.957 148.337 286.252 144.329 280.876 144.329C275.601 144.329 271.777 148.408 271.777 153.647C271.777 158.866 275.601 162.955 280.876 162.955Z" fill="#5A52BD"/>
<path fill-rule="evenodd" clip-rule="evenodd" d="M103.965 123.521C111.534 123.521 119.125 123.521 126.713 123.521C127.963 123.521 128.969 124.53 128.969 125.761C128.969 127.993 128.969 130.214 128.969 132.435C128.969 133.666 127.963 134.675 126.713 134.675C116.004 134.675 105.294 134.675 94.5829 134.675C93.3544 134.675 92.3489 133.666 92.3489 132.435C92.3489 122.955 92.3489 113.466 92.3489 103.986C92.3489 94.5072 92.3489 85.0181 92.3489 75.5291C92.3489 74.2968 93.3544 73.2874 94.5829 73.2874C96.9587 73.2874 99.3345 73.2874 101.71 73.2874C102.958 73.2874 103.965 74.2968 103.965 75.5291C103.965 83.5344 103.965 91.5396 103.965 99.5346C103.965 107.53 103.965 115.526 103.965 123.521ZM170.704 129.345C166.696 131.96 161.966 133.273 157.073 133.273C143.585 133.273 133.238 122.804 133.238 109.347C133.238 95.9006 143.585 85.3313 157.073 85.3313C162.791 85.3313 168.247 87.1683 172.596 90.6913C172.716 89.8638 172.858 89.0259 172.998 88.1879C173.159 87.0871 174.106 86.2892 175.213 86.2892C176.743 86.2892 178.273 86.2892 179.823 86.2892C181.051 86.2892 182.058 87.2998 182.058 88.5412C182.058 94.8397 182.058 101.14 182.058 107.429C182.058 113.718 182.058 120.008 182.058 126.296C182.058 141.086 173.461 151.302 158.301 151.302C147.269 151.302 138.149 145.659 135.331 134.696C135.149 134.01 135.291 133.333 135.733 132.757C136.177 132.192 136.78 131.889 137.504 131.889C139.8 131.889 142.095 131.889 144.41 131.889C145.377 131.889 146.202 132.475 146.544 133.383C148.276 138.3 153.369 140.49 158.301 140.49C165.63 140.49 169.959 136.048 170.704 129.345ZM198.466 131.405C198.466 136.967 198.466 142.53 198.466 148.092C198.466 149.333 197.459 150.343 196.232 150.343C193.915 150.343 191.6 150.343 189.305 150.343C188.077 150.343 187.071 149.333 187.071 148.092C187.071 138.169 187.071 128.245 187.071 118.322C187.071 108.398 187.071 98.4749 187.071 88.5412C187.071 87.2998 188.077 86.2892 189.305 86.2892C190.896 86.2892 192.485 86.2892 194.076 86.2892C195.144 86.2892 196.05 87.0265 196.271 88.0861C196.452 88.9846 196.634 89.8831 196.814 90.7713C201.244 87.1773 206.799 85.3313 212.639 85.3313C227.033 85.3313 237.441 96.1829 237.441 110.488C237.441 124.741 226.993 135.645 212.639 135.645C207.525 135.645 202.592 134.211 198.466 131.405ZM282.175 130.688C277.827 133.979 272.472 135.645 266.896 135.645C252.48 135.645 242.011 124.823 242.011 110.488C242.011 96.112 252.44 85.3313 266.896 85.3313C271.928 85.3313 276.78 86.6733 280.907 89.3688C280.907 83.8772 280.907 78.3754 280.907 72.8736C280.907 71.6412 281.914 70.6216 283.161 70.6216C285.457 70.6216 287.752 70.6216 290.048 70.6216C291.296 70.6216 292.302 71.6412 292.302 72.8736C292.302 82.8073 292.302 92.7398 292.302 102.665C292.302 112.588 292.302 122.511 292.302 132.435C292.302 133.666 291.296 134.675 290.048 134.675C288.256 134.675 286.483 134.675 284.712 134.675C283.605 134.675 282.659 133.877 282.498 132.767C282.376 132.081 282.276 131.384 282.175 130.688ZM157.818 122.177C165.308 122.177 170.763 116.857 170.763 109.347C170.763 101.816 165.348 96.4356 157.818 96.4356C150.33 96.4356 144.772 101.836 144.772 109.347C144.772 116.828 150.389 122.177 157.818 122.177ZM212.095 124.469C220.188 124.469 225.966 118.543 225.966 110.488C225.966 102.422 220.188 96.5065 212.095 96.5065C204.063 96.5065 198.164 102.462 198.164 110.488C198.164 118.503 204.063 124.469 212.095 124.469ZM267.438 124.469C275.451 124.469 281.35 118.483 281.35 110.488C281.35 102.452 275.491 96.5065 267.438 96.5065C259.345 96.5065 253.547 102.432 253.547 110.488C253.547 118.543 259.345 124.469 267.438 124.469Z" fill="white"/>
<path fill-rule="evenodd" clip-rule="evenodd" d="M209.276 143.622C210.928 141.743 213.303 140.694 216.021 140.694C219.223 140.694 221.639 142.37 222.926 144.964C224.497 142.278 227.276 140.694 230.638 140.694C232.227 140.694 233.778 141.128 235.086 142.057C237.603 143.833 238.57 146.892 238.57 149.86C238.57 154.312 238.57 158.754 238.57 163.195C238.57 163.701 238.166 164.114 237.663 164.114C237.402 164.114 237.161 164.114 236.918 164.114C236.416 164.114 236.012 163.701 236.012 163.206C235.993 158.805 235.972 154.393 235.972 149.981C235.953 146.589 234.322 143.268 230.557 143.268C226.248 143.268 223.973 146.61 223.973 150.657C223.973 154.837 223.973 159.016 223.973 163.195C223.973 163.701 223.55 164.114 223.048 164.114C222.786 164.114 222.524 164.114 222.282 164.114C221.779 164.114 221.376 163.701 221.376 163.195C221.376 158.794 221.376 154.393 221.376 149.981C221.376 146.518 219.766 143.268 215.941 143.268C211.633 143.268 209.337 146.599 209.337 150.657C209.337 154.837 209.337 159.016 209.337 163.195C209.337 163.701 208.935 164.114 208.432 164.114C208.169 164.114 207.907 164.114 207.647 164.114C207.143 164.114 206.72 163.701 206.72 163.195C206.72 156.14 206.72 149.073 206.72 142.006C206.72 141.501 207.143 141.087 207.647 141.087C207.867 141.087 208.089 141.087 208.331 141.087C208.834 141.087 209.236 141.491 209.236 141.986C209.236 142.531 209.257 143.076 209.276 143.622ZM262.385 160.228C260.231 162.963 256.949 164.518 253.246 164.518C246.522 164.518 241.569 159.269 241.569 152.605C241.569 145.923 246.522 140.684 253.246 140.684C256.949 140.684 260.252 142.249 262.385 144.984C262.385 143.994 262.406 142.995 262.427 141.996C262.427 141.491 262.848 141.087 263.332 141.087C263.574 141.087 263.815 141.087 264.057 141.087C264.56 141.087 264.962 141.501 264.962 142.006C264.962 149.073 264.962 156.14 264.962 163.195C264.962 163.701 264.56 164.114 264.057 164.114C263.815 164.114 263.574 164.114 263.332 164.114C262.829 164.114 262.427 163.711 262.406 163.206C262.385 162.217 262.385 161.227 262.385 160.228ZM272.895 160.217C272.895 163.7 272.895 167.184 272.895 170.666C272.895 171.171 272.492 171.574 271.989 171.574C271.728 171.574 271.466 171.574 271.204 171.574C270.7 171.574 270.277 171.171 270.277 170.666C270.277 165.891 270.277 161.116 270.277 156.341C270.277 151.566 270.277 146.792 270.277 142.006C270.277 141.501 270.7 141.087 271.204 141.087C271.426 141.087 271.646 141.087 271.868 141.087C272.372 141.087 272.774 141.491 272.774 141.986C272.795 143.016 272.814 144.046 272.835 145.065C274.989 142.299 278.311 140.684 282.015 140.684C288.82 140.684 293.672 145.862 293.672 152.605C293.672 159.339 288.82 164.518 282.015 164.518C278.351 164.518 275.05 162.923 272.895 160.217ZM253.286 161.914C258.641 161.914 262.346 157.906 262.346 152.605C262.346 147.296 258.641 143.288 253.286 143.288C248.011 143.288 244.167 147.387 244.167 152.605C244.167 157.835 247.992 161.914 253.286 161.914ZM281.974 161.914C287.35 161.914 291.053 157.906 291.053 152.605C291.053 147.296 287.35 143.288 281.974 143.288C276.7 143.288 272.875 147.366 272.875 152.605C272.875 157.825 276.7 161.914 281.974 161.914Z" fill="white"/>
<path d="M159.544 184.239L170.27 189.533C175.683 192.205 181.022 195.13 186.455 197.726C188.659 198.778 191.543 200.125 194.037 200.121C196.536 200.119 199.426 198.763 201.631 197.704C207.074 195.094 212.417 192.164 217.843 189.486L228.476 184.239C228.967 183.995 229.437 183.885 229.986 183.885H280.57C302.83 183.885 321.055 165.66 321.055 143.4C321.055 142.344 320.964 141.291 320.809 140.248C320.352 137.184 319.347 134.173 318.386 131.235C316.853 126.549 315.378 121.932 315.378 116.947C315.378 112.249 316.933 107.583 318.388 103.164C319.569 99.5788 321.055 95.3145 321.055 91.5181C321.055 69.2568 302.832 51.033 280.57 51.033C220.857 51.033 161.144 51.033 101.43 51.033C79.1692 51.033 60.9453 69.2568 60.9453 91.5181C60.9453 95.3145 62.4316 99.5788 63.6124 103.164C65.0678 107.583 66.6225 112.249 66.6225 116.947C66.6225 118.34 66.5065 119.73 66.3002 121.108C65.7807 124.582 64.703 127.908 63.6138 131.235C62.3427 135.122 60.9453 139.265 60.9453 143.4C60.9453 165.66 79.1705 183.885 101.43 183.885H158.032C158.581 183.885 159.051 183.995 159.544 184.239Z" fill="#6359CF"/>
<path fill-rule="evenodd" clip-rule="evenodd" d="M101.766 40.446H280.235C309.332 40.446 333.137 64.2517 333.137 93.3478V141.23C333.137 170.326 309.332 194.131 280.235 194.131H227.722L241.559 187.301H280.571C304.715 187.301 324.471 167.545 324.471 143.401C324.471 134.3 318.793 126.048 318.793 116.947C318.793 108.754 324.471 99.712 324.471 91.5185C324.471 67.3726 304.717 47.6186 280.571 47.6186C220.857 47.6186 161.144 47.6186 101.431 47.6186C77.2851 47.6186 57.5298 67.3726 57.5298 91.5185C57.5298 99.712 63.2082 108.754 63.2082 116.947C63.2082 126.048 57.5298 134.3 57.5298 143.401C57.5298 167.545 77.2851 187.301 101.431 187.301H146.46L160.297 194.131H101.766C72.6702 194.131 48.8645 170.326 48.8645 141.23V93.3478C48.8645 64.2517 72.6702 40.446 101.766 40.446Z" fill="white"/>
<path fill-rule="evenodd" clip-rule="evenodd" d="M101.122 124.194C108.691 124.194 116.281 124.194 123.87 124.194C125.119 124.194 126.126 125.272 126.126 126.585C126.126 128.965 126.126 131.334 126.126 133.704C126.126 135.017 125.119 136.094 123.87 136.094C113.16 136.094 102.451 136.094 91.7396 136.094C90.5111 136.094 89.5056 135.017 89.5056 133.704C89.5056 123.591 89.5056 113.469 89.5056 103.357C89.5056 93.2458 89.5056 83.1225 89.5056 73.0006C89.5056 71.687 90.5111 70.6093 91.7396 70.6093C94.1154 70.6093 96.4912 70.6093 98.867 70.6093C100.115 70.6093 101.122 71.687 101.122 73.0006C101.122 81.5395 101.122 90.0797 101.122 98.6083C101.122 107.137 101.122 115.666 101.122 124.194ZM167.86 130.408C163.853 133.197 159.123 134.597 154.23 134.597C140.742 134.597 130.393 123.43 130.393 109.076C130.393 94.732 140.742 83.4564 154.23 83.4564C159.948 83.4564 165.403 85.4158 169.752 89.1748C169.873 88.2917 170.014 87.3984 170.155 86.5038C170.316 85.3307 171.262 84.4799 172.37 84.4799C173.9 84.4799 175.43 84.4799 176.979 84.4799C178.208 84.4799 179.215 85.5563 179.215 86.8815C179.215 93.6015 179.215 100.32 179.215 107.029C179.215 113.738 179.215 120.447 179.215 127.155C179.215 142.932 170.618 153.83 155.458 153.83C144.426 153.83 135.306 147.81 132.488 136.116C132.306 135.384 132.448 134.662 132.89 134.048C133.333 133.445 133.937 133.121 134.661 133.121C136.957 133.121 139.252 133.121 141.567 133.121C142.534 133.121 143.359 133.746 143.7 134.716C145.433 139.96 150.526 142.297 155.458 142.297C162.787 142.297 167.115 137.558 167.86 130.408ZM195.622 132.606C195.622 138.538 195.622 144.472 195.622 150.405C195.622 151.729 194.615 152.807 193.388 152.807C191.072 152.807 188.757 152.807 186.462 152.807C185.233 152.807 184.228 151.729 184.228 150.405C184.228 139.819 184.228 129.235 184.228 118.649C184.228 108.064 184.228 97.4778 184.228 86.8815C184.228 85.5563 185.233 84.4799 186.462 84.4799C188.053 84.4799 189.642 84.4799 191.233 84.4799C192.3 84.4799 193.207 85.2663 193.427 86.3968C193.609 87.3546 193.79 88.3136 193.971 89.2611C198.4 85.4274 203.956 83.4564 209.794 83.4564C224.19 83.4564 234.598 95.0324 234.598 110.293C234.598 125.498 224.15 137.128 209.794 137.128C204.682 137.128 199.749 135.599 195.622 132.606ZM279.332 131.84C274.984 135.351 269.629 137.128 264.052 137.128C249.636 137.128 239.168 125.584 239.168 110.293C239.168 94.9577 249.596 83.4564 264.052 83.4564C269.085 83.4564 273.937 84.8886 278.063 87.7646C278.063 81.9056 278.063 76.0376 278.063 70.1684C278.063 68.8548 279.07 67.7668 280.318 67.7668C282.614 67.7668 284.908 67.7668 287.204 67.7668C288.452 67.7668 289.459 68.8548 289.459 70.1684C289.459 80.7647 289.459 91.3611 289.459 101.947C289.459 112.532 289.459 123.118 289.459 133.704C289.459 135.017 288.452 136.094 287.204 136.094C285.413 136.094 283.64 136.094 281.869 136.094C280.761 136.094 279.815 135.243 279.654 134.058C279.533 133.326 279.432 132.584 279.332 131.84ZM154.975 122.762C162.464 122.762 167.92 117.087 167.92 109.076C167.92 101.042 162.504 95.3018 154.975 95.3018C147.486 95.3018 141.929 101.063 141.929 109.076C141.929 117.055 147.546 122.762 154.975 122.762ZM209.252 125.206C217.345 125.206 223.122 118.886 223.122 110.293C223.122 101.688 217.345 95.3779 209.252 95.3779C201.219 95.3779 195.321 101.731 195.321 110.293C195.321 118.843 201.219 125.206 209.252 125.206ZM264.595 125.206C272.608 125.206 278.507 118.821 278.507 110.293C278.507 101.72 272.648 95.3779 264.595 95.3779C256.502 95.3779 250.704 101.698 250.704 110.293C250.704 118.886 256.502 125.206 264.595 125.206Z" fill="#5A52BD"/>
<path fill-rule="evenodd" clip-rule="evenodd" d="M208.179 144.663C209.829 142.785 212.205 141.736 214.924 141.736C218.125 141.736 220.54 143.411 221.828 146.005C223.398 143.32 226.178 141.736 229.54 141.736C231.13 141.736 232.68 142.169 233.988 143.098C236.506 144.875 237.471 147.934 237.471 150.901C237.471 155.354 237.471 159.795 237.471 164.237C237.471 164.742 237.069 165.156 236.565 165.156C236.303 165.156 236.062 165.156 235.821 165.156C235.317 165.156 234.915 164.742 234.915 164.247C234.894 159.846 234.874 155.435 234.874 151.022C234.854 147.631 233.224 144.309 229.458 144.309C225.15 144.309 222.876 147.651 222.876 151.699C222.876 155.878 222.876 160.058 222.876 164.237C222.876 164.742 222.453 165.156 221.949 165.156C221.688 165.156 221.426 165.156 221.185 165.156C220.681 165.156 220.279 164.742 220.279 164.237C220.279 159.836 220.279 155.435 220.279 151.022C220.279 147.56 218.669 144.309 214.843 144.309C210.535 144.309 208.24 147.641 208.24 151.699C208.24 155.878 208.24 160.058 208.24 164.237C208.24 164.742 207.837 165.156 207.334 165.156C207.072 165.156 206.81 165.156 206.549 165.156C206.045 165.156 205.622 164.742 205.622 164.237C205.622 157.18 205.622 150.115 205.622 143.048C205.622 142.543 206.045 142.129 206.549 142.129C206.77 142.129 206.991 142.129 207.233 142.129C207.736 142.129 208.139 142.532 208.139 143.027C208.139 143.573 208.159 144.118 208.179 144.663ZM261.287 161.269C259.135 164.005 255.852 165.559 252.148 165.559C245.424 165.559 240.471 160.31 240.471 153.647C240.471 146.964 245.424 141.725 252.148 141.725C255.852 141.725 259.154 143.29 261.287 146.026C261.287 145.036 261.308 144.037 261.328 143.038C261.328 142.532 261.751 142.129 262.235 142.129C262.476 142.129 262.717 142.129 262.959 142.129C263.462 142.129 263.865 142.543 263.865 143.048C263.865 150.115 263.865 157.18 263.865 164.237C263.865 164.742 263.462 165.156 262.959 165.156C262.717 165.156 262.476 165.156 262.235 165.156C261.731 165.156 261.328 164.752 261.308 164.247C261.287 163.258 261.287 162.268 261.287 161.269ZM271.797 161.259C271.797 164.742 271.797 168.225 271.797 171.707C271.797 172.212 271.394 172.616 270.891 172.616C270.629 172.616 270.368 172.616 270.106 172.616C269.603 172.616 269.18 172.212 269.18 171.707C269.18 166.932 269.18 162.157 269.18 157.383C269.18 152.608 269.18 147.833 269.18 143.048C269.18 142.543 269.603 142.129 270.106 142.129C270.328 142.129 270.549 142.129 270.77 142.129C271.274 142.129 271.676 142.532 271.676 143.027C271.697 144.057 271.716 145.086 271.737 146.106C273.891 143.341 277.213 141.725 280.917 141.725C287.721 141.725 292.573 146.904 292.573 153.647C292.573 160.381 287.721 165.559 280.917 165.559C277.253 165.559 273.951 163.965 271.797 161.259ZM252.189 162.955C257.544 162.955 261.247 158.948 261.247 153.647C261.247 148.337 257.544 144.329 252.189 144.329C246.914 144.329 243.069 148.429 243.069 153.647C243.069 158.877 246.893 162.955 252.189 162.955ZM280.876 162.955C286.252 162.955 289.957 158.948 289.957 153.647C289.957 148.337 286.252 144.329 280.876 144.329C275.601 144.329 271.777 148.408 271.777 153.647C271.777 158.866 275.601 162.955 280.876 162.955Z" fill="#5A52BD"/>
<path fill-rule="evenodd" clip-rule="evenodd" d="M103.965 123.521C111.534 123.521 119.125 123.521 126.713 123.521C127.963 123.521 128.969 124.53 128.969 125.761C128.969 127.993 128.969 130.214 128.969 132.435C128.969 133.666 127.963 134.675 126.713 134.675C116.004 134.675 105.294 134.675 94.5829 134.675C93.3544 134.675 92.3489 133.666 92.3489 132.435C92.3489 122.955 92.3489 113.466 92.3489 103.986C92.3489 94.5072 92.3489 85.0181 92.3489 75.5291C92.3489 74.2968 93.3544 73.2874 94.5829 73.2874C96.9587 73.2874 99.3345 73.2874 101.71 73.2874C102.958 73.2874 103.965 74.2968 103.965 75.5291C103.965 83.5344 103.965 91.5396 103.965 99.5346C103.965 107.53 103.965 115.526 103.965 123.521ZM170.704 129.345C166.696 131.96 161.966 133.273 157.073 133.273C143.585 133.273 133.238 122.804 133.238 109.347C133.238 95.9006 143.585 85.3313 157.073 85.3313C162.791 85.3313 168.247 87.1683 172.596 90.6913C172.716 89.8638 172.858 89.0259 172.998 88.1879C173.159 87.0871 174.106 86.2892 175.213 86.2892C176.743 86.2892 178.273 86.2892 179.823 86.2892C181.051 86.2892 182.058 87.2998 182.058 88.5412C182.058 94.8397 182.058 101.14 182.058 107.429C182.058 113.718 182.058 120.008 182.058 126.296C182.058 141.086 173.461 151.302 158.301 151.302C147.269 151.302 138.149 145.659 135.331 134.696C135.149 134.01 135.291 133.333 135.733 132.757C136.177 132.192 136.78 131.889 137.504 131.889C139.8 131.889 142.095 131.889 144.41 131.889C145.377 131.889 146.202 132.475 146.544 133.383C148.276 138.3 153.369 140.49 158.301 140.49C165.63 140.49 169.959 136.048 170.704 129.345ZM198.466 131.405C198.466 136.967 198.466 142.53 198.466 148.092C198.466 149.333 197.459 150.343 196.232 150.343C193.915 150.343 191.6 150.343 189.305 150.343C188.077 150.343 187.071 149.333 187.071 148.092C187.071 138.169 187.071 128.245 187.071 118.322C187.071 108.398 187.071 98.4749 187.071 88.5412C187.071 87.2998 188.077 86.2892 189.305 86.2892C190.896 86.2892 192.485 86.2892 194.076 86.2892C195.144 86.2892 196.05 87.0265 196.271 88.0861C196.452 88.9846 196.634 89.8831 196.814 90.7713C201.244 87.1773 206.799 85.3313 212.639 85.3313C227.033 85.3313 237.441 96.1829 237.441 110.488C237.441 124.741 226.993 135.645 212.639 135.645C207.525 135.645 202.592 134.211 198.466 131.405ZM282.175 130.688C277.827 133.979 272.472 135.645 266.896 135.645C252.48 135.645 242.011 124.823 242.011 110.488C242.011 96.112 252.44 85.3313 266.896 85.3313C271.928 85.3313 276.78 86.6733 280.907 89.3688C280.907 83.8772 280.907 78.3754 280.907 72.8736C280.907 71.6412 281.914 70.6216 283.161 70.6216C285.457 70.6216 287.752 70.6216 290.048 70.6216C291.296 70.6216 292.302 71.6412 292.302 72.8736C292.302 82.8073 292.302 92.7398 292.302 102.665C292.302 112.588 292.302 122.511 292.302 132.435C292.302 133.666 291.296 134.675 290.048 134.675C288.256 134.675 286.483 134.675 284.712 134.675C283.605 134.675 282.659 133.877 282.498 132.767C282.376 132.081 282.276 131.384 282.175 130.688ZM157.818 122.177C165.308 122.177 170.763 116.857 170.763 109.347C170.763 101.816 165.348 96.4356 157.818 96.4356C150.33 96.4356 144.772 101.836 144.772 109.347C144.772 116.828 150.389 122.177 157.818 122.177ZM212.095 124.469C220.188 124.469 225.966 118.543 225.966 110.488C225.966 102.422 220.188 96.5065 212.095 96.5065C204.063 96.5065 198.164 102.462 198.164 110.488C198.164 118.503 204.063 124.469 212.095 124.469ZM267.438 124.469C275.451 124.469 281.35 118.483 281.35 110.488C281.35 102.452 275.491 96.5065 267.438 96.5065C259.345 96.5065 253.547 102.432 253.547 110.488C253.547 118.543 259.345 124.469 267.438 124.469Z" fill="white"/>
<path fill-rule="evenodd" clip-rule="evenodd" d="M209.276 143.622C210.928 141.743 213.303 140.694 216.021 140.694C219.223 140.694 221.639 142.37 222.926 144.964C224.497 142.278 227.276 140.694 230.638 140.694C232.227 140.694 233.778 141.128 235.086 142.057C237.603 143.833 238.57 146.892 238.57 149.86C238.57 154.312 238.57 158.754 238.57 163.195C238.57 163.701 238.166 164.114 237.663 164.114C237.402 164.114 237.161 164.114 236.918 164.114C236.416 164.114 236.012 163.701 236.012 163.206C235.993 158.805 235.972 154.393 235.972 149.981C235.953 146.589 234.322 143.268 230.557 143.268C226.248 143.268 223.973 146.61 223.973 150.657C223.973 154.837 223.973 159.016 223.973 163.195C223.973 163.701 223.55 164.114 223.048 164.114C222.786 164.114 222.524 164.114 222.282 164.114C221.779 164.114 221.376 163.701 221.376 163.195C221.376 158.794 221.376 154.393 221.376 149.981C221.376 146.518 219.766 143.268 215.941 143.268C211.633 143.268 209.337 146.599 209.337 150.657C209.337 154.837 209.337 159.016 209.337 163.195C209.337 163.701 208.935 164.114 208.432 164.114C208.169 164.114 207.907 164.114 207.647 164.114C207.143 164.114 206.72 163.701 206.72 163.195C206.72 156.14 206.72 149.073 206.72 142.006C206.72 141.501 207.143 141.087 207.647 141.087C207.867 141.087 208.089 141.087 208.331 141.087C208.834 141.087 209.236 141.491 209.236 141.986C209.236 142.531 209.257 143.076 209.276 143.622ZM262.385 160.228C260.231 162.963 256.949 164.518 253.246 164.518C246.522 164.518 241.569 159.269 241.569 152.605C241.569 145.923 246.522 140.684 253.246 140.684C256.949 140.684 260.252 142.249 262.385 144.984C262.385 143.994 262.406 142.995 262.427 141.996C262.427 141.491 262.848 141.087 263.332 141.087C263.574 141.087 263.815 141.087 264.057 141.087C264.56 141.087 264.962 141.501 264.962 142.006C264.962 149.073 264.962 156.14 264.962 163.195C264.962 163.701 264.56 164.114 264.057 164.114C263.815 164.114 263.574 164.114 263.332 164.114C262.829 164.114 262.427 163.711 262.406 163.206C262.385 162.217 262.385 161.227 262.385 160.228ZM272.895 160.217C272.895 163.7 272.895 167.184 272.895 170.666C272.895 171.171 272.492 171.574 271.989 171.574C271.728 171.574 271.466 171.574 271.204 171.574C270.7 171.574 270.277 171.171 270.277 170.666C270.277 165.891 270.277 161.116 270.277 156.341C270.277 151.566 270.277 146.792 270.277 142.006C270.277 141.501 270.7 141.087 271.204 141.087C271.426 141.087 271.646 141.087 271.868 141.087C272.372 141.087 272.774 141.491 272.774 141.986C272.795 143.016 272.814 144.046 272.835 145.065C274.989 142.299 278.311 140.684 282.015 140.684C288.82 140.684 293.672 145.862 293.672 152.605C293.672 159.339 288.82 164.518 282.015 164.518C278.351 164.518 275.05 162.923 272.895 160.217ZM253.286 161.914C258.641 161.914 262.346 157.906 262.346 152.605C262.346 147.296 258.641 143.288 253.286 143.288C248.011 143.288 244.167 147.387 244.167 152.605C244.167 157.835 247.992 161.914 253.286 161.914ZM281.974 161.914C287.35 161.914 291.053 157.906 291.053 152.605C291.053 147.296 287.35 143.288 281.974 143.288C276.7 143.288 272.875 147.366 272.875 152.605C272.875 157.825 276.7 161.914 281.974 161.914Z" fill="white"/>
</svg>
