<svg width="57" height="57" viewBox="0 0 57 57" fill="none" xmlns="http://www.w3.org/2000/svg">
<path d="M42.3928 42.3973C50.0311 34.759 50.0297 22.3734 42.3896 14.7333C34.7496 7.09324 22.364 7.09182 14.7257 14.7301C7.08735 22.3685 7.08876 34.754 14.7288 42.3941C22.3689 50.0342 34.7545 50.0356 42.3928 42.3973Z" fill="url(#paint0_linear)"/>
<path d="M34.4858 39.7873L21.2468 36.2383C17.9492 35.3543 15.9964 31.972 16.8796 28.6742C17.7629 25.3763 21.1445 23.424 24.4421 24.308L25.7514 24.6589L26.1671 23.107C27.0504 19.8092 30.432 17.8568 33.7296 18.7408C37.0272 19.6248 38.98 23.0072 38.0968 26.305L34.4858 39.7873Z" fill="white"/>
<defs>
<linearGradient id="paint0_linear" x1="14.7076" y1="42.3921" x2="42.369" y2="14.7307" gradientUnits="userSpaceOnUse">
<stop stop-color="#FC727C"/>
<stop offset="1" stop-color="#FA3A54"/>
</linearGradient>
</defs>
</svg>
