<svg width="57" height="58" viewBox="0 0 57 58" fill="none" xmlns="http://www.w3.org/2000/svg">
<path d="M37.6061 10.4042L10.8672 34.1384L26.2585 51.5104L52.9974 27.7762L37.6061 10.4042Z" fill="#A94C2F"/>
<path d="M37.5923 10.4066L10.875 34.1328L14.1311 13.7271C14.3566 12.3143 15.5483 11.2572 16.978 11.2021L37.5923 10.4066Z" fill="#FF6231"/>
<path d="M31.3711 11.6305L12.9626 27.9704C12.1365 28.7037 12.0606 29.9683 12.7931 30.7951L26.1451 45.8653C26.8776 46.6921 28.1411 46.7679 28.9672 46.0346L47.3757 29.6947C48.2018 28.9614 48.2776 27.6968 47.5451 26.87L34.1931 11.7998C33.4606 10.973 32.1971 10.8972 31.3711 11.6305Z" fill="white"/>
<g filter="url(#filter0_d)">
<path d="M10.8751 34.1328L26.2642 51.5034L32.458 31.5885L10.8751 34.1328Z" fill="url(#paint0_linear)"/>
</g>
<g filter="url(#filter1_d)">
<path d="M37.5921 10.4064L52.9812 27.777L32.4726 31.5625L37.5921 10.4064Z" fill="url(#paint1_linear)"/>
</g>
<path d="M52.9815 27.7772L26.2642 51.5034L29.5203 31.0977C29.7457 29.6849 30.9375 28.6279 32.3671 28.5727L52.9815 27.7772Z" fill="#FF6231"/>
<defs>
<filter id="filter0_d" x="9.875" y="28.5886" width="25.5829" height="23.9148" filterUnits="userSpaceOnUse" color-interpolation-filters="sRGB">
<feFlood flood-opacity="0" result="BackgroundImageFix"/>
<feColorMatrix in="SourceAlpha" type="matrix" values="0 0 0 0 0 0 0 0 0 0 0 0 0 0 0 0 0 0 127 0"/>
<feOffset dx="1" dy="-1"/>
<feGaussianBlur stdDeviation="1"/>
<feColorMatrix type="matrix" values="0 0 0 0 0 0 0 0 0 0 0 0 0 0 0 0 0 0 0.4 0"/>
<feBlend mode="normal" in2="BackgroundImageFix" result="effect1_dropShadow"/>
<feBlend mode="normal" in="SourceGraphic" in2="effect1_dropShadow" result="shape"/>
</filter>
<filter id="filter1_d" x="30.4727" y="7.40649" width="24.5086" height="25.1561" filterUnits="userSpaceOnUse" color-interpolation-filters="sRGB">
<feFlood flood-opacity="0" result="BackgroundImageFix"/>
<feColorMatrix in="SourceAlpha" type="matrix" values="0 0 0 0 0 0 0 0 0 0 0 0 0 0 0 0 0 0 127 0"/>
<feOffset dy="-1"/>
<feGaussianBlur stdDeviation="1"/>
<feColorMatrix type="matrix" values="0 0 0 0 0 0 0 0 0 0 0 0 0 0 0 0 0 0 0.4 0"/>
<feBlend mode="normal" in2="BackgroundImageFix" result="effect1_dropShadow"/>
<feBlend mode="normal" in="SourceGraphic" in2="effect1_dropShadow" result="shape"/>
</filter>
<linearGradient id="paint0_linear" x1="26.9043" y1="28.3821" x2="16.7324" y2="46.0002" gradientUnits="userSpaceOnUse">
<stop stop-color="#FFA979"/>
<stop offset="1" stop-color="#F99373"/>
</linearGradient>
<linearGradient id="paint1_linear" x1="47.1238" y1="15.9096" x2="36.6831" y2="33.9934" gradientUnits="userSpaceOnUse">
<stop stop-color="#FFA979"/>
<stop offset="1" stop-color="#F99373"/>
</linearGradient>
</defs>
</svg>
