<svg width="1918" height="1135" viewBox="0 0 1918 1135" fill="none" xmlns="http://www.w3.org/2000/svg">
<path d="M1921 106.847C1921 106.847 1911.36 3.79525 1850.97 0.826519C1757.03 -3.79192 1755.65 157.26 1668.9 189.704C1564.22 228.856 1575.17 -72.8793 1522.85 16.8632C1468.83 109.52 1479.84 239.681 1396.8 159.412C1232.74 0.826813 1146.02 180.872 1022.66 171.885C941.67 165.985 889.467 49.2293 836.586 104.174C782.565 160.303 755.14 240.823 688.529 241.377C569.866 242.364 479.449 203.958 402.42 203.958C297.92 203.958 396.418 348.289 180.335 348.289C-14.7267 348.289 0.266235 534.492 0.266235 534.492V1042.32C0.266235 1042.32 160.023 1135.45 274.371 1134.09C429.137 1132.24 471.017 908.853 616.502 955.902C686.214 978.446 691.699 1039.56 758.556 1068.16C915.723 1135.38 1019.28 940.125 1190.72 968.375C1292.46 985.14 1327.97 1058.08 1430.81 1068.16C1515.97 1076.51 1574.87 838.299 1637.36 973.72C1665.83 1035.41 1737.6 855.693 1800.95 884.628C1861.69 912.367 1921 997.775 1921 997.775V106.847Z" fill="url(#paint0_linear)"/>
<defs>
<linearGradient id="paint0_linear" x1="961" y1="136.5" x2="961" y2="1401.5" gradientUnits="userSpaceOnUse">
<stop stop-color="#793BC8"/>
<stop offset="1" stop-color="#2A2895"/>
</linearGradient>
</defs>
</svg>
