<svg width="1907" height="535" viewBox="0 0 1907 535" fill="none" xmlns="http://www.w3.org/2000/svg">
<path d="M1851.9 0.724225C1912.29 3.69295 1921.93 106.745 1921.93 106.745V534.39H1.19739C1.19739 534.39 -13.7957 348.186 181.266 348.186C397.349 348.186 298.851 203.856 403.351 203.856C480.38 203.856 570.797 242.262 689.46 241.275C756.072 240.721 783.496 160.2 837.517 104.072C890.398 49.127 942.601 165.883 1023.59 171.782C1146.96 180.769 1233.67 0.724518 1397.73 159.31C1480.77 239.579 1469.76 109.418 1523.78 16.761C1576.1 -72.9816 1565.15 228.754 1669.83 189.601C1756.58 157.158 1757.96 -3.89422 1851.9 0.724225Z" fill="#743BC5"/>
</svg>
