<svg width="49" height="49" viewBox="0 0 49 49" fill="none" xmlns="http://www.w3.org/2000/svg">
<path d="M19.4763 43.8122C30.2327 46.4408 41.0856 39.8491 43.7169 29.0892C46.3483 18.3292 39.7616 7.47561 29.0052 4.84697C18.2488 2.21833 7.39592 8.81007 4.76457 19.57C2.13321 30.33 8.71986 41.1836 19.4763 43.8122Z" fill="url(#paint0_linear)"/>
<g clip-path="url(#clip0)">
<path d="M20.5971 31.9346C22.3002 31.9346 23.8157 31.5915 25.134 30.9998C25.3968 30.8819 26.0257 31.4312 26.0257 31.4312C26.0257 31.4312 26.4329 30.3047 26.6855 30.1328C29.7876 28.0229 31.4309 24.3965 31.4309 21.1009C31.4309 20.9361 31.4275 20.772 31.4201 20.6088C32.1635 20.0712 32.8096 19.4005 33.3194 18.637C32.6372 18.9404 31.4148 19.1313 30.6447 19.2236C31.4308 18.752 32.5225 18.0194 32.8071 17.1305C32.0714 17.5666 31.2566 17.8835 30.3893 18.0547C29.6945 17.3146 28.1108 16.9141 27.0155 16.9141C24.9128 16.9141 23.8019 18.5569 23.8019 20.6588C23.8019 20.9578 23.8354 21.2483 23.9006 21.5271C20.736 21.3678 17.9298 19.8528 16.052 17.5488C14.7605 21.1009 17.4784 21.8825 19.427 23.1828C18.8023 23.1636 16.0194 22.4414 15.5064 22.1559C15.5058 22.1719 15.5058 22.1875 15.5058 22.2045C15.5058 24.0486 18.7671 26.3607 20.7467 25.8223C20.4266 25.9094 17.904 26.0711 17.5567 26.0711C17.3118 26.0711 15.6997 26.1968 15.4677 26.1522C15.9525 27.6651 18.7671 29.1217 20.3981 28.6471C19.0948 29.6686 17.4531 30.277 15.6688 30.277C15.3619 30.277 15.0585 30.2594 14.7605 30.2242C16.4457 31.3044 18.4466 31.9346 20.5971 31.9346Z" fill="white"/>
</g>
<defs>
<linearGradient id="paint0_linear" x1="27.0541" y1="9.68183" x2="17.8933" y2="57.2721" gradientUnits="userSpaceOnUse">
<stop stop-color="#AE8DEF"/>
<stop offset="0.9985" stop-color="#7546D9"/>
</linearGradient>
<clipPath id="clip0">
<rect width="19.7961" height="19.7961" fill="white" transform="translate(14.1479 14.6045)"/>
</clipPath>
</defs>
</svg>
