<svg width="1920" height="242" viewBox="0 0 1920 242" fill="none" xmlns="http://www.w3.org/2000/svg">
<path d="M0 0H1920V180.868C1920 180.868 1842.33 239.705 1790 241.918C1691.72 246.074 1652.36 90.638 1554 89.8094C1453.44 88.9623 1412.56 180.437 1312 180.868C1203.07 181.335 1160.66 46.694 1052 54.6278C959.817 61.3587 930.221 174.713 838 180.868C772.806 185.219 731.054 122.912 666 116.713C545.54 105.234 486.875 185.815 366 180.868C277.648 177.252 205.124 95.7605 117 103.261C60.2594 108.091 0 180.868 0 180.868L0 0Z" fill="#753BC5"/>
</svg>
