<svg width="1920" height="233" viewBox="0 0 1920 233" fill="none" xmlns="http://www.w3.org/2000/svg">
<path opacity="0.2" d="M-6.00024 0H1944.82V182.831C1944.82 182.831 1842.54 225.86 1789.37 228.064C1689.51 232.205 1649.52 107.364 1549.58 106.539C1447.41 105.695 1352.02 227.635 1249.84 228.064C1139.17 228.529 1149.36 111.317 1070 106.539C983.446 101.327 976.524 195.202 898.288 228.064C836.956 253.826 781.441 164.821 685.932 155.896C563.538 144.459 415.535 204.255 292.72 199.326C202.949 195.723 181.08 153.707 91.5409 161.18C33.8894 165.992 -6.00024 182.831 -6.00024 182.831V0Z" fill="url(#paint0_linear)"/>
<defs>
<linearGradient id="paint0_linear" x1="-6.00033" y1="-611.018" x2="1701.6" y2="590.7" gradientUnits="userSpaceOnUse">
<stop stop-color="#793BC8"/>
<stop offset="1" stop-color="#2A2895"/>
</linearGradient>
</defs>
</svg>
