<svg width="1920" height="255" viewBox="0 0 1920 255" fill="none" xmlns="http://www.w3.org/2000/svg">
<path opacity="0.1" d="M-6.00024 0.5H1944.82V209.574C1944.82 209.574 1842.54 252.603 1789.37 254.808C1689.51 258.948 1649.52 134.108 1549.58 133.282C1447.41 132.438 1444.48 246.26 1342.3 246.689C1231.63 247.154 1188.53 113.006 1078.13 120.91C984.466 127.617 991.989 248.675 898.288 254.808C832.047 259.143 765.24 188.816 699.141 182.64C576.747 171.203 415.535 230.999 292.72 226.069C202.949 222.467 181.08 180.45 91.5409 187.924C33.8894 192.735 -6.00024 209.574 -6.00024 209.574V0.5Z" fill="url(#paint0_linear)"/>
<defs>
<linearGradient id="paint0_linear" x1="-5.99924" y1="-584.276" x2="1701.6" y2="617.443" gradientUnits="userSpaceOnUse">
<stop stop-color="#2A2895"/>
<stop offset="1" stop-color="#793BC8"/>
</linearGradient>
</defs>
</svg>
