<svg width="63" height="60" viewBox="0 0 63 60" fill="none" xmlns="http://www.w3.org/2000/svg">
<mask id="mask0" mask-type="alpha" maskUnits="userSpaceOnUse" x="0" y="0" width="63" height="60">
<rect width="63" height="60" fill="white"/>
</mask>
<g mask="url(#mask0)">
<path d="M7.875 32.0456C7.875 34.1167 6.11211 35.7956 3.9375 35.7956C1.76289 35.7956 0 34.1167 0 32.0456V27.9546C0 25.8835 1.76289 24.2046 3.9375 24.2046C6.11211 24.2046 7.875 25.8835 7.875 27.9546V32.0456Z" fill="#0066D9"/>
<path d="M55.125 27.9546C55.125 25.8835 56.8879 24.2046 59.0625 24.2046C61.2371 24.2046 63 25.8835 63 27.9546C63 27.9902 62.9995 28.0258 62.9984 28.0612H63V32.1521H62.9984C62.9393 34.1739 61.1997 35.7955 59.0625 35.7955C56.9253 35.7955 55.1858 34.1739 55.1266 32.1521H55.125V28.0611H55.1266V28.0612C55.1255 28.0257 55.125 27.9901 55.125 27.9546Z" fill="#4285F4"/>
<path fill-rule="evenodd" clip-rule="evenodd" d="M21.4775 44.3181C21.4775 46.3891 19.7148 48.0681 17.54 48.0681C15.3653 48.0681 13.6025 46.3891 13.6025 44.3181V40.227C13.6025 38.1561 15.3654 36.477 17.54 36.477C19.7146 36.477 21.4775 38.1561 21.4775 40.227V40.2272V44.3181ZM21.4775 29.0623H21.4766C21.4291 31.094 19.6847 32.7272 17.54 32.7272C15.3953 32.7272 13.6511 31.094 13.6036 29.0623H13.6025V15.6816C13.6025 13.6106 15.3654 11.9316 17.54 11.9316C19.7146 11.9316 21.4775 13.6106 21.4775 15.6816V29.0623Z" fill="#EA4335"/>
<path d="M45.46 23.5225C47.6347 23.5225 49.3975 21.8436 49.3975 19.7725V15.6816C49.3975 13.6106 47.6346 11.9316 45.46 11.9316C43.2854 11.9316 41.5225 13.6106 41.5225 15.6816V19.7725C41.5225 21.8436 43.2852 23.5225 45.46 23.5225Z" fill="#34A853"/>
<path fill-rule="evenodd" clip-rule="evenodd" d="M31.5 11.591C33.6746 11.591 35.4375 9.91195 35.4375 7.84102V3.75C35.4375 1.67895 33.6746 0 31.5 0C29.3254 0 27.5625 1.67895 27.5625 3.75V7.84102C27.5625 9.91195 29.3254 11.591 31.5 11.591ZM31.5 48.409C33.6746 48.409 35.4375 50.088 35.4375 52.159V56.25C35.4375 58.3211 33.6746 60 31.5 60C29.3254 60 27.5625 58.3211 27.5625 56.25V52.159C27.5625 50.088 29.3254 48.409 31.5 48.409Z" fill="#FAB908"/>
<path d="M45.46 27.2727C47.6347 27.2727 49.3975 28.9516 49.3975 31.0227V44.3182C49.3975 46.3893 47.6346 48.0682 45.46 48.0682C43.2854 48.0682 41.5225 46.3893 41.5225 44.3182V31.0227C41.5225 28.9516 43.2852 27.2727 45.46 27.2727Z" fill="#34A853"/>
<path d="M35.4375 40.9088C35.4375 42.98 33.6746 44.6588 31.5 44.6588C29.3254 44.6588 27.5625 42.98 27.5625 40.9088V19.0908C27.5625 17.0196 29.3254 15.3408 31.5 15.3408C33.6746 15.3408 35.4375 17.0196 35.4375 19.0908V40.9088Z" fill="#FAB908"/>
</g>
</svg>
