<svg width="86" height="26" viewBox="0 0 86 26" fill="none" xmlns="http://www.w3.org/2000/svg">
<mask id="mask0" mask-type="alpha" maskUnits="userSpaceOnUse" x="0" y="0" width="86" height="26">
<rect width="86" height="26" fill="white"/>
</mask>
<g mask="url(#mask0)">
<path fill-rule="evenodd" clip-rule="evenodd" d="M77.6037 18.7931V19.5573C77.9425 18.9686 78.6761 18.594 79.4088 18.594C80.3737 18.594 81.0686 18.9812 81.4057 19.6387C81.9338 18.8871 82.5891 18.594 83.499 18.594C84.7752 18.594 85.9999 19.3297 85.9999 21.1386V25.4493H84.0004V21.5913C84.0004 20.9639 83.6624 20.4676 82.9262 20.4676C82.1952 20.4676 81.8013 21.0168 81.8013 21.6055V25.4493H79.7631V21.5913C79.7631 20.9639 79.4243 20.4676 78.6761 20.4676C77.9537 20.4676 77.5607 21.0168 77.5607 21.6181V25.4493H75.4958V20.5079H73.0328V25.4493H70.9671V20.5079H69.8938V18.7931H70.9671V18.2195C70.9671 16.6927 71.9036 15.6472 73.5471 15.6472C73.9685 15.6472 74.3357 15.7001 74.5257 15.795V17.4561C74.3254 17.4066 74.1191 17.384 73.9126 17.3889C73.5471 17.3889 73.0319 17.5485 73.0319 18.2833L73.0328 18.7931H77.6037ZM26.8318 16.7121C26.8318 21.8398 22.6178 25.9943 17.4148 25.9943C12.2135 25.9943 7.99782 21.8398 7.99782 16.7121C7.99782 11.5843 12.2135 7.43066 17.4148 7.43066C22.6178 7.43066 26.8318 11.5851 26.8318 16.7121ZM21.8894 16.7121C21.8894 14.2767 19.8856 12.3031 17.4148 12.3031C14.9432 12.3031 12.942 14.2767 12.942 16.7121C12.942 19.1475 14.9432 21.121 17.414 21.121H17.4148C19.8856 21.121 21.8894 19.1475 21.8894 16.7121ZM66.4297 16.7121C66.4297 21.839 62.2131 25.9943 57.0127 25.9943C51.8097 25.9943 47.5922 21.839 47.5922 16.7121C47.5922 11.5851 51.8097 7.43066 57.0127 7.43066C62.2131 7.43066 66.4297 11.5851 66.4297 16.7121ZM61.4864 16.7121C61.4864 14.2767 59.4826 12.3031 57.0127 12.3031C54.5419 12.3031 52.5372 14.2767 52.5372 16.7121C52.5372 19.1475 54.541 21.121 57.0127 21.121C59.4826 21.121 61.4864 19.1475 61.4864 16.7121ZM5.96392 7.97569V25.4493H0.54248V7.97569H5.96392ZM28.9019 25.4493V7.97485H34.1479V9.9786C35.1111 8.32588 37.2869 7.518 39.104 7.518C43.564 7.518 45.5601 10.6471 45.5601 14.4774V25.4484H40.1395V15.3944C40.1395 13.6703 39.2115 12.3712 37.249 12.3712C35.4671 12.3712 34.325 13.6703 34.325 15.428L34.3242 25.4493H28.9019ZM68.7766 24.1913C68.7766 24.9261 68.1402 25.5685 67.3809 25.5685C66.6189 25.5685 65.9963 24.9261 65.9963 24.1913C65.9963 23.4405 66.6189 22.8241 67.3809 22.8241C68.1411 22.8241 68.7766 23.4405 68.7766 24.1913Z" fill="#231F20"/>
<path d="M6.15588 3.01378C6.15588 4.66818 4.773 6.01772 3.0444 6.01772C1.38632 6.01856 0 4.66818 0 3.01294C0 1.35939 1.38632 0.00732422 3.0444 0.00732422C4.773 0.00732422 6.15588 1.35939 6.15588 3.01378Z" fill="#E94093"/>
</g>
</svg>
