<svg width="57" height="57" viewBox="0 0 57 57" fill="none" xmlns="http://www.w3.org/2000/svg">
<mask id="mask0" mask-type="alpha" maskUnits="userSpaceOnUse" x="0" y="0" width="57" height="57">
<rect x="0.0576172" y="0.894287" width="56.0481" height="55.2115" fill="white"/>
</mask>
<g mask="url(#mask0)">
<path d="M32.3232 11.7365C32.1931 11.7501 31.8518 11.7938 31.5656 11.8346C31.2794 11.8768 30.8936 11.9416 30.7084 11.9793C30.5232 12.017 30.3059 12.0622 30.2263 12.0788C30.1467 12.0939 30.0258 12.124 29.9584 12.1452C29.8911 12.1648 29.7503 12.2025 29.6446 12.2296C29.539 12.2552 29.4043 12.2944 29.3462 12.314C29.2865 12.3351 29.1212 12.3909 28.9788 12.4392C28.8349 12.4874 28.6222 12.5613 28.5043 12.602C28.3865 12.6427 28.2625 12.6895 28.2288 12.7076C28.1951 12.7241 28.1048 12.7618 28.0298 12.7905C27.9533 12.8191 27.7957 12.887 27.6778 12.9398C27.5599 12.9925 27.3533 13.092 27.2186 13.1614C27.0839 13.2323 26.9293 13.3107 26.8742 13.3363C26.8191 13.3634 26.7058 13.4238 26.6217 13.472C26.5375 13.5187 26.4104 13.5926 26.3385 13.6333C26.2666 13.6756 26.1671 13.7344 26.1166 13.763C26.066 13.7917 25.8977 13.9002 25.7415 14.0027C25.5854 14.1053 25.3926 14.2364 25.313 14.2953C25.2334 14.3525 25.1186 14.434 25.0604 14.4732C25.0007 14.5124 24.863 14.6164 24.7543 14.7024C24.6441 14.7898 24.4864 14.915 24.4022 14.9813C24.3181 15.0491 24.1084 15.2331 23.9354 15.3899C23.7624 15.5467 23.4839 15.8181 23.3155 15.9915C23.1471 16.1649 22.9635 16.3579 22.9084 16.4197C22.8533 16.4815 22.7507 16.6037 22.6803 16.6911C22.6084 16.7786 22.5165 16.8901 22.4737 16.9399C22.4308 16.9897 22.3252 17.1254 22.2364 17.2415C22.1492 17.3576 22.0451 17.4963 22.0068 17.5506C21.9686 17.6048 21.8752 17.736 21.8002 17.8416C21.7007 17.9803 21.6563 18.0315 21.6395 18.0255C21.6272 18.021 21.4986 18.0089 21.3563 17.9984C21.2124 17.9893 20.8787 17.9818 20.6139 17.9803C20.3491 17.9803 20.0247 17.9893 19.8946 17.9999C19.7644 18.0104 19.5884 18.0255 19.5042 18.0346C19.4201 18.0436 19.2547 18.0632 19.1369 18.0783C19.019 18.0949 18.8461 18.1205 18.7542 18.1371C18.6609 18.1537 18.4925 18.1853 18.3792 18.2064C18.266 18.226 18.0134 18.2848 17.8206 18.3361C17.6262 18.3859 17.4578 18.4326 17.4455 18.4386C17.4333 18.4462 17.2741 18.5005 17.0935 18.5608C16.9129 18.6196 16.6404 18.7191 16.4889 18.7794C16.3374 18.8412 16.0787 18.9543 15.9149 19.0327C15.7511 19.1096 15.5307 19.2212 15.4251 19.277C15.3195 19.3343 15.1925 19.4036 15.142 19.4308C15.0914 19.4594 14.9644 19.5333 14.8588 19.5981C14.7532 19.6614 14.6016 19.7579 14.522 19.8107C14.4425 19.8635 14.3185 19.9479 14.2465 19.9992C14.1746 20.049 14.0399 20.1485 13.9481 20.2178C13.8547 20.2887 13.694 20.4184 13.5884 20.5043C13.4828 20.5918 13.293 20.7546 13.1674 20.8677C13.0404 20.9823 12.8491 21.1692 12.7389 21.2838C12.6302 21.3984 12.5093 21.5281 12.471 21.5688C12.4327 21.611 12.3822 21.6683 12.3562 21.697C12.3317 21.7256 12.2414 21.8342 12.1572 21.9382C12.073 22.0422 11.9736 22.1659 11.9353 22.2156C11.897 22.2639 11.8312 22.3528 11.7868 22.4116C11.744 22.4704 11.6567 22.5926 11.594 22.6846C11.5312 22.775 11.4287 22.9288 11.3659 23.0238C11.3031 23.1188 11.2067 23.2756 11.1516 23.3706C11.0965 23.4656 10.994 23.6556 10.9235 23.7928C10.8531 23.93 10.7735 24.0883 10.7491 24.1441L10.7031 24.2466C10.5011 24.2451 10.3496 24.2526 10.2363 24.2602C10.123 24.2692 9.83986 24.3009 9.60873 24.3295C9.37761 24.3582 9.02863 24.4125 8.83577 24.4502C8.64138 24.4879 8.37046 24.5497 8.23117 24.5859C8.09188 24.6221 7.90208 24.6733 7.81025 24.6974C7.71688 24.7231 7.5179 24.7849 7.36636 24.8362C7.21483 24.8859 6.98677 24.9673 6.86126 25.0171C6.73421 25.0669 6.54901 25.1453 6.44799 25.1905C6.34697 25.2372 6.17094 25.3202 6.05768 25.3759C5.94441 25.4317 5.71635 25.5508 5.55257 25.6398C5.38879 25.7288 5.15461 25.8645 5.03216 25.9429C4.90971 26.0198 4.74746 26.1253 4.6694 26.1781C4.59287 26.2309 4.4245 26.3515 4.29439 26.448C4.16582 26.5445 3.96378 26.7028 3.84592 26.7993C3.72806 26.8958 3.5 27.0978 3.34081 27.2501C3.1801 27.4009 2.97346 27.606 2.88009 27.7055C2.78673 27.805 2.65509 27.9512 2.58928 28.0296C2.52193 28.108 2.4255 28.2241 2.37499 28.286C2.32295 28.3478 2.22652 28.4699 2.1607 28.5574C2.09335 28.6448 1.96019 28.8348 1.86223 28.9795C1.76427 29.1243 1.64641 29.3037 1.60049 29.3791C1.55304 29.453 1.46273 29.6023 1.39998 29.7108C1.33722 29.8179 1.23773 30.0018 1.17957 30.1179C1.11987 30.234 1.0311 30.421 0.980586 30.5326C0.928544 30.6441 0.856605 30.81 0.818339 30.902C0.780073 30.9924 0.717318 31.1523 0.680583 31.2563C0.642317 31.3603 0.571908 31.5639 0.524459 31.7086C0.477009 31.8534 0.403539 32.1112 0.360681 32.2816C0.319355 32.452 0.271905 32.651 0.256599 32.7264C0.241293 32.8003 0.207619 32.9902 0.181598 33.1486C0.155577 33.3054 0.128026 33.4954 0.118842 33.5707C0.109659 33.6446 0.091291 33.818 0.0805766 33.9552C0.0652703 34.1151 0.0576172 34.4166 0.0576172 34.7996C0.0576172 35.1268 0.0652703 35.469 0.0729235 35.561C0.0821073 35.6515 0.103536 35.8415 0.120373 35.9832C0.13721 36.1234 0.172414 36.3586 0.196904 36.5034C0.222925 36.6481 0.265783 36.8652 0.294865 36.9859C0.322416 37.1065 0.371396 37.3025 0.402008 37.4231C0.432621 37.5438 0.484662 37.7292 0.518336 37.8378C0.553541 37.9448 0.645378 38.2027 0.72344 38.4107C0.803033 38.6173 0.905585 38.8721 0.953034 38.9761C1.00048 39.0802 1.11834 39.3169 1.21477 39.5039C1.31273 39.6908 1.44743 39.9351 1.51477 40.0467C1.58212 40.1582 1.70457 40.3482 1.7857 40.4689C1.86682 40.5895 1.98468 40.7583 2.04743 40.8458C2.11019 40.9332 2.1959 41.0478 2.23876 41.1021C2.28009 41.1564 2.39642 41.2981 2.49744 41.4188C2.59846 41.5394 2.78213 41.7459 2.90458 41.8786C3.02703 42.0113 3.14795 42.1349 3.17244 42.153C3.19847 42.1711 3.28724 42.2541 3.37143 42.3385C3.45561 42.4229 3.60255 42.5571 3.69898 42.637C3.79388 42.717 3.95 42.8436 4.0449 42.919C4.1398 42.9929 4.31582 43.1256 4.43674 43.213C4.55766 43.3005 4.76124 43.4392 4.88828 43.5221C5.01685 43.605 5.22655 43.7332 5.35665 43.8086C5.48522 43.8825 5.68727 43.994 5.80512 44.0559C5.92298 44.1177 6.14339 44.2247 6.29492 44.2941C6.44646 44.365 6.6286 44.4449 6.70054 44.475C6.77248 44.5037 6.86432 44.5399 6.90718 44.5549C6.9485 44.57 7.0633 44.6122 7.15973 44.6499C7.25616 44.6861 7.47351 44.7585 7.64188 44.8098C7.81025 44.8625 8.06892 44.9349 8.21586 44.9711C8.3628 45.0088 8.54495 45.051 8.62148 45.0676C8.69648 45.0842 8.8725 45.1173 9.01179 45.1415C9.15108 45.1656 9.36383 45.2003 9.48628 45.2184C9.60873 45.2365 9.85976 45.2606 10.045 45.2726C10.2302 45.2847 10.547 45.2983 10.7491 45.3043C10.9511 45.3088 12.5276 45.3043 14.2542 45.2953C15.9792 45.2862 19.2655 45.2681 21.5553 45.2561C23.8451 45.244 29.6094 45.2138 34.3666 45.1882C39.1223 45.1641 43.2351 45.1415 43.5045 45.1369C43.7922 45.1339 44.0922 45.1204 44.2315 45.1068C44.3616 45.0932 44.582 45.0691 44.7213 45.051C44.8606 45.0329 45.0489 45.0073 45.1423 44.9907C45.2341 44.9756 45.4071 44.9455 45.5249 44.9243C45.6428 44.9017 45.9106 44.8414 46.1219 44.7886C46.3316 44.7359 46.5979 44.6605 46.7111 44.6213C46.8244 44.5821 46.9836 44.5293 47.0632 44.5022C47.1428 44.475 47.2744 44.4283 47.354 44.3981C47.4336 44.368 47.5851 44.3077 47.6907 44.2639C47.7948 44.2202 48.0566 44.0996 48.2724 43.994C48.4867 43.8885 48.7622 43.7438 48.8846 43.6729C49.0071 43.6005 49.1724 43.501 49.252 43.4497C49.3316 43.3985 49.477 43.3065 49.5734 43.2447C49.6698 43.1813 49.8459 43.0592 49.9637 42.9718C50.0816 42.8843 50.2331 42.7697 50.3005 42.717C50.3678 42.6642 50.4566 42.5888 50.4995 42.5496C50.5408 42.5089 50.6234 42.438 50.6831 42.3898C50.7413 42.34 50.9265 42.1681 51.0933 42.0068C51.2602 41.8455 51.4714 41.6313 51.5617 41.5318C51.652 41.4323 51.776 41.2861 51.8387 41.2077C51.9 41.1293 51.9826 41.0267 52.0224 40.9815C52.0622 40.9363 52.1587 40.8096 52.2367 40.7026C52.3163 40.594 52.4403 40.4146 52.5153 40.303C52.5888 40.1914 52.7112 39.9969 52.7862 39.8733C52.8612 39.7481 52.9485 39.6034 52.9775 39.5491C53.0081 39.4948 53.0816 39.3531 53.1413 39.2325C53.201 39.1118 53.2852 38.9384 53.3265 38.848C53.3678 38.756 53.4658 38.5223 53.5454 38.3278C53.6235 38.1333 53.7291 37.8408 53.7796 37.6795C53.8301 37.5181 53.8929 37.307 53.9173 37.212C53.9434 37.1171 53.9923 36.909 54.026 36.7522C54.0597 36.5938 54.098 36.3948 54.1117 36.3074C54.1255 36.2199 54.1469 36.0812 54.1592 35.9983C54.1714 35.9153 54.1959 35.7223 54.2128 35.5686C54.2296 35.4117 54.248 35.1268 54.2526 34.9202C54.2571 34.7121 54.2541 34.3865 54.2434 34.1739C54.2326 33.9658 54.2082 33.6476 54.1883 33.4652C54.1668 33.2828 54.1301 33.0114 54.1041 32.8621C54.0781 32.7128 54.0383 32.5093 54.0138 32.4098C53.9877 32.3102 53.9403 32.1127 53.9051 31.9725C53.8699 31.8308 53.8041 31.6076 53.7597 31.4749C53.7153 31.3422 53.6281 31.104 53.5684 30.9472C53.5087 30.7889 53.4398 30.617 53.4153 30.5627C53.3908 30.5084 53.2883 30.2943 53.1857 30.0878C53.0832 29.8797 52.9209 29.5812 52.8245 29.4243C52.728 29.266 52.6056 29.073 52.5536 28.9946C52.5015 28.9147 52.3852 28.7489 52.2964 28.6252C52.2061 28.5001 52.0347 28.2769 51.9138 28.1276C51.7928 27.9784 51.6153 27.7718 51.5188 27.6678C51.4224 27.5637 51.2296 27.3692 51.0903 27.2335C50.951 27.0978 50.7704 26.9305 50.6908 26.8626C50.6112 26.7933 50.4795 26.6847 50.3984 26.6184C50.3188 26.5535 50.201 26.46 50.1382 26.4133C50.0755 26.3666 49.9806 26.2942 49.9255 26.2535C49.8704 26.2128 49.7357 26.1193 49.627 26.0454C49.5168 25.9715 49.3561 25.866 49.2673 25.8117C49.1785 25.7559 49.0545 25.6805 48.9918 25.6428C48.8753 25.5764 48.758 25.5116 48.6397 25.4483C48.5096 25.3775 48.3198 25.2794 48.2173 25.2312C48.1163 25.1814 47.9632 25.1121 47.879 25.0744L47.7244 25.0065C47.7137 24.5617 47.703 24.3522 47.6938 24.2526C47.6831 24.1531 47.6678 24.0008 47.6586 23.9134C47.6494 23.8259 47.6249 23.639 47.605 23.4988C47.5851 23.357 47.5545 23.158 47.5392 23.054C47.5224 22.9499 47.4979 22.8172 47.4856 22.7599C47.4734 22.7011 47.4275 22.5081 47.3846 22.3302C47.3418 22.1523 47.2928 21.9442 47.2759 21.8704C47.2576 21.795 47.1964 21.5884 47.1367 21.4105C47.0785 21.2326 46.9912 20.9747 46.9453 20.8375C46.8979 20.7003 46.8367 20.5345 46.8076 20.4681C46.7785 20.4018 46.7341 20.2962 46.7111 20.2344C46.6867 20.1726 46.6377 20.0505 46.5994 19.963C46.5627 19.8756 46.4234 19.5936 46.2918 19.3373C46.1601 19.0794 45.9902 18.7643 45.9137 18.6362C45.8372 18.508 45.7499 18.3617 45.7193 18.312C45.6887 18.2622 45.5616 18.0692 45.4361 17.8823C45.3091 17.6953 45.1667 17.4918 45.1178 17.4299C45.0688 17.3681 44.957 17.2219 44.8667 17.1058C44.778 16.9897 44.6662 16.8464 44.6172 16.7891C44.5698 16.7303 44.4443 16.5841 44.3402 16.465C44.2361 16.3443 43.9392 16.0398 43.682 15.7864C43.4234 15.5331 43.157 15.2783 43.0897 15.221C43.0223 15.1622 42.906 15.0642 42.831 15.0024C42.7478 14.9328 42.6631 14.8649 42.5769 14.7989C42.5126 14.7491 42.4009 14.6632 42.3305 14.6089C42.2601 14.5531 42.1239 14.4521 42.0274 14.3827C41.931 14.3133 41.6953 14.155 41.504 14.0299C41.3126 13.9047 41.1244 13.7841 41.083 13.7615C41.0432 13.7389 40.9437 13.6816 40.8642 13.6348C40.7846 13.5896 40.6284 13.5022 40.5198 13.4418C40.4096 13.3815 40.258 13.3016 40.183 13.2639C40.1065 13.2277 40.0101 13.1765 39.9687 13.1524C39.9259 13.1282 39.8509 13.092 39.8004 13.0724C39.7499 13.0528 39.6641 13.0151 39.609 12.988C39.5539 12.9624 39.4468 12.9141 39.3718 12.884C39.2953 12.8538 39.1345 12.7875 39.0121 12.7377C38.8896 12.6864 38.6968 12.6141 38.5835 12.5734C38.4702 12.5342 38.308 12.4784 38.2238 12.4482C38.1396 12.4196 37.9606 12.3623 37.8259 12.3201C37.6912 12.2778 37.4493 12.21 37.2901 12.1678C37.1294 12.1256 36.8233 12.0547 36.609 12.011C36.3947 11.9657 36.1667 11.919 36.1039 11.9054C36.0411 11.8934 35.8927 11.8692 35.7748 11.8526C35.657 11.8346 35.4672 11.8104 35.3539 11.7984C35.2406 11.7848 35.0615 11.7652 34.9559 11.7531C34.8503 11.7411 34.6238 11.7245 34.4508 11.7169C34.2779 11.7079 33.9304 11.6973 33.6779 11.6943C33.4253 11.6913 33.0702 11.6928 32.8896 11.7004C32.709 11.7079 32.4534 11.7245 32.3232 11.7365Z" fill="#FDFDFD"/>
<path d="M32.4762 13.0876C32.3798 13.0967 32.0828 13.1359 31.818 13.1721C31.5532 13.2083 31.1491 13.2761 30.9226 13.3213C30.6945 13.3666 30.4573 13.4194 30.3945 13.4359C30.3318 13.454 30.1803 13.4947 30.0578 13.5264C29.9354 13.5581 29.7593 13.6108 29.6675 13.644C29.5741 13.6772 29.4165 13.7315 29.3154 13.7661L28.9481 13.8928C28.8471 13.929 28.668 13.9983 28.5501 14.0481C28.4323 14.0979 28.2731 14.1657 28.1981 14.2004C28.1216 14.2336 27.9838 14.2999 27.892 14.3466C27.7986 14.3949 27.6409 14.4763 27.5399 14.5276C27.3476 14.6258 27.1587 14.7304 26.9736 14.8412C26.8101 14.9352 26.6493 15.0337 26.4914 15.1367C26.4118 15.1895 26.2833 15.2769 26.2083 15.3312C26.1317 15.3855 26.0154 15.4699 25.9481 15.5182C25.8807 15.5664 25.7812 15.6373 25.7277 15.678C25.6726 15.7172 25.5425 15.8197 25.4368 15.9042C25.3297 15.9901 25.2134 16.0851 25.1751 16.1153C25.1384 16.1469 25.022 16.2495 24.918 16.3444C24.8139 16.4394 24.6455 16.5993 24.543 16.7003C24.4404 16.7998 24.2843 16.9566 24.1955 17.0471C24.1083 17.1375 23.998 17.2551 23.9506 17.3094C23.9031 17.3637 23.7929 17.4949 23.7042 17.6004C23.6169 17.706 23.519 17.8251 23.4883 17.8643C23.4562 17.9035 23.3705 18.0166 23.2955 18.1161C23.222 18.2156 23.1149 18.3619 23.0598 18.4403C23.0031 18.5187 22.9434 18.6001 22.9281 18.6212C22.9113 18.6423 22.8623 18.7162 22.8179 18.7871C22.7735 18.8579 22.6878 18.9966 22.6266 19.0962C22.5669 19.1957 22.4996 19.3072 22.4781 19.3449C22.4567 19.3826 22.42 19.4279 22.3955 19.4475C22.3603 19.4746 22.3327 19.4806 22.2669 19.4806C22.221 19.4791 22.1475 19.4731 22.1062 19.464C22.0633 19.4565 21.8843 19.4309 21.7082 19.4068C21.5307 19.3826 21.2322 19.3555 21.0424 19.3449C20.8526 19.3344 20.5802 19.3299 20.4378 19.3329C20.2939 19.3374 20.0842 19.3495 19.971 19.3585C19.8577 19.3676 19.6924 19.3826 19.6036 19.3917C19.5148 19.4007 19.3572 19.4203 19.2516 19.4354C19.146 19.4505 18.9424 19.4837 18.8 19.5093C18.6562 19.5334 18.4434 19.5786 18.3255 19.6088C18.2077 19.639 18.076 19.6736 18.0347 19.6842C17.9919 19.6947 17.7898 19.7611 17.5832 19.8319C17.3766 19.9013 17.0949 20.0038 16.9556 20.0596C16.8163 20.1154 16.5546 20.2345 16.374 20.3235C16.1934 20.4124 15.9546 20.5361 15.8459 20.5994C15.7357 20.6627 15.6087 20.7366 15.5628 20.7653C15.5168 20.7939 15.4097 20.8603 15.3255 20.9145C15.2413 20.9688 15.1173 21.0533 15.0485 21.103C14.9811 21.1513 14.8709 21.2327 14.8036 21.2809C14.7377 21.3307 14.5923 21.4453 14.4837 21.5373C14.3735 21.6277 14.2158 21.7649 14.1316 21.8388C14.0474 21.9142 13.9342 22.0212 13.8791 22.0755C13.824 22.1298 13.7092 22.2489 13.625 22.3394C13.5393 22.4299 13.4321 22.5475 13.3877 22.6002C13.3418 22.653 13.2607 22.7525 13.2056 22.8189C13.1505 22.8867 13.0541 23.0088 12.9913 23.0918C12.9301 23.1747 12.8535 23.2757 12.8229 23.3179C12.7908 23.3587 12.7188 23.4642 12.6622 23.5516C12.6056 23.6391 12.5336 23.7477 12.5015 23.7929C12.4709 23.8381 12.4188 23.9226 12.3867 23.9814C12.3546 24.0387 12.3163 24.1035 12.3025 24.1246C12.2887 24.1457 12.2352 24.2437 12.1831 24.3432C12.1326 24.4427 12.0484 24.6116 11.9995 24.7202C11.9489 24.8272 11.8586 25.0383 11.7974 25.1876C11.7377 25.3369 11.6734 25.4891 11.6551 25.5253C11.6367 25.563 11.6 25.6052 11.5755 25.6203C11.5494 25.6354 11.5005 25.6475 11.4607 25.6475C11.4224 25.6475 11.3091 25.6369 11.2081 25.6248C11.1071 25.6128 10.9173 25.6022 10.7872 25.6022C10.6571 25.6022 10.4535 25.6098 10.3357 25.6173C10.2178 25.6264 10.0724 25.6399 10.0142 25.649C9.95454 25.6565 9.79535 25.6776 9.65759 25.6942C9.52137 25.7093 9.27341 25.75 9.10657 25.7817C8.94126 25.8148 8.71473 25.8646 8.60605 25.8932C8.49585 25.9219 8.32135 25.9701 8.21574 25.9988C8.11013 26.0274 7.90043 26.0938 7.7489 26.1435C7.59737 26.1948 7.43512 26.2521 7.3892 26.2717C7.34328 26.2913 7.24992 26.329 7.18257 26.3561C7.11522 26.3848 6.94685 26.4602 6.80756 26.5265C6.66828 26.5928 6.43409 26.7105 6.28715 26.7904C6.14021 26.8688 5.9749 26.9607 5.9198 26.9939C5.8647 27.0271 5.71316 27.1236 5.58306 27.2095C5.45296 27.2955 5.24938 27.4372 5.13153 27.5262C5.01367 27.6136 4.81775 27.7689 4.6953 27.8699C4.57285 27.9695 4.36009 28.164 4.21927 28.3012C4.07998 28.4384 3.91468 28.6042 3.85192 28.6706C3.78916 28.7369 3.66059 28.8832 3.56722 28.9947C3.47232 29.1063 3.34681 29.2616 3.28865 29.337C3.22895 29.4139 3.11263 29.5767 3.02997 29.6989C2.94579 29.8225 2.83711 29.9869 2.78813 30.0653C2.73762 30.1437 2.66875 30.2552 2.6366 30.3141C2.60293 30.3713 2.56007 30.4467 2.54017 30.4799C2.5218 30.5131 2.4514 30.6488 2.38405 30.7815C2.31823 30.9141 2.2218 31.1207 2.16976 31.2413C2.11772 31.362 2.04119 31.5519 1.99833 31.6635C1.95547 31.7751 1.89119 31.959 1.85292 32.0706C1.81618 32.1822 1.74578 32.437 1.69527 32.636C1.64475 32.8351 1.58965 33.0823 1.57282 33.1864C1.55445 33.2904 1.5269 33.4623 1.51159 33.5709C1.49628 33.6779 1.47179 33.8845 1.45955 34.0262C1.44271 34.1996 1.43506 34.4559 1.43506 34.7876C1.43506 35.0636 1.44118 35.3636 1.45036 35.4556C1.45955 35.5461 1.47639 35.7134 1.49016 35.825C1.50241 35.9366 1.52384 36.0858 1.53608 36.1567C1.54833 36.2276 1.56516 36.3256 1.57435 36.3753C1.582 36.4251 1.60955 36.5578 1.63557 36.6694C1.66159 36.7809 1.70904 36.9739 1.74118 37.0991C1.77333 37.2227 1.81925 37.3825 1.84067 37.4534C1.86363 37.5243 1.9371 37.7278 2.00445 37.9057C2.0718 38.0837 2.15445 38.2947 2.18966 38.3731C2.22333 38.4516 2.32588 38.6581 2.41466 38.833C2.50344 39.0064 2.63507 39.2446 2.70548 39.3607C2.77589 39.4768 2.89222 39.6593 2.96569 39.7678C3.03916 39.8749 3.13559 40.0151 3.18151 40.0769C3.22742 40.1388 3.29783 40.2338 3.34069 40.288C3.38202 40.3423 3.49835 40.484 3.59937 40.6047C3.70039 40.7253 3.94835 40.9861 4.15039 41.1852C4.35397 41.3842 4.56672 41.5862 4.62642 41.633C4.68458 41.6812 4.78101 41.7596 4.84071 41.8094C4.89887 41.8591 4.9754 41.9195 5.00908 41.9421C5.04428 41.9647 5.15755 42.0461 5.26163 42.123C5.36724 42.1999 5.52184 42.3085 5.60602 42.3627C5.6902 42.4185 5.86929 42.5286 6.00398 42.607C6.13868 42.6854 6.32082 42.7879 6.4096 42.8332C6.49838 42.8784 6.57644 42.9206 6.58562 42.9267C6.59328 42.9327 6.70807 42.987 6.83818 43.0473C6.96828 43.1076 7.11828 43.1724 7.17032 43.192C7.22389 43.2116 7.279 43.2342 7.29277 43.2433C7.30808 43.2508 7.43053 43.2991 7.56522 43.3473C7.69992 43.3971 7.93105 43.474 8.07799 43.5192C8.22493 43.5644 8.46983 43.6323 8.62136 43.67C8.77289 43.7077 9.02697 43.762 9.18769 43.7906C9.34688 43.8193 9.52596 43.8494 9.58565 43.86C9.64382 43.869 9.7479 43.8826 9.81525 43.8901C9.8826 43.8992 10.1443 43.9173 10.3969 43.9308C10.827 43.955 11.153 43.955 15.5168 43.9308C18.0806 43.9173 23.9583 43.8856 28.5807 43.8615L40.0987 43.8012C41.8115 43.7936 43.3651 43.7831 43.5503 43.7785C43.7355 43.7755 44.0248 43.7574 44.1932 43.7409C44.3615 43.7243 44.5712 43.7017 44.66 43.6896C44.7488 43.676 44.862 43.6594 44.9125 43.6519C44.9631 43.6444 45.0978 43.6202 45.211 43.5991C45.3243 43.578 45.5141 43.5388 45.6319 43.5102C45.7498 43.4815 45.9121 43.4408 45.9916 43.4197C46.0712 43.3986 46.2059 43.3564 46.2901 43.3262L46.6039 43.2192C46.6927 43.1905 46.8228 43.1423 46.8947 43.1151C46.9667 43.0865 47.1243 43.0216 47.2468 42.9719C47.3692 42.9206 47.582 42.8226 47.7213 42.7533C47.8605 42.6839 48.0626 42.5738 48.1728 42.5105C48.2815 42.4472 48.4958 42.316 48.6473 42.2195C48.7988 42.123 49.0208 41.9722 49.1401 41.8818C49.2611 41.7928 49.4034 41.6842 49.457 41.6405C49.5106 41.5983 49.6284 41.4973 49.7203 41.4189C49.8121 41.3405 50.0111 41.1535 50.1626 41.0042C50.3157 40.855 50.4978 40.668 50.5682 40.5881C50.6402 40.5082 50.7366 40.3936 50.7825 40.3333C50.8284 40.273 50.9004 40.1855 50.9402 40.1388C50.9815 40.092 51.0779 39.9654 51.156 39.8583C51.2325 39.7498 51.3488 39.5809 51.4131 39.4814C51.4774 39.3819 51.5723 39.2296 51.6244 39.1421C51.6779 39.0547 51.7851 38.8617 51.8631 38.7124C51.9412 38.5631 52.0529 38.3294 52.1111 38.1922C52.1693 38.055 52.2534 37.8515 52.2978 37.7399C52.3422 37.6283 52.4126 37.4308 52.454 37.3026C52.4953 37.1745 52.5504 36.9905 52.5749 36.8955C52.5994 36.8005 52.6407 36.6302 52.6652 36.5186C52.6912 36.407 52.7279 36.2125 52.7494 36.0889C52.7693 35.9637 52.7938 35.8114 52.8029 35.7496C52.8121 35.6878 52.829 35.534 52.8412 35.4104C52.8535 35.2852 52.8688 35.059 52.8733 34.9053C52.8795 34.7484 52.8764 34.471 52.8657 34.272C52.855 34.0775 52.8412 33.8468 52.832 33.7593C52.8244 33.6719 52.8106 33.5437 52.8014 33.4729C52.7922 33.402 52.7677 33.2392 52.7478 33.111C52.7264 32.9828 52.6973 32.826 52.6805 32.7642C52.6637 32.7024 52.6223 32.535 52.5886 32.3948C52.5534 32.2531 52.5075 32.0812 52.4861 32.0103C52.4647 31.9394 52.382 31.7088 52.3024 31.4977C52.206 31.2428 52.0943 30.985 51.9718 30.7362C51.8708 30.5282 51.7728 30.3352 51.7545 30.3065C51.7361 30.2779 51.6948 30.21 51.6626 30.1557C51.6305 30.1015 51.5891 30.0336 51.5708 30.005L51.4254 29.7788C51.3642 29.6838 51.2555 29.524 51.1835 29.4245C51.1116 29.3249 50.9907 29.1651 50.9141 29.0701C50.8376 28.9751 50.7412 28.856 50.6983 28.8063C50.657 28.7565 50.5422 28.6314 50.4458 28.5273C50.3493 28.4233 50.1779 28.2499 50.0631 28.1413C49.9498 28.0328 49.806 27.9001 49.7432 27.8473C49.6805 27.7945 49.584 27.7131 49.5289 27.6679C49.4738 27.6227 49.2993 27.49 49.1417 27.3739C48.984 27.2578 48.7361 27.0874 48.5906 26.9954C48.4452 26.9034 48.2294 26.7753 48.1116 26.7105C47.9937 26.6456 47.8039 26.5461 47.6906 26.4903C47.5774 26.4345 47.4044 26.3531 47.308 26.3109C47.2116 26.2672 47.0692 26.2084 46.9942 26.1797C46.9177 26.1511 46.757 26.0908 46.6345 26.0455C46.4906 25.9927 46.3973 25.949 46.3697 25.9219C46.3467 25.8993 46.3207 25.8601 46.31 25.8359C46.2962 25.8013 46.2993 25.7455 46.3192 25.5872C46.3406 25.4243 46.3437 25.2992 46.3391 24.969C46.336 24.7413 46.3253 24.4654 46.3146 24.3583C46.3054 24.2498 46.2901 24.0944 46.2809 24.0115C46.2718 23.9286 46.2549 23.7899 46.2427 23.7024C46.2304 23.615 46.2105 23.4868 46.1983 23.4159C46.186 23.3451 46.1692 23.2365 46.16 23.1747C46.1508 23.1129 46.1187 22.9636 46.0896 22.843C46.059 22.7224 46.0085 22.5052 45.9748 22.3605C45.9411 22.2158 45.8845 22.0077 45.8462 21.9006C45.8095 21.7921 45.7406 21.5825 45.6916 21.4332C45.6442 21.2839 45.5738 21.0909 45.5355 21.0035C45.4973 20.9136 45.4606 20.8231 45.4253 20.7321C45.4008 20.6703 45.3518 20.5481 45.3136 20.4607C45.2768 20.3732 45.2279 20.2677 45.2049 20.227C45.1835 20.1848 45.159 20.141 45.1513 20.129C45.1421 20.1169 45.0809 19.9903 45.012 19.85C44.9432 19.7083 44.8636 19.559 44.836 19.5183C44.8085 19.4761 44.7319 19.348 44.6661 19.2319C44.6003 19.1158 44.5176 18.9785 44.484 18.9288C44.4503 18.8775 44.3891 18.7855 44.3477 18.7252C44.3064 18.6634 44.236 18.5564 44.1886 18.4855C44.1426 18.4146 44.0646 18.3061 44.0141 18.2443C43.9651 18.1824 43.8625 18.0497 43.7875 17.9502C43.711 17.8507 43.613 17.7256 43.5687 17.6713C43.5243 17.617 43.4034 17.4738 43.2993 17.3547C43.1952 17.234 42.9197 16.9506 42.687 16.7229C42.4544 16.4967 42.1819 16.2419 42.0809 16.159L41.8804 15.9916C41.8712 15.9826 41.8207 15.9404 41.7686 15.8997C41.7151 15.8574 41.6263 15.7881 41.5697 15.7428C41.5146 15.6991 41.3584 15.583 41.2237 15.4865C41.089 15.3915 40.8564 15.2332 40.7079 15.1382C40.5579 15.0432 40.3788 14.9301 40.3099 14.8879C40.2395 14.8442 40.1523 14.7944 40.114 14.7764C40.0758 14.7583 40.0344 14.7341 40.0222 14.7236C40.0099 14.713 39.9441 14.6753 39.8768 14.6407C39.8094 14.6045 39.6824 14.5381 39.5936 14.4944C39.5048 14.4492 39.3946 14.3934 39.3487 14.3693C39.3028 14.3451 39.1819 14.2878 39.0809 14.2426C38.9798 14.1974 38.8207 14.131 38.7288 14.0933C38.6354 14.0556 38.4977 13.9998 38.4227 13.9682C38.3462 13.938 38.2359 13.8958 38.1778 13.8762C38.1181 13.8566 37.9773 13.8069 37.864 13.7676C37.7507 13.7269 37.5579 13.6621 37.4354 13.6244C37.313 13.5867 37.0956 13.5249 36.9533 13.4872C36.8094 13.4495 36.6165 13.4013 36.5247 13.3817C36.4313 13.3605 36.2247 13.3183 36.0655 13.2852C35.9048 13.252 35.7303 13.2173 35.6752 13.2098C35.6201 13.2007 35.4548 13.1796 35.3079 13.163C35.1609 13.1449 34.9543 13.1208 34.8487 13.1087C34.7431 13.0967 34.5089 13.0801 34.3283 13.0726C34.1476 13.065 33.8507 13.056 33.6701 13.053C33.4895 13.0484 33.1864 13.0515 32.9966 13.0575C32.8068 13.065 32.5726 13.0786 32.4762 13.0876Z" fill="#21218B"/>
<path fill-rule="evenodd" clip-rule="evenodd" d="M29.4073 19.1485C29.7506 19.1712 30.0928 19.2089 30.4328 19.2616C30.5675 19.2827 30.7879 19.3234 30.9226 19.3521C31.0573 19.3807 31.2746 19.432 31.4047 19.4652C31.5348 19.4998 31.6557 19.5285 31.6726 19.5315C31.6894 19.5345 31.7889 19.5617 31.8945 19.5933C32.0001 19.6235 32.193 19.6883 32.3231 19.7366C32.4532 19.7848 32.6675 19.8647 32.7976 19.916C32.9277 19.9688 33.0762 20.0276 33.1267 20.0502C33.1772 20.0713 33.4037 20.1814 33.6318 20.2944C33.8583 20.4075 34.1752 20.5809 34.3359 20.6789C34.4951 20.7769 34.6849 20.896 34.7568 20.9413C34.8287 20.988 34.9344 21.0604 34.9941 21.1011C35.0522 21.1418 35.1701 21.2263 35.2543 21.2866C35.3384 21.3484 35.4685 21.4509 35.542 21.5142C35.617 21.5776 35.7089 21.6545 35.7487 21.6876C35.7884 21.7193 35.9231 21.8399 36.0502 21.9545C36.1757 22.0676 36.3793 22.2666 36.5017 22.3948C36.6242 22.5214 36.7772 22.6873 36.843 22.7612C36.9089 22.8351 36.9823 22.915 37.0068 22.9406C37.0298 22.9647 37.1339 23.0944 37.2364 23.2271C37.3374 23.3598 37.4997 23.5829 37.5946 23.7246C37.6895 23.8649 37.8119 24.0518 37.867 24.1393C37.9206 24.2267 38.0109 24.376 38.0676 24.471C38.1227 24.566 38.1686 24.6489 38.1701 24.655C38.1701 24.6625 38.2022 24.7258 38.2436 24.7982C38.2834 24.8721 38.3415 24.9852 38.3721 25.0515C38.4028 25.1178 38.4487 25.2174 38.4747 25.2731C38.5007 25.3304 38.5221 25.3787 38.5221 25.3832C38.5221 25.3877 38.5436 25.436 38.5696 25.4918C38.5956 25.5491 38.6354 25.641 38.6599 25.6998C38.6829 25.7571 38.7242 25.8627 38.7517 25.9336C38.7793 26.0044 38.8145 26.0949 38.8313 26.1371C38.8466 26.1778 38.8972 26.3376 38.9431 26.4914C38.989 26.6452 39.0716 26.9438 39.1252 27.1549C39.1849 27.3855 39.2492 27.6871 39.2859 27.9087C39.3196 28.1123 39.3579 28.3566 39.3701 28.4516C39.3824 28.5465 39.4007 28.7169 39.4099 28.8285C39.4206 28.9401 39.4268 29.3095 39.4268 29.6502C39.4252 29.9895 39.4176 30.3499 39.4099 30.4494C39.4007 30.5489 39.387 30.6846 39.3793 30.7509C39.3701 30.8173 39.3563 30.9183 39.3472 30.9771C39.338 31.0344 39.3028 31.2349 39.2706 31.4219C39.237 31.6089 39.1757 31.8893 39.1329 32.0476C39.09 32.2044 39.0242 32.4396 38.9875 32.5678C38.9492 32.696 38.888 32.8859 38.8512 32.99C38.8145 33.094 38.7609 33.2388 38.7318 33.3142C38.7028 33.388 38.6232 33.575 38.5558 33.7288C38.4885 33.8826 38.3982 34.0786 38.3568 34.1661C38.314 34.2535 38.2344 34.4028 38.1808 34.4978C38.1288 34.5928 38.0553 34.7254 38.0186 34.7918C37.9818 34.8581 37.9237 34.9561 37.89 35.0104C37.8563 35.0647 37.763 35.2049 37.6818 35.324C37.6007 35.4416 37.5104 35.5743 37.4813 35.618C37.4522 35.6618 37.3726 35.7688 37.3053 35.8548C37.2395 35.9422 37.1538 36.0508 37.117 36.096C37.0818 36.1413 37.016 36.2227 36.9716 36.2754C36.9272 36.3297 36.8232 36.4473 36.7405 36.5393C36.6563 36.6313 36.5385 36.7579 36.4772 36.8198C36.4175 36.8816 36.2798 37.0173 36.1711 37.1213C36.0624 37.2253 35.8987 37.3746 35.8068 37.453C35.7134 37.5314 35.5971 37.6279 35.5466 37.6671C35.4946 37.7063 35.3736 37.7983 35.2772 37.8722C35.1808 37.9446 35.0446 38.0426 34.9742 38.0908C34.9053 38.1376 34.844 38.1768 34.8364 38.1768C34.8303 38.1768 34.8272 37.7817 34.8287 36.4202L34.8655 36.3493C34.8884 36.3041 35.0262 36.1533 35.2481 35.9271C35.4379 35.7341 35.6446 35.5185 35.7073 35.4477C35.7701 35.3768 35.8726 35.2547 35.9369 35.1763C36.0012 35.0979 36.1252 34.935 36.2124 34.8144C36.2997 34.6938 36.4145 34.5279 36.468 34.445C36.5216 34.3621 36.6211 34.2022 36.6885 34.0907C36.7558 33.9791 36.8614 33.7891 36.9226 33.6685C36.9839 33.5479 37.0436 33.4257 37.0573 33.3971C37.0696 33.3684 37.1232 33.2493 37.1752 33.1332C37.2272 33.0171 37.3007 32.8407 37.339 32.7412C37.3772 32.6417 37.4323 32.4924 37.4599 32.4095C37.489 32.3266 37.5334 32.1833 37.5579 32.0928C37.5823 32.0009 37.6267 31.835 37.6558 31.7234C37.6849 31.6119 37.7339 31.4008 37.763 31.256C37.7936 31.1113 37.8349 30.8595 37.8548 30.6981C37.8762 30.5368 37.9007 30.3061 37.9099 30.1855C37.9191 30.0649 37.9252 29.7829 37.9252 29.5598C37.9252 29.3351 37.9191 29.0607 37.9099 28.9491C37.9007 28.8375 37.8793 28.634 37.8624 28.4968C37.8456 28.3596 37.815 28.1636 37.7951 28.0595C37.7752 27.9555 37.7415 27.7927 37.7186 27.6977C37.6971 27.6027 37.6482 27.4052 37.6099 27.2604C37.5701 27.1157 37.5119 26.9121 37.4783 26.8081C37.4431 26.704 37.3696 26.5035 37.313 26.3633C37.2548 26.2215 37.1813 26.0497 37.1492 25.9788C37.1155 25.9079 37.0879 25.8461 37.0864 25.8386C37.0849 25.8325 37.0344 25.7315 36.9732 25.6124C36.9135 25.4948 36.7987 25.2867 36.7206 25.1495C36.641 25.0123 36.54 24.8464 36.4971 24.7801C36.4527 24.7138 36.4099 24.6489 36.3992 24.6369C36.3885 24.6248 36.3073 24.5117 36.217 24.3881C36.1282 24.2629 35.9767 24.0669 35.8818 23.9508C35.7854 23.8347 35.6522 23.6779 35.5818 23.604C35.5129 23.5286 35.3798 23.3914 35.2864 23.2964C35.193 23.203 35.0201 23.0401 34.9022 22.9346C34.7844 22.829 34.6328 22.6994 34.5655 22.6451C34.4981 22.5908 34.3849 22.5033 34.3129 22.4506C34.2425 22.3963 34.1491 22.3284 34.1048 22.2998C34.0619 22.2711 33.9747 22.2139 33.9134 22.1716C33.8507 22.1309 33.7726 22.0766 33.7389 22.051C33.7053 22.0269 33.6195 21.9711 33.5476 21.9289C33.4757 21.8867 33.3272 21.8052 33.2185 21.7464C33.1083 21.6876 32.9399 21.6002 32.8435 21.5489C32.7471 21.4992 32.5328 21.4072 32.369 21.3424C32.2052 21.279 32.0078 21.2006 31.9328 21.169C31.8563 21.1373 31.6603 21.0709 31.4966 21.0212C31.3328 20.9714 31.0221 20.893 30.8078 20.8463C30.5935 20.8011 30.3409 20.7528 30.2491 20.7392C30.1557 20.7272 29.946 20.7031 29.7823 20.6865C29.6185 20.6699 29.3047 20.6488 29.0858 20.6397C28.7919 20.6262 28.5899 20.6262 28.3129 20.6382C28.1062 20.6473 27.8001 20.6729 27.6317 20.694C27.4634 20.7151 27.2736 20.7423 27.2108 20.7543C27.1481 20.7664 26.9552 20.8086 26.7822 20.8463C26.6093 20.884 26.3445 20.9518 26.1929 20.9971C26.0414 21.0423 25.8317 21.1132 25.7261 21.1539C25.6205 21.1946 25.4934 21.2428 25.4429 21.2594C25.3924 21.276 25.296 21.3152 25.2286 21.3439C25.1613 21.374 25.0817 21.4087 25.0526 21.4208C25.0235 21.4343 24.8996 21.4946 24.7771 21.5534C24.6547 21.6138 24.4587 21.7148 24.3409 21.7796C24.223 21.8444 24.0899 21.9198 24.0455 21.947C24.0026 21.9756 23.9628 21.9982 23.9582 21.9982C23.9536 21.9982 23.9215 22.0209 23.8878 22.0465C23.8526 22.0736 23.7914 22.1158 23.7501 22.1415C23.7103 22.1656 23.6261 22.2199 23.5648 22.2621C23.5036 22.3028 23.3812 22.3918 23.2924 22.4566C23.2036 22.5229 23.0934 22.6074 23.0475 22.6451C23.0016 22.6813 22.9082 22.7582 22.8409 22.8139C22.7735 22.8697 22.6388 22.9889 22.5424 23.0793C22.446 23.1698 22.2898 23.3206 22.1965 23.4156C22.1031 23.5105 21.947 23.6809 21.8521 23.794C21.7556 23.9071 21.6562 24.0262 21.6301 24.0579C21.6041 24.091 21.5291 24.1906 21.4618 24.2825C21.3944 24.373 21.2949 24.5132 21.2414 24.5916C21.1893 24.67 21.1235 24.768 21.0959 24.8103C21.0684 24.851 21.0225 24.9264 20.9919 24.9761C20.9628 25.0259 20.9092 25.1133 20.874 25.1721C20.8388 25.2294 20.7393 25.4194 20.6521 25.5943C20.5663 25.7677 20.4776 25.9486 20.4561 25.9939C20.4347 26.0391 20.3766 26.1778 20.326 26.303C20.2755 26.4266 20.2128 26.594 20.1852 26.6724C20.1592 26.7508 20.0919 26.9679 20.0383 27.1549C19.9832 27.3418 19.9143 27.6057 19.8852 27.7429C19.8561 27.8801 19.8117 28.1138 19.7873 28.2631C19.7628 28.4124 19.7322 28.6491 19.7168 28.7908C19.6939 28.9898 19.6878 29.1723 19.6878 29.6125C19.6878 29.9639 19.6954 30.2518 19.7077 30.374C19.7184 30.481 19.7444 30.6846 19.7643 30.8263C19.7857 30.9665 19.8255 31.2018 19.8561 31.3465C19.8852 31.4912 19.9403 31.7219 19.9786 31.8591C20.0169 31.9964 20.0842 32.2165 20.1271 32.3492C20.1699 32.4819 20.2265 32.6477 20.2541 32.7186C20.2817 32.7894 20.3291 32.8995 20.3597 32.9628C20.3903 33.0277 20.4148 33.0835 20.4148 33.088C20.4148 33.0925 20.4638 33.2026 20.5235 33.3322C20.5832 33.4634 20.6658 33.6353 20.7087 33.7137C20.7516 33.7921 20.8204 33.9143 20.8633 33.9851C20.9061 34.056 20.9811 34.1811 21.0317 34.2641C21.0822 34.347 21.1786 34.4963 21.2459 34.5958C21.3133 34.6953 21.4388 34.8687 21.523 34.9803C21.6072 35.0918 21.6944 35.2019 21.7159 35.223C21.7373 35.2456 21.7847 35.2999 21.823 35.3436C21.8613 35.3874 21.9577 35.4944 22.0388 35.5819C22.1199 35.6693 22.2439 35.799 22.3128 35.8699C22.3832 35.9407 22.5102 36.0613 22.5944 36.1382C22.6801 36.2151 22.7628 36.3011 22.7781 36.3267C22.8072 36.3734 22.8072 36.384 22.7858 36.7067C22.7735 36.9012 22.7643 37.2751 22.7643 38.1903L22.7184 38.1557C22.6924 38.136 22.6235 38.0878 22.5653 38.0456C22.5057 38.0049 22.4092 37.934 22.3495 37.8888C22.2914 37.8435 22.1873 37.7636 22.1199 37.7093C22.0526 37.6551 21.9531 37.5752 21.898 37.5299C21.8444 37.4862 21.6914 37.3505 21.5582 37.2284C21.425 37.1077 21.2276 36.9163 21.1204 36.8047C21.0148 36.6931 20.8618 36.5272 20.7822 36.4368C20.7026 36.3463 20.6 36.2272 20.5556 36.1729C20.5112 36.1186 20.3964 35.9709 20.3016 35.8472C20.2067 35.7221 20.0704 35.5381 20 35.4356C19.9296 35.3331 19.8316 35.1913 19.7842 35.119C19.7352 35.0466 19.6862 34.9667 19.6755 34.9426C19.6633 34.9169 19.6204 34.84 19.5776 34.7692C19.5347 34.6983 19.4352 34.5189 19.3556 34.3696C19.276 34.2203 19.1857 34.0364 19.1536 33.9625C19.1214 33.8871 19.0648 33.759 19.0281 33.676C18.9913 33.5931 18.9286 33.4438 18.8872 33.3443C18.8444 33.2448 18.7939 33.1091 18.7725 33.0428C18.751 32.9764 18.7036 32.8241 18.6638 32.7035C18.6255 32.5829 18.5903 32.4638 18.5842 32.4396C18.5781 32.414 18.5429 32.2828 18.5061 32.1456C18.4694 32.0084 18.4097 31.734 18.3714 31.535C18.3347 31.3359 18.2934 31.1022 18.2811 31.0148C18.2673 30.9273 18.2536 30.7946 18.2505 30.7208C18.2459 30.6454 18.2337 30.4795 18.2245 30.3514C18.2122 30.2202 18.2046 29.8734 18.2046 29.5598C18.2046 29.2522 18.2122 28.8903 18.223 28.7531C18.2337 28.6159 18.2459 28.4395 18.249 28.3611C18.2536 28.2827 18.2643 28.1771 18.2735 28.1274C18.2827 28.0776 18.3194 27.8846 18.3561 27.6977C18.3929 27.5107 18.4434 27.28 18.4679 27.185C18.4923 27.09 18.5429 26.9091 18.5781 26.7855C18.6133 26.6603 18.6577 26.511 18.6776 26.4537C18.6975 26.3949 18.7281 26.2969 18.7464 26.2351C18.7648 26.1733 18.8184 26.027 18.8628 25.9109C18.9087 25.7948 18.9623 25.6622 18.9837 25.6169C19.0036 25.5717 19.0617 25.439 19.1138 25.3229C19.1658 25.2068 19.2515 25.0229 19.3051 24.9158C19.3602 24.8072 19.4505 24.6414 19.5056 24.5464C19.5623 24.4514 19.6265 24.3383 19.6495 24.2976C19.6725 24.2554 19.7337 24.1544 19.7873 24.0714C19.8408 23.9885 19.9265 23.8588 19.9786 23.785C20.0306 23.7096 20.1163 23.5874 20.1699 23.5136C20.222 23.4382 20.2908 23.3477 20.3199 23.31C20.3505 23.2723 20.3811 23.2407 20.3873 23.2376C20.3934 23.2361 20.3995 23.2241 20.3995 23.212C20.3995 23.1999 20.4041 23.1894 20.4102 23.1894C20.4179 23.1894 20.4531 23.1502 20.4913 23.1034C20.5296 23.0567 20.6215 22.9466 20.6949 22.8592C20.7699 22.7717 20.9215 22.6014 21.0317 22.4822C21.1434 22.3616 21.3439 22.1626 21.4786 22.0389C21.6133 21.9138 21.7893 21.757 21.8689 21.6891C21.9485 21.6228 22.0863 21.5097 22.175 21.4404C22.2638 21.371 22.3373 21.3077 22.3388 21.3016C22.3419 21.2941 22.3541 21.2896 22.3664 21.2896C22.3786 21.2896 22.3893 21.2851 22.3893 21.2775C22.3893 21.2715 22.4689 21.2082 22.5684 21.1373C22.6679 21.0664 22.7934 20.979 22.8485 20.9428C22.9036 20.9081 23.0276 20.8297 23.124 20.7694C23.2205 20.7091 23.3781 20.6141 23.4715 20.5598C23.5664 20.5055 23.6506 20.4603 23.6597 20.4603C23.6674 20.4603 23.6766 20.4543 23.6781 20.4467C23.6812 20.4392 23.8587 20.3472 24.073 20.2432C24.2873 20.1376 24.4939 20.0411 24.5322 20.0276C24.5705 20.014 24.6041 19.9959 24.6087 19.9899C24.6133 19.9823 24.6271 19.9748 24.6393 19.9718C24.6516 19.9688 24.6822 19.9597 24.7082 19.9492C24.7327 19.9386 24.895 19.8768 25.0679 19.8119C25.2409 19.7471 25.4781 19.6642 25.596 19.6265C25.7139 19.5888 25.8623 19.5481 25.9251 19.533C25.9878 19.5179 26.0736 19.4968 26.1164 19.4848C26.1577 19.4742 26.3093 19.438 26.4531 19.4048C26.5955 19.3732 26.8128 19.3295 26.9353 19.3084C27.0577 19.2872 27.3195 19.2495 27.5169 19.2254C27.7144 19.1998 27.9761 19.1726 28.0986 19.1636C28.221 19.1561 28.3481 19.1455 28.3817 19.144C28.4154 19.141 28.6052 19.138 28.8027 19.1365C29.0001 19.135 29.2726 19.141 29.4073 19.1485ZM29.2389 23.0688C29.3567 23.0778 29.5741 23.1019 29.721 23.1215C29.9001 23.1457 30.1083 23.1864 30.3486 23.2482C30.546 23.2979 30.8185 23.3748 30.9532 23.4216C31.0879 23.4668 31.3052 23.5513 31.4353 23.6086C31.5654 23.6658 31.7384 23.7458 31.818 23.785C31.8976 23.8242 32.0109 23.8845 32.0706 23.9176C32.1287 23.9508 32.2879 24.0503 32.4226 24.1378C32.5573 24.2252 32.7532 24.3655 32.8573 24.4484C32.9614 24.5313 33.0685 24.6157 33.0961 24.6369C33.1221 24.658 33.2155 24.7394 33.3012 24.8178C33.3884 24.8962 33.54 25.0485 33.6394 25.157C33.7389 25.2641 33.8476 25.3862 33.8828 25.4284C33.918 25.4692 34.0068 25.5822 34.0803 25.6787C34.1537 25.7752 34.2502 25.9079 34.2961 25.9728C34.342 26.0391 34.4231 26.1612 34.4767 26.2457C34.5287 26.3316 34.6405 26.5352 34.7247 26.698C34.8073 26.8623 34.9145 27.09 34.9619 27.2031C35.0094 27.3177 35.0614 27.4609 35.0767 27.5197C35.0935 27.5801 35.1303 27.7037 35.1594 27.7957C35.1884 27.8861 35.2236 28.0128 35.2374 28.0746C35.2512 28.1364 35.2757 28.248 35.291 28.3234C35.3078 28.3973 35.3384 28.5707 35.3599 28.7079C35.3798 28.8451 35.4058 29.0547 35.4165 29.1753C35.4272 29.311 35.4318 29.5176 35.4257 29.7181C35.4211 29.9171 35.4043 30.1327 35.3844 30.276C35.3675 30.4041 35.3308 30.6107 35.3063 30.7358C35.2803 30.8595 35.2282 31.0736 35.19 31.2108C35.1517 31.348 35.0981 31.5274 35.0706 31.6104C35.043 31.6933 34.9879 31.8395 34.9481 31.9345C34.9083 32.0295 34.7997 32.2602 34.7048 32.4472C34.5869 32.6794 34.4752 32.8724 34.3512 33.0578C34.2517 33.2071 34.1201 33.3941 34.0573 33.4725C33.9961 33.5509 33.9303 33.6338 33.8767 33.6971L33.7466 33.5735C33.6746 33.5056 33.5063 33.3609 33.3716 33.2493C33.2369 33.1377 33.116 33.0412 33.1037 33.0352C33.0838 33.0247 33.0899 33.0111 33.1313 32.9568C33.1588 32.9206 33.2231 32.8302 33.2721 32.7563C33.3226 32.6809 33.3746 32.604 33.39 32.5829C33.4053 32.5618 33.4619 32.4743 33.5155 32.3869C33.569 32.2994 33.667 32.1305 33.7328 32.0099C33.7986 31.8893 33.8537 31.7822 33.8537 31.7717C33.8537 31.7626 33.8798 31.6978 33.9134 31.6285C33.9456 31.5606 33.9838 31.4777 33.9976 31.4445C34.0129 31.4113 34.0604 31.2756 34.1063 31.1429C34.1507 31.0103 34.2088 30.7977 34.2349 30.668C34.2609 30.5398 34.2961 30.3091 34.3145 30.1553C34.3359 29.9593 34.3451 29.7784 34.3466 29.5447C34.3466 29.3623 34.3389 29.1316 34.3282 29.0321C34.3175 28.9325 34.3083 28.8406 34.3053 28.8285C34.3022 28.8164 34.2961 28.7712 34.29 28.7305C34.2854 28.6883 34.2701 28.6008 34.2563 28.5345C34.244 28.4681 34.2165 28.346 34.1951 28.2631C34.1752 28.1802 34.1231 28.0098 34.0803 27.8861C34.0374 27.761 33.9655 27.571 33.9211 27.464C33.8752 27.3554 33.8017 27.1971 33.7588 27.1096C33.7144 27.0237 33.615 26.8533 33.5384 26.7327C33.4619 26.6121 33.367 26.4658 33.3272 26.4085C33.2859 26.3497 33.2277 26.2728 33.1971 26.2366C33.1665 26.1989 33.1313 26.1552 33.119 26.1371C33.1068 26.119 33.0517 26.0527 32.9966 25.9924C32.9415 25.9305 32.8282 25.8129 32.744 25.73C32.6598 25.6471 32.5175 25.5174 32.4287 25.4435C32.3384 25.3681 32.2251 25.2777 32.1762 25.24C32.1257 25.2023 32.0063 25.1194 31.9098 25.0575C31.8134 24.9942 31.6925 24.9173 31.642 24.8841C31.5915 24.8525 31.5364 24.8178 31.5195 24.8087C31.5027 24.7997 31.4032 24.7484 31.2976 24.6942C31.192 24.6399 31.0573 24.5765 30.9991 24.5539C30.9394 24.5313 30.8506 24.4966 30.8001 24.477C30.7496 24.4589 30.6425 24.4228 30.5629 24.3971L30.2644 24.3067C30.1802 24.281 30.0256 24.2433 29.92 24.2237C29.8144 24.2026 29.594 24.1725 29.4302 24.1544C29.17 24.1257 29.0751 24.1227 28.6955 24.1287C28.371 24.1333 28.1996 24.1438 28.0297 24.1664C27.9027 24.1845 27.7282 24.2117 27.6394 24.2298C27.5506 24.2463 27.4159 24.281 27.3409 24.3051C27.2644 24.3293 27.1404 24.367 27.0654 24.3881C26.9889 24.4107 26.8894 24.4454 26.8435 24.4665C26.7975 24.4876 26.6827 24.5343 26.5909 24.572C26.4975 24.6082 26.4149 24.6444 26.4072 24.6519C26.398 24.6595 26.3154 24.7047 26.2236 24.7545C26.1302 24.8027 26.0031 24.8721 25.9404 24.9083C25.8776 24.9444 25.7598 25.0168 25.6802 25.0711C25.6006 25.1239 25.5133 25.1842 25.4888 25.2038C25.4628 25.2234 25.3603 25.3078 25.2593 25.3892C25.1582 25.4707 25.0006 25.6109 24.9087 25.7014C24.8169 25.7918 24.6791 25.9366 24.6026 26.024C24.5261 26.1115 24.4404 26.214 24.4128 26.2502C24.3853 26.2879 24.3302 26.3618 24.2904 26.416C24.249 26.4703 24.1633 26.597 24.099 26.698C24.0348 26.8005 23.9812 26.8865 23.9812 26.891C23.9812 26.8955 23.9582 26.9347 23.9307 26.9769C23.9031 27.0207 23.8572 27.1081 23.8281 27.1699C23.8006 27.2318 23.7501 27.3403 23.7179 27.4112C23.6842 27.482 23.6475 27.5665 23.6368 27.5997C23.6261 27.6328 23.5847 27.7474 23.545 27.856C23.5052 27.963 23.447 28.1606 23.4148 28.2932C23.3827 28.4259 23.3444 28.6084 23.3322 28.7003C23.3184 28.7908 23.3001 28.9717 23.2909 29.0999C23.2802 29.2281 23.2725 29.4753 23.2725 29.6502C23.2725 29.8236 23.2817 30.0588 23.2909 30.1704C23.3016 30.282 23.323 30.4418 23.3398 30.5248C23.3567 30.6077 23.3919 30.757 23.4164 30.8565C23.4424 30.956 23.4822 31.0917 23.5067 31.158C23.5312 31.2244 23.574 31.339 23.6031 31.4143C23.6322 31.4882 23.7041 31.6541 23.7654 31.7792C23.8251 31.9059 23.874 32.0129 23.874 32.0175C23.874 32.022 23.9169 32.1019 23.9705 32.1939C24.024 32.2874 24.1373 32.4698 24.2215 32.598C24.3072 32.7261 24.4036 32.8648 24.4358 32.9055C24.4679 32.9463 24.5001 32.9885 24.5092 33.0005C24.52 33.0156 24.5169 33.0262 24.4939 33.0397C24.4771 33.0488 24.4465 33.0729 24.4251 33.0925C24.4036 33.1136 24.3562 33.1543 24.3179 33.183C24.2797 33.2131 24.1863 33.2915 24.1113 33.3579C24.0348 33.4242 23.9184 33.5313 23.7286 33.7152L23.5878 33.5298C23.5097 33.4272 23.3796 33.2418 23.2985 33.1181C23.2174 32.993 23.1286 32.8543 23.1011 32.809C23.0735 32.7638 22.9893 32.607 22.9143 32.4623C22.8393 32.3175 22.7444 32.123 22.7046 32.0325C22.6633 31.9406 22.6036 31.7883 22.5699 31.6933C22.5378 31.5983 22.4766 31.4008 22.4337 31.256C22.3924 31.1113 22.3373 30.8942 22.3128 30.7735C22.2883 30.6529 22.2623 30.5036 22.2531 30.4418C22.2439 30.38 22.2286 30.2338 22.2179 30.1177C22.2072 30.0016 22.198 29.7166 22.198 29.4844C22.198 29.2311 22.2057 28.9989 22.2179 28.9039C22.2286 28.8164 22.2516 28.6611 22.2684 28.5571C22.2852 28.4531 22.3266 28.257 22.3602 28.1198C22.3939 27.9826 22.4567 27.7655 22.498 27.6374C22.5409 27.5092 22.5883 27.3659 22.6051 27.3207C22.6205 27.2755 22.6572 27.1805 22.6878 27.1096C22.7184 27.0388 22.8026 26.8623 22.8761 26.7176C22.948 26.5729 23.0383 26.3995 23.0766 26.3331C23.1148 26.2668 23.2021 26.1311 23.271 26.0316C23.3383 25.932 23.4393 25.7873 23.4929 25.7089C23.5465 25.6305 23.6429 25.5084 23.7057 25.4375C23.7684 25.3666 23.845 25.2777 23.874 25.24C23.9031 25.2023 23.9842 25.1118 24.0562 25.0379C24.1281 24.9656 24.2353 24.8585 24.295 24.8027C24.3531 24.7469 24.4511 24.661 24.5123 24.6127C24.572 24.563 24.6654 24.4891 24.7189 24.4469C24.771 24.4047 24.8766 24.3293 24.9531 24.2795C25.0281 24.2298 25.1628 24.1408 25.2516 24.085C25.3404 24.0277 25.4506 23.9599 25.4965 23.9372C25.5424 23.9131 25.5975 23.8815 25.619 23.8679C25.6404 23.8543 25.7399 23.8046 25.8409 23.7593C25.9419 23.7126 26.1103 23.6372 26.2159 23.592C26.3215 23.5452 26.496 23.4759 26.6062 23.4382C26.7149 23.4005 26.9215 23.3387 27.0654 23.3025C27.2077 23.2678 27.4006 23.2195 27.494 23.1984C27.5858 23.1773 27.7557 23.1457 27.869 23.1306C27.9822 23.114 28.1613 23.0929 28.2669 23.0838C28.3726 23.0763 28.4858 23.0657 28.5195 23.0627C28.5532 23.0612 28.6802 23.0582 28.8027 23.0567C28.9251 23.0552 29.121 23.0612 29.2389 23.0688ZM29.3491 26.6256C29.4761 26.6467 29.6154 26.6844 29.7777 26.7417C29.9108 26.7885 30.044 26.8382 30.0731 26.8518C30.1022 26.8669 30.1925 26.9136 30.2721 26.9573C30.3517 26.9996 30.4726 27.0734 30.5415 27.1217C30.6088 27.1684 30.7297 27.2619 30.8078 27.3283C30.8874 27.3946 30.9961 27.5001 31.0527 27.562C31.1078 27.6238 31.1904 27.7263 31.2379 27.7881C31.2838 27.8499 31.3588 27.96 31.4017 28.0324C31.4461 28.1063 31.4813 28.1711 31.4813 28.1802C31.4813 28.1877 31.4859 28.1967 31.4935 28.1982C31.4996 28.2013 31.5302 28.257 31.5609 28.3234C31.5915 28.3897 31.6404 28.5119 31.6695 28.5948C31.6986 28.6777 31.7369 28.8059 31.7537 28.8813C31.7721 28.9552 31.7966 29.0878 31.8103 29.1753C31.8226 29.2627 31.8333 29.4346 31.8333 29.5598C31.8333 29.6834 31.8257 29.8432 31.8165 29.9141C31.8088 29.985 31.7874 30.1101 31.769 30.193C31.7522 30.276 31.7139 30.4147 31.6864 30.5021C31.6573 30.5896 31.5762 30.775 31.5057 30.9168C31.4231 31.0796 31.3328 31.2334 31.2547 31.339C31.1889 31.4294 31.0695 31.5696 30.9899 31.6481C30.9103 31.7265 30.7802 31.8411 30.7006 31.9029C30.621 31.9632 30.4971 32.0476 30.4251 32.0883C30.3532 32.1305 30.2231 32.1999 30.1343 32.2436C30.0455 32.2874 29.9017 32.3477 29.8129 32.3778C29.7241 32.408 29.5971 32.4472 29.5297 32.4638C29.4624 32.4804 29.3797 32.4984 29.346 32.5015C29.3124 32.506 29.2328 32.5135 29.17 32.5196C29.1073 32.5256 28.9419 32.5301 28.8027 32.5301C28.6634 32.5301 28.4904 32.5256 28.4154 32.518C28.3419 32.512 28.218 32.4939 28.1399 32.4773C28.0634 32.4607 27.9578 32.4336 27.9072 32.4185C27.8567 32.4019 27.7848 32.3778 27.7465 32.3643C27.7083 32.3522 27.5812 32.2934 27.4634 32.2376C27.3455 32.1803 27.194 32.0974 27.1266 32.0536C27.0593 32.0114 26.9552 31.9375 26.897 31.8908C26.8373 31.8441 26.7271 31.7446 26.6521 31.6707C26.5756 31.5953 26.4685 31.4762 26.4133 31.4068C26.3567 31.3359 26.2679 31.2078 26.2144 31.1203C26.1623 31.0329 26.0919 30.9047 26.0598 30.8339C26.0261 30.763 25.9863 30.6786 25.971 30.6454C25.9557 30.6122 25.9251 30.5308 25.9052 30.4644C25.8838 30.3981 25.8516 30.273 25.8348 30.1855C25.8164 30.0981 25.795 29.9458 25.7873 29.8463C25.7797 29.7467 25.772 29.5809 25.772 29.4768C25.772 29.3607 25.7827 29.219 25.8011 29.1074C25.8179 29.0079 25.8562 28.8421 25.8868 28.738C25.9174 28.634 25.9817 28.4681 26.0307 28.3686C26.0781 28.2691 26.1623 28.1168 26.2159 28.0294C26.271 27.9419 26.3567 27.8168 26.4088 27.7504C26.4608 27.6841 26.5603 27.5725 26.6307 27.5016C26.7011 27.4308 26.8037 27.3358 26.8588 27.2891C26.9139 27.2423 27.0164 27.1639 27.0884 27.1141C27.1603 27.0644 27.2705 26.9965 27.3333 26.9664C27.396 26.9347 27.4756 26.891 27.5093 26.8714C27.543 26.8503 27.6639 26.8005 27.7771 26.7598C27.8904 26.7191 28.0389 26.6724 28.1062 26.6573C28.1736 26.6422 28.2945 26.6211 28.3741 26.6136C28.4537 26.6045 28.547 26.594 28.5807 26.5909C28.6144 26.5879 28.7583 26.5864 28.9022 26.5894C29.0721 26.5925 29.2282 26.606 29.3491 26.6256ZM31.2134 34.0922C31.2976 34.1012 31.4323 34.1238 31.5119 34.1434C31.5915 34.163 31.7017 34.1977 31.7568 34.2188C31.8119 34.2399 31.9007 34.2822 31.9558 34.3108C32.0109 34.341 32.1103 34.4088 32.1777 34.4601C32.245 34.5128 32.3629 34.6184 32.4394 34.6968C32.5175 34.7737 32.62 34.8883 32.6675 34.9501C32.7149 35.0119 32.7899 35.1205 32.8313 35.1913C32.8741 35.2622 32.9262 35.3527 32.9476 35.3949C32.969 35.4356 33.0165 35.5412 33.0532 35.6286C33.0899 35.7161 33.1435 35.8714 33.1726 35.9754C33.2017 36.0794 33.2415 36.2453 33.2629 36.3448C33.2828 36.4443 33.3042 36.58 33.3104 36.6464C33.315 36.7127 33.3257 36.8409 33.3333 36.9328C33.3425 37.0233 33.3486 37.2042 33.3486 37.3324C33.3486 37.4606 33.341 37.6445 33.3333 37.7395C33.3241 37.8345 33.3134 37.9777 33.3088 38.0561C33.3042 38.1345 33.2767 38.3215 33.2461 38.4708C33.217 38.62 33.1695 38.8236 33.1405 38.9231C33.1114 39.0226 33.0655 39.1689 33.0394 39.2473C33.0134 39.3257 32.9583 39.4825 32.917 39.5941C32.8757 39.7057 32.8114 39.8715 32.7731 39.9635C32.7364 40.054 32.6445 40.2409 32.5711 40.3781L32.3935 40.7023C32.3706 40.743 32.3262 40.8184 32.2956 40.8682C32.2649 40.9179 32.2022 41.0129 32.1563 41.0792C32.1088 41.1456 32.0277 41.2572 31.9726 41.328C31.919 41.3989 31.8425 41.4939 31.8042 41.5391C31.766 41.5843 31.6818 41.6748 31.619 41.7412C31.5563 41.809 31.4216 41.9387 31.3205 42.0307C31.2195 42.1241 31.0848 42.2387 31.0221 42.287C30.9593 42.3352 30.8384 42.4182 30.7542 42.4709C30.67 42.5252 30.5108 42.6112 30.4022 42.6639C30.292 42.7152 30.0991 42.7936 29.9736 42.8373C29.8404 42.8826 29.6567 42.9323 29.5374 42.9534C29.3414 42.9911 29.3032 42.9926 28.795 42.9926C28.2945 42.9941 28.247 42.9911 28.068 42.9579C27.9623 42.9383 27.8001 42.8976 27.7083 42.866C27.6149 42.8358 27.4771 42.7845 27.4021 42.7529C27.3256 42.7227 27.2016 42.6654 27.1266 42.6262C27.0501 42.5855 26.9399 42.5237 26.8817 42.4845C26.822 42.4468 26.7134 42.3729 26.6384 42.3202C26.5633 42.2674 26.4654 42.195 26.4225 42.1573C26.3797 42.1196 26.32 42.0684 26.2909 42.0427C26.2618 42.0186 26.2281 41.9839 26.2144 41.9673C26.2006 41.9523 26.1593 41.91 26.1225 41.8769C26.0858 41.8422 26.0399 41.7969 26.02 41.7743C26.0016 41.7532 25.9771 41.7306 25.9664 41.7231C25.9557 41.717 25.9128 41.6718 25.87 41.622C25.8271 41.5723 25.7307 41.4502 25.6557 41.3506C25.5792 41.2511 25.4904 41.129 25.4567 41.0792C25.4215 41.0295 25.3526 40.9209 25.3021 40.838C25.2516 40.7551 25.1689 40.6164 25.1184 40.5289C25.0679 40.4415 24.9945 40.3073 24.9547 40.2304C24.9164 40.155 24.8751 40.066 24.8628 40.0344C24.8521 40.0042 24.8001 39.873 24.7465 39.7449C24.6945 39.6167 24.6179 39.4131 24.5781 39.2925C24.5383 39.1719 24.4771 38.9653 24.4434 38.8326C24.4098 38.7 24.3791 38.5537 24.3746 38.5085C24.37 38.4632 24.3516 38.3366 24.3348 38.2295C24.3179 38.121 24.2965 37.931 24.2858 37.8074C24.2751 37.6611 24.2705 37.441 24.2766 37.1892C24.2812 36.972 24.2965 36.7263 24.3087 36.6388C24.321 36.5514 24.3455 36.3915 24.3623 36.2845C24.3791 36.1759 24.4143 36.0206 24.4404 35.9377C24.4679 35.8548 24.5062 35.7462 24.5276 35.6965C24.549 35.6467 24.5904 35.5517 24.6195 35.4854C24.6501 35.419 24.7159 35.2939 24.7664 35.2064C24.8169 35.119 24.8827 35.018 24.9133 34.9803C24.9439 34.9426 24.973 34.9109 24.9791 34.9079C24.9853 34.9064 24.9914 34.8973 24.9914 34.8898C24.9914 34.8807 25.0557 34.8099 25.1322 34.73C25.2103 34.6501 25.3327 34.5385 25.4047 34.4812C25.4766 34.4254 25.6006 34.344 25.6802 34.3033C25.7598 34.2626 25.8975 34.2037 25.9863 34.1751C26.0751 34.1465 26.2052 34.1148 26.2771 34.1057C26.3491 34.0967 26.6246 34.0831 26.8894 34.0771C27.1542 34.0726 28.2011 34.0696 29.2159 34.0726C30.3318 34.0741 31.12 34.0831 31.2134 34.0922Z" fill="#FDFDFD"/>
</g>
</svg>
