<svg width="278" height="281" viewBox="0 0 278 281" fill="none" xmlns="http://www.w3.org/2000/svg">
<g filter="url(#filter0_d)">
<rect x="44" y="22" width="178" height="181" rx="58" fill="url(#paint0_linear)"/>
</g>
<path d="M115 50C117.761 50 120 52.5583 120 54.4629V116.537C120 118.442 117.761 121 115 121C112.239 121 110 118.442 110 116.537V54.4629C110 52.5583 112.239 50 115 50Z" fill="white"/>
<path d="M132 62C134.761 62 137 64.8409 137 66.8958V104.104C137 106.159 134.761 109 132 109C129.239 109 127 106.159 127 104.104V66.8958C127 64.8409 129.239 62 132 62Z" fill="white"/>
<path d="M149 58C151.761 58 154 60.7246 154 62.704V109.296C154 111.275 151.761 114 149 114C146.239 114 144 111.275 144 109.296V62.704C144 60.7246 146.239 58 149 58Z" fill="white"/>
<path fill-rule="evenodd" clip-rule="evenodd" d="M89.1115 142.055H93.2264C95.91 142.055 97.7438 143.558 97.7438 146.077C97.7438 148.508 95.91 150.055 93.2264 150.055H89.1115V142.055ZM104.811 146.033C104.811 140.199 100.383 136 93.942 136H82V167.337H89.0668V156.066H93.942C100.383 156.066 104.811 151.956 104.811 146.033ZM112.948 156.331C112.948 152.619 115.408 150.895 117.957 150.895C120.552 150.895 122.967 152.619 122.967 156.331C122.967 160.044 120.552 161.812 117.957 161.812C115.408 161.812 112.948 160 112.948 156.331ZM106.15 156.331C106.15 163.138 111.338 168 117.957 168C124.622 168 129.765 163.138 129.765 156.331C129.765 149.525 124.622 144.707 117.957 144.707C111.338 144.707 106.15 149.525 106.15 156.331ZM148.857 154.166L154.939 152.354C153.955 148.42 150.377 144.707 144.25 144.707C137.72 144.707 132.531 149.525 132.531 156.376C132.531 163.182 137.854 168 144.473 168C150.422 168 154.09 164.199 155.074 160.354L149.08 158.541C148.588 160.177 147.112 161.812 144.473 161.812C141.656 161.812 139.285 159.867 139.285 156.376C139.285 152.84 141.566 150.895 144.384 150.895C147.023 150.895 148.365 152.486 148.857 154.166ZM164.183 156.331C164.183 152.619 166.643 150.895 169.192 150.895C171.786 150.895 174.202 152.619 174.202 156.331C174.202 160.044 171.786 161.812 169.192 161.812C166.643 161.812 164.183 160 164.183 156.331ZM157.384 156.331C157.384 163.138 162.573 168 169.192 168C175.856 168 181 163.138 181 156.331C181 149.525 175.856 144.707 169.192 144.707C162.573 144.707 157.384 149.525 157.384 156.331Z" fill="white"/>
<defs>
<filter id="filter0_d" x="0" y="0" width="278" height="281" filterUnits="userSpaceOnUse" color-interpolation-filters="sRGB">
<feFlood flood-opacity="0" result="BackgroundImageFix"/>
<feColorMatrix in="SourceAlpha" type="matrix" values="0 0 0 0 0 0 0 0 0 0 0 0 0 0 0 0 0 0 127 0" result="hardAlpha"/>
<feOffset dx="6" dy="28"/>
<feGaussianBlur stdDeviation="25"/>
<feColorMatrix type="matrix" values="0 0 0 0 0.191202 0 0 0 0 0.347754 0 0 0 0 0.829152 0 0 0 0.19 0"/>
<feBlend mode="normal" in2="BackgroundImageFix" result="effect1_dropShadow"/>
<feBlend mode="normal" in="SourceGraphic" in2="effect1_dropShadow" result="shape"/>
</filter>
<linearGradient id="paint0_linear" x1="-38.4356" y1="134.567" x2="150.691" y2="305.352" gradientUnits="userSpaceOnUse">
<stop stop-color="#5799EB"/>
<stop offset="1" stop-color="#9F74FB"/>
</linearGradient>
</defs>
</svg>
